{
.appVersion = "1017";
DisplayStrings = (
""
);
classes = (
{
automatic = 1;
code = "A Aacute Abreve Acircumflex Adieresis Agrave Amacron Aogonek Aring Atilde AE B C Cacute Ccaron Ccedilla Ccircumflex Cdotaccent D Eth Dcaron Dcroat E Eacute Ebreve Ecaron Ecircumflex Edieresis Edotaccent Egrave Emacron Eogonek F G Gbreve Gcircumflex Gcommaaccent Gdotaccent H Hbar Hcircumflex I IJ Iacute Icircumflex Idieresis Idotaccent Igrave Imacron Iogonek Itilde J Jcircumflex K Kcommaaccent L Lacute Lcaron Lcommaaccent Ldot Lslash M N Nacute Ncaron Ncommaaccent Ntilde O Oacute Obreve Ocircumflex Odieresis Ograve Ohungarumlaut Omacron Oslash Otilde OE P Thorn Q R Racute Rcaron Rcommaaccent S Sacute Scaron Scedilla Scircumflex Scommaaccent T Tbar Tcaron Tcedilla Tcommaaccent U Uacute Ubreve Ucircumflex Udieresis Ugrave Uhungarumlaut Umacron Uogonek Uring Utilde V W Wacute Wcircumflex Wdieresis Wgrave X Y Yacute Ycircumflex Ydieresis Z Zacute Zcaron Zdotaccent G.ss03 Gbreve.ss03 Gcircumflex.ss03 Gcommaaccent.ss03 Gdotaccent.ss03 IJ.ss04 J.ss04 Jcircumflex.ss04 Delta Omega";
name = Uppercase;
}
);
copyright = "Copyright © 2018 by Gumpita Rahayu. All rights reserved.";
customParameters = (
{
name = description;
value = "Designed by Gumpita Rahayu from Tokotype in 2013.";
},
{
name = license;
value = "This Font Software is licensed under the SIL Open Font License, Version 1.1. This license is available with a FAQ at: http://scripts.sil.org/OFL";
},
{
name = licenseURL;
value = "http://scripts.sil.org/OFL";
},
{
name = vendorID;
value = TOKO;
},
{
name = glyphOrder;
value = (
.notdef,
space
);
},
{
name = fsType;
value = (
);
},
{
name = trademark;
value = "Mohave is a trademark of Tokotype.";
}
);
date = "2018-03-29 21:42:32 +0000";
designer = "Gumpita Rahayu";
designerURL = "https://www.tokotypefaces.com";
disablesNiceNames = 1;
familyName = Mohave;
featurePrefixes = (
{
automatic = 1;

glyphs = (
{
glyphname = .notdef;
lastChange = "2018-05-02 18:11:20 +0000";
layers = (
{
layerId = "60B18B06-8123-4D0C-85E3-2DE7B5C03586";
paths = (
{
closed = 1;
nodes = (
"372 0 LINE",
"477 750 LINE",
"137 750 LINE",
"32 0 LINE"
);
},
{
closed = 1;
nodes = (
"210 665 LINE",
"380 665 LINE",
"299 85 LINE",
"129 85 LINE"
);
}
);
width = 481;
},
{
hints = (
{
horizontal = 1;
origin = "{0, 3}";
target = "{1, 3}";
},
{
horizontal = 1;
origin = "{0, 2}";
target = "{1, 0}";
}
);
layerId = "DDDB0B36-051A-43AE-9F30-611505482296";
paths = (
{
closed = 1;
nodes = (
"391 0 LINE",
"496 750 LINE",
"156 750 LINE",
"51 0 LINE"
);
},
{
closed = 1;
nodes = (
"203 695 LINE",
"433 695 LINE",
"344 55 LINE",
"114 55 LINE"
);
}
);
width = 518;
}
);
note = .notdef;
},
{
color = 8;
glyphname = A;
lastChange = "2018-05-02 18:11:20 +0000";
layers = (
{
anchors = (
{
name = bottom;
position = "{190, 0}";
},
{
name = ogonek;
position = "{329, 0}";
},
{
name = top;
position = "{295, 750}";
}
);
layerId = "60B18B06-8123-4D0C-85E3-2DE7B5C03586";
paths = (
{
closed = 1;
nodes = (
"114 0 LINE",
"148 117 LINE",
"264 117 LINE",
"265 0 LINE",
"403 0 LINE",
"369 750 LINE",
"223 750 LINE",
"-24 0 LINE"
);
},
{
closed = 1;
nodes = (
"279 568 LINE",
"261 568 LINE",
"263 252 LINE",
"187 252 LINE"
);
}
);
width = 457;
},
{
anchors = (
{
name = bottom;
position = "{192, 0}";
},
{
name = ogonek;
position = "{350, 0}";
},
{
name = top;
position = "{297, 750}";
}
);
hints = (
{
horizontal = 1;
origin = "{0, 7}";
target = up;
type = BottomGhost;
},
{
horizontal = 1;
origin = "{0, 1}";
target = "{1, 3}";
},
{
horizontal = 1;
origin = "{0, 6}";
target = down;
type = TopGhost;
}
);
layerId = "DDDB0B36-051A-43AE-9F30-611505482296";
paths = (
{
closed = 1;
nodes = (
"50 0 LINE",
"110 161 LINE",
"320 161 LINE",
"334 0 LINE",
"391 0 LINE",
"326 750 LINE",
"268 750 LINE",
"-7 0 LINE"
);
},
{
closed = 1;
nodes = (
"290 667 LINE",
"280 667 LINE",
"315 216 LINE",
"129 216 LINE"
);
}
);
width = 460;
},
{
associatedMasterId = "DDDB0B36-051A-43AE-9F30-611505482296";
layerId = "6669D1E1-3322-4A31-837A-101834F2C3CB";
name = "Apr 26 18, 09:50";
paths = (
{
closed = 1;
nodes = (
"100 0 LINE",
"271 750 LINE",
"213 750 LINE",
"43 0 LINE"
);
},
{
closed = 1;
nodes = (
"359 161 LINE",
"359 216 LINE",
"120 216 LINE",
"120 161 LINE"
);
},
{
closed = 1;
nodes = (
"271 750 LINE",
"213 750 LINE",
"384 0 LINE",
"441 0 LINE"
);
}
);
width = 600;
}
);
leftKerningGroup = A;
note = A;
rightKerningGroup = A;
unicode = 0041;
},
{
glyphname = AE;
lastChange = "2018-05-02 18:11:20 +0000";
layers = (
{
hints = (
{
horizontal = 1;
origin = "{0, 15}";
target = "{0, 6}";
},
{
horizontal = 1;
origin = "{0, 1}";
target = "{1, 3}";
},
{
horizontal = 1;
origin = "{0, 7}";
target = "{0, 10}";
},
{
horizontal = 1;
origin = "{0, 14}";
target = "{1, 0}";
}
);
layerId = "DDDB0B36-051A-43AE-9F30-611505482296";
paths = (
{
closed = 1;
nodes = (
"50 0 LINE",
"110 161 LINE",
"284 161 LINE",
"261 0 LINE",
"563 0 LINE",
"571 55 LINE",
"324 55 LINE",
"364 340 LINE",
"584 340 LINE",
"591 395 LINE",
"371 395 LINE",
"413 695 LINE",
"660 695 LINE",
"668 750 LINE",
"268 750 LINE",
"-7 0 LINE"
);
},
{
closed = 1;
nodes = (
"300 695 LINE",
"358 695 LINE",
"291 216 LINE",
"129 216 LINE"
);
}
);
width = 642;
},
{
layerId = "60B18B06-8123-4D0C-85E3-2DE7B5C03586";
paths = (
{
closed = 1;
nodes = (
"114 0 LINE",
"150 117 LINE",
"281 117 LINE",
"265 0 LINE",
"576 0 LINE",
"595 135 LINE",
"419 135 LINE",
"446 330 LINE",
"595 330 LINE",
"614 465 LINE",
"465 465 LINE",
"486 615 LINE",
"662 615 LINE",
"681 750 LINE",
"223 750 LINE",
"-24 0 LINE"
);
},
{
closed = 1;
nodes = (
"306 615 LINE",
"351 615 LINE",
"300 252 LINE",
"192 252 LINE"
);
}
);
width = 659;
}
);
leftKerningGroup = A;
leftMetricsKey = A;
rightKerningGroup = E;
rightMetricsKey = E;
unicode = 00C6;
},
{
color = 8;
glyphname = B;
lastChange = "2018-05-02 18:11:20 +0000";
layers = (
{
layerId = "60B18B06-8123-4D0C-85E3-2DE7B5C03586";
paths = (
{
closed = 1;
nodes = (
"230 0 LINE SMOOTH",
"342 0 OFFCURVE",
"426 74 OFFCURVE",
"441 185 CURVE SMOOTH",
"450 250 LINE SMOOTH",
"459 315 OFFCURVE",
"440 367 OFFCURVE",
"403 399 CURVE",
"398 346 LINE",
"438 378 OFFCURVE",
"465 428 OFFCURVE",
"473 485 CURVE SMOOTH",
"484 565 LINE SMOOTH",
"499 676 OFFCURVE",
"438 750 OFFCURVE",
"325 750 CURVE SMOOTH",
"140 750 LINE",
"35 0 LINE"
);
},
{
closed = 1;
nodes = (
"212 300 LINE",
"272 300 LINE SMOOTH",
"304 300 OFFCURVE",
"319 280 OFFCURVE",
"315 250 CURVE SMOOTH",
"306 185 LINE SMOOTH",
"302 155 OFFCURVE",
"280 135 OFFCURVE",
"249 135 CURVE SMOOTH",
"189 135 LINE"
);
},
{
closed = 1;
nodes = (
"256 615 LINE",
"306 615 LINE SMOOTH",
"338 615 OFFCURVE",
"353 595 OFFCURVE",
"349 565 CURVE SMOOTH",
"338 485 LINE SMOOTH",
"334 455 OFFCURVE",
"312 435 OFFCURVE",
"281 435 CURVE SMOOTH",
"231 435 LINE"
);
}
);
width = 504;
},
{
hints = (
{
horizontal = 1;
origin = "{0, 17}";
target = "{1, 9}";
},
{
horizontal = 1;
origin = "{1, 0}";
target = "{2, 9}";
},
{
horizontal = 1;
origin = "{0, 16}";
target = "{2, 0}";
}
);
layerId = "DDDB0B36-051A-43AE-9F30-611505482296";
paths = (
{
closed = 1;
nodes = (
"250 0 LINE SMOOTH",
"342 0 OFFCURVE",
"414 66 OFFCURVE",
"428 165 CURVE SMOOTH",
"441 255 LINE SMOOTH",
"451 324 OFFCURVE",
"425 378 OFFCURVE",
"381 404 CURVE",
"379 387 LINE",
"426 415 OFFCURVE",
"459 466 OFFCURVE",
"469 530 CURVE SMOOTH",
"477 585 LINE SMOOTH",
"491 684 OFFCURVE",
"438 750 OFFCURVE",
"345 750 CURVE SMOOTH",
"160 750 LINE",
"55 0 LINE"
);
},
{
closed = 1;
nodes = (
"161 365 LINE",
"301 365 LINE SMOOTH",
"358 365 OFFCURVE",
"396 324 OFFCURVE",
"386 255 CURVE SMOOTH",
"373 165 LINE SMOOTH",
"363 97 OFFCURVE",
"316 55 OFFCURVE",
"258 55 CURVE SMOOTH",
"118 55 LINE"
);
},
{
closed = 1;
nodes = (
"207 695 LINE",
"337 695 LINE SMOOTH",
"396 695 OFFCURVE",
"432 651 OFFCURVE",
"422 585 CURVE SMOOTH",
"414 530 LINE SMOOTH",
"404 464 OFFCURVE",
"359 420 OFFCURVE",
"299 420 CURVE SMOOTH",
"169 420 LINE"
);
}
);
width = 513;
}
);
leftKerningGroup = I;
note = B;
rightKerningGroup = B;
unicode = 0042;
},
{
color = 8;
glyphname = C;
lastChange = "2018-05-02 18:11:20 +0000";
layers = (
{
anchors = (
{
name = bottom;
position = "{208, 0}";
},
{
name = top;
position = "{313, 750}";
}
);
layerId = "60B18B06-8123-4D0C-85E3-2DE7B5C03586";
paths = (
{
closed = 1;
nodes = (
"288 209 LINE",
"282 169 LINE SMOOTH",
"277 136 OFFCURVE",
"254 119 OFFCURVE",
"225 119 CURVE SMOOTH",
"193 119 OFFCURVE",
"178 139 OFFCURVE",
"182 169 CURVE SMOOTH",
"240 581 LINE SMOOTH",
"244 611 OFFCURVE",
"265 631 OFFCURVE",
"297 631 CURVE SMOOTH",
"326 631 OFFCURVE",
"345 613 OFFCURVE",
"340 581 CURVE SMOOTH",
"334 541 LINE",
"469 541 LINE",
"475 581 LINE SMOOTH",
"492 692 OFFCURVE",
"427 766 OFFCURVE",
"315 766 CURVE SMOOTH",
"203 766 OFFCURVE",
"121 692 OFFCURVE",
"105 581 CURVE SMOOTH",
"47 169 LINE SMOOTH",
"31 58 OFFCURVE",
"94 -16 OFFCURVE",
"206 -16 CURVE SMOOTH",
"319 -16 OFFCURVE",
"400 58 OFFCURVE",
"417 169 CURVE SMOOTH",
"423 209 LINE"
);
}
);
width = 466;
},
{
anchors = (
{
name = bottom;
position = "{219, 0}";
},
{
name = top;
position = "{324, 750}";
}
);
hints = (
{
horizontal = 1;
origin = "{0, 27}";
target = "{0, 4}";
},
{
horizontal = 1;
origin = "{0, 20}";
target = "{0, 11}";
}
);
layerId = "DDDB0B36-051A-43AE-9F30-611505482296";
paths = (
{
closed = 1;
nodes = (
"366 189 LINE",
"363 169 LINE SMOOTH",
"351 91 OFFCURVE",
"297 39 OFFCURVE",
"225 39 CURVE SMOOTH",
"153 39 OFFCURVE",
"112 91 OFFCURVE",
"123 169 CURVE SMOOTH",
"181 581 LINE SMOOTH",
"192 659 OFFCURVE",
"247 711 OFFCURVE",
"319 711 CURVE SMOOTH",
"390 711 OFFCURVE",
"433 659 OFFCURVE",
"421 581 CURVE SMOOTH",
"418 561 LINE",
"473 561 LINE",
"476 581 LINE SMOOTH",
"493 692 OFFCURVE",
"430 766 OFFCURVE",
"326 766 CURVE SMOOTH",
"222 766 OFFCURVE",
"142 692 OFFCURVE",
"126 581 CURVE SMOOTH",
"68 169 LINE SMOOTH",
"52 58 OFFCURVE",
"113 -16 OFFCURVE",
"217 -16 CURVE SMOOTH",
"322 -16 OFFCURVE",
"401 58 OFFCURVE",
"418 169 CURVE SMOOTH",
"421 189 LINE"
);
}
);
width = 482;
}
);
leftKerningGroup = O;
note = C;
rightKerningGroup = C;
unicode = 0043;
},
{
color = 8;
glyphname = D;
lastChange = "2018-05-02 18:11:20 +0000";
layers = (
{
anchors = (
{
name = bottom;
position = "{212, 0}";
},
{
name = center;
position = "{157, 375}";
},
{
name = top;
position = "{317, 750}";
}
);
layerId = "60B18B06-8123-4D0C-85E3-2DE7B5C03586";
paths = (
{
closed = 1;
nodes = (
"220 0 LINE SMOOTH",
"330 0 OFFCURVE",
"415 71 OFFCURVE",
"431 185 CURVE SMOOTH",
"484 565 LINE SMOOTH",
"499 674 OFFCURVE",
"440 750 OFFCURVE",
"325 750 CURVE SMOOTH",
"140 750 LINE",
"35 0 LINE"
);
},
{
closed = 1;
nodes = (
"256 615 LINE",
"306 615 LINE SMOOTH",
"338 615 OFFCURVE",
"353 595 OFFCURVE",
"349 565 CURVE SMOOTH",
"296 185 LINE SMOOTH",
"292 155 OFFCURVE",
"270 135 OFFCURVE",
"239 135 CURVE SMOOTH",
"189 135 LINE"
);
}
);
width = 502;
},
{
anchors = (
{
name = bottom;
position = "{218, 0}";
},
{
name = center;
position = "{133, 375}";
},
{
name = top;
position = "{323, 750}";
}
);
hints = (
{
horizontal = 1;
origin = "{0, 9}";
target = "{1, 9}";
},
{
horizontal = 1;
origin = "{0, 8}";
target = "{1, 0}";
}
);
layerId = "DDDB0B36-051A-43AE-9F30-611505482296";
paths = (
{
closed = 1;
nodes = (
"220 0 LINE SMOOTH",
"328 0 OFFCURVE",
"406 77 OFFCURVE",
"421 185 CURVE SMOOTH",
"474 565 LINE SMOOTH",
"490 680 OFFCURVE",
"426 750 OFFCURVE",
"325 750 CURVE SMOOTH",
"160 750 LINE",
"55 0 LINE"
);
},
{
closed = 1;
nodes = (
"207 695 LINE",
"317 695 LINE SMOOTH",
"390 695 OFFCURVE",
"430 643 OFFCURVE",
"419 565 CURVE SMOOTH",
"366 185 LINE SMOOTH",
"355 107 OFFCURVE",
"299 55 OFFCURVE",
"228 55 CURVE SMOOTH",
"118 55 LINE"
);
}
);
width = 511;
}
);
leftKerningGroup = I;
note = D;
rightKerningGroup = O;
unicode = 0044;
},
{
color = 8;
glyphname = E;
lastChange = "2018-05-02 18:11:20 +0000";
layers = (
{
anchors = (
{
name = bottom;
position = "{190, 0}";
},
{
name = ogonek;
position = "{190, 0}";
},
{
name = top;
position = "{280, 750}";
}
);
layerId = "60B18B06-8123-4D0C-85E3-2DE7B5C03586";
paths = (
{
closed = 1;
nodes = (
"140 750 LINE",
"35 0 LINE",
"345 0 LINE",
"364 135 LINE",
"189 135 LINE",
"216 330 LINE",
"364 330 LINE",
"383 465 LINE",
"235 465 LINE",
"256 615 LINE",
"431 615 LINE",
"450 750 LINE"
);
}
);
width = 428;
},
{
anchors = (
{
name = bottom;
position = "{205, 0}";
},
{
name = ogonek;
position = "{204, 0}";
},
{
name = top;
position = "{279, 750}";
}
);
hints = (
{
horizontal = 1;
origin = "{0, 1}";
target = "{0, 4}";
},
{
horizontal = 1;
origin = "{0, 5}";
target = "{0, 8}";
},
{
horizontal = 1;
origin = "{0, 0}";
target = "{0, 9}";
}
);
layerId = "DDDB0B36-051A-43AE-9F30-611505482296";
paths = (
{
closed = 1;
nodes = (
"160 750 LINE",
"55 0 LINE",
"355 0 LINE",
"363 55 LINE",
"118 55 LINE",
"158 340 LINE",
"376 340 LINE",
"383 395 LINE",
"165 395 LINE",
"207 695 LINE",
"452 695 LINE",
"460 750 LINE"
);
}
);
width = 434;
}
);
leftKerningGroup = I;
note = E;
rightKerningGroup = E;
unicode = 0045;
},
{
color = 8;
glyphname = F;
lastChange = "2018-05-02 18:11:20 +0000";
layers = (
{
layerId = "60B18B06-8123-4D0C-85E3-2DE7B5C03586";
paths = (
{
closed = 1;
nodes = (
"170 0 LINE",
"204 240 LINE",
"352 240 LINE",
"370 375 LINE",
"222 375 LINE",
"256 615 LINE",
"431 615 LINE",
"450 750 LINE",
"140 750 LINE",
"35 0 LINE"
);
}
);
width = 407;
},
{
hints = (
{
horizontal = 1;
origin = "{0, 9}";
target = up;
type = BottomGhost;
},
{
horizontal = 1;
origin = "{0, 1}";
target = "{0, 4}";
},
{
horizontal = 1;
origin = "{0, 8}";
target = "{0, 5}";
}
);
layerId = "DDDB0B36-051A-43AE-9F30-611505482296";
paths = (
{
closed = 1;
nodes = (
"110 0 LINE",
"153 310 LINE",
"371 310 LINE",
"379 365 LINE",
"161 365 LINE",
"207 695 LINE",
"452 695 LINE",
"460 750 LINE",
"160 750 LINE",
"55 0 LINE"
);
}
);
width = 423;
}
);
leftKerningGroup = I;
note = F;
unicode = 0046;
},
{
color = 8;
glyphname = G;
lastChange = "2018-05-02 18:11:20 +0000";
layers = (
{
anchors = (
{
name = bottom;
position = "{208, 0}";
},
{
name = top;
position = "{313, 750}";
}
);
layerId = "60B18B06-8123-4D0C-85E3-2DE7B5C03586";
paths = (
{
closed = 1;
nodes = (
"319 -16 OFFCURVE",
"401 58 OFFCURVE",
"417 169 CURVE SMOOTH",
"446 375 LINE",
"248 375 LINE",
"229 240 LINE",
"292 240 LINE",
"282 169 LINE SMOOTH",
"278 139 OFFCURVE",
"256 119 OFFCURVE",
"225 119 CURVE SMOOTH",
"193 119 OFFCURVE",
"178 139 OFFCURVE",
"182 169 CURVE SMOOTH",
"240 581 LINE SMOOTH",
"244 611 OFFCURVE",
"265 631 OFFCURVE",
"297 631 CURVE SMOOTH",
"326 631 OFFCURVE",
"345 613 OFFCURVE",
"340 581 CURVE SMOOTH",
"334 541 LINE",
"469 541 LINE",
"475 581 LINE SMOOTH",
"492 692 OFFCURVE",
"427 766 OFFCURVE",
"315 766 CURVE SMOOTH",
"203 766 OFFCURVE",
"121 692 OFFCURVE",
"105 581 CURVE SMOOTH",
"47 169 LINE SMOOTH",
"31 58 OFFCURVE",
"94 -16 OFFCURVE",
"206 -16 CURVE SMOOTH"
);
}
);
width = 484;
},
{
anchors = (
{
name = bottom;
position = "{219, 0}";
},
{
name = top;
position = "{324, 750}";
}
);
hints = (
{
horizontal = 1;
origin = "{0, 33}";
target = "{0, 10}";
},
{
horizontal = 1;
origin = "{0, 5}";
target = "{0, 4}";
},
{
horizontal = 1;
origin = "{0, 26}";
target = "{0, 17}";
}
);
layerId = "DDDB0B36-051A-43AE-9F30-611505482296";
paths = (
{
closed = 1;
nodes = (
"319 -16 OFFCURVE",
"402 55 OFFCURVE",
"418 169 CURVE SMOOTH",
"444 355 LINE",
"276 355 LINE",
"268 300 LINE",
"381 300 LINE",
"363 169 LINE SMOOTH",
"352 91 OFFCURVE",
"297 39 OFFCURVE",
"225 39 CURVE SMOOTH",
"153 39 OFFCURVE",
"112 91 OFFCURVE",
"123 169 CURVE SMOOTH",
"181 581 LINE SMOOTH",
"192 659 OFFCURVE",
"247 711 OFFCURVE",
"319 711 CURVE SMOOTH",
"390 711 OFFCURVE",
"433 659 OFFCURVE",
"421 581 CURVE SMOOTH",
"418 561 LINE",
"473 561 LINE",
"476 581 LINE SMOOTH",
"493 692 OFFCURVE",
"430 766 OFFCURVE",
"326 766 CURVE SMOOTH",
"222 766 OFFCURVE",
"142 692 OFFCURVE",
"126 581 CURVE SMOOTH",
"68 169 LINE SMOOTH",
"52 58 OFFCURVE",
"113 -16 OFFCURVE",
"217 -16 CURVE SMOOTH"
);
}
);
width = 500;
}
);
leftKerningGroup = O;
note = G;
rightKerningGroup = G;
unicode = 0047;
},
{
color = 8;
glyphname = H;
lastChange = "2018-05-02 18:11:20 +0000";
layers = (
{
anchors = (
{
name = bottom;
position = "{210, 0}";
},
{
name = center;
position = "{287, 550}";
},
{
name = top;
position = "{315, 750}";
}
);
layerId = "60B18B06-8123-4D0C-85E3-2DE7B5C03586";
paths = (
{
closed = 1;
nodes = (
"170 0 LINE",
"204 240 LINE",
"284 240 LINE",
"250 0 LINE",
"385 0 LINE",
"490 750 LINE",
"355 750 LINE",
"302 375 LINE",
"222 375 LINE",
"275 750 LINE",
"140 750 LINE",
"35 0 LINE"
);
}
);
width = 497;
},
{
anchors = (
{
name = bottom;
position = "{225, 0}";
},
{
name = center;
position = "{301, 540}";
},
{
name = top;
position = "{330, 750}";
}
);
hints = (
{
horizontal = 1;
origin = "{0, 11}";
target = up;
type = BottomGhost;
},
{
horizontal = 1;
origin = "{0, 1}";
target = "{0, 8}";
},
{
horizontal = 1;
origin = "{0, 10}";
target = down;
type = TopGhost;
}
);
layerId = "DDDB0B36-051A-43AE-9F30-611505482296";
paths = (
{
closed = 1;
nodes = (
"110 0 LINE",
"153 310 LINE",
"383 310 LINE",
"340 0 LINE",
"395 0 LINE",
"500 750 LINE",
"445 750 LINE",
"391 365 LINE",
"161 365 LINE",
"215 750 LINE",
"160 750 LINE",
"55 0 LINE"
);
}
);
width = 526;
}
);
leftKerningGroup = I;
note = H;
rightKerningGroup = I;
unicode = 0048;
},
{
color = 8;
glyphname = I;
lastChange = "2018-05-02 18:11:20 +0000";
layers = (
{
anchors = (
{
name = bottom;
position = "{103, 0}";
},
{
name = ogonek;
position = "{78, 0}";
},
{
name = top;
position = "{208, 750}";
},
{
name = topleft;
position = "{91, 750}";
}
);
layerId = "60B18B06-8123-4D0C-85E3-2DE7B5C03586";
paths = (
{
closed = 1;
nodes = (
"275 750 LINE",
"140 750 LINE",
"35 0 LINE",
"170 0 LINE"
);
}
);
width = 282;
},
{
anchors = (
{
name = bottom;
position = "{83, 0}";
},
{
name = ogonek;
position = "{67, 0}";
},
{
name = top;
position = "{188, 750}";
},
{
name = topleft;
position = "{89, 750}";
}
);
hints = (
{
horizontal = 1;
origin = "{0, 2}";
target = up;
type = BottomGhost;
},
{
horizontal = 1;
origin = "{0, 1}";
target = down;
type = TopGhost;
}
);
layerId = "DDDB0B36-051A-43AE-9F30-611505482296";
paths = (
{
closed = 1;
nodes = (
"215 750 LINE",
"160 750 LINE",
"55 0 LINE",
"110 0 LINE"
);
}
);
width = 241;
}
);
leftKerningGroup = I;
note = I;
rightKerningGroup = I;
unicode = 0049;
},
{
color = 8;
glyphname = J;
lastChange = "2018-05-02 18:11:20 +0000";
layers = (
{
anchors = (
{
name = bottom;
position = "{135, 0}";
},
{
name = top;
position = "{258, 750}";
}
);
layerId = "60B18B06-8123-4D0C-85E3-2DE7B5C03586";
paths = (
{
closed = 1;
nodes = (
"37 -7 LINE SMOOTH",
"147 -7 OFFCURVE",
"232 64 OFFCURVE",
"248 178 CURVE SMOOTH",
"328 750 LINE",
"193 750 LINE",
"113 178 LINE SMOOTH",
"109 148 OFFCURVE",
"87 128 OFFCURVE",
"56 128 CURVE SMOOTH",
"-12 128 LINE",
"-31 -7 LINE"
);
}
);
width = 329;
},
{
anchors = (
{
name = bottom;
position = "{138, 0}";
},
{
name = top;
position = "{279, 750}";
}
);
hints = (
{
horizontal = 1;
origin = "{0, 11}";
target = "{0, 10}";
},
{
horizontal = 1;
origin = "{0, 5}";
target = down;
type = TopGhost;
}
);
layerId = "DDDB0B36-051A-43AE-9F30-611505482296";
paths = (
{
closed = 1;
nodes = (
"27 -6 LINE SMOOTH",
"132 -6 OFFCURVE",
"212 68 OFFCURVE",
"228 179 CURVE SMOOTH",
"308 750 LINE",
"253 750 LINE",
"173 179 LINE SMOOTH",
"162 101 OFFCURVE",
"106 49 OFFCURVE",
"35 49 CURVE SMOOTH",
"-9 49 LINE",
"-17 -6 LINE"
);
}
);
width = 328;
}
);
leftKerningGroup = J;
note = J;
rightKerningGroup = J;
unicode = 004A;
},
{
color = 8;
glyphname = K;
lastChange = "2018-05-02 18:11:20 +0000";
layers = (
{
anchors = (
{
name = bottom;
position = "{206, 0}";
},
{
name = top;
position = "{311, 750}";
}
);
layerId = "60B18B06-8123-4D0C-85E3-2DE7B5C03586";
paths = (
{
closed = 1;
nodes = (
"445 0 LINE",
"345 482 LINE",
"560 750 LINE",
"415 750 LINE",
"233 524 LINE",
"202 303 LINE",
"233 341 LINE",
"300 0 LINE"
);
},
{
closed = 1;
nodes = (
"170 0 LINE",
"275 750 LINE",
"140 750 LINE",
"35 0 LINE"
);
}
);
width = 501;
},
{
anchors = (
{
name = bottom;
position = "{197, 0}";
},
{
name = top;
position = "{302, 750}";
}
);
hints = (
{
horizontal = 1;
origin = "{1, 3}";
target = up;
type = BottomGhost;
},
{
horizontal = 1;
origin = "{1, 2}";
target = down;
type = TopGhost;
}
);
layerId = "DDDB0B36-051A-43AE-9F30-611505482296";
paths = (
{
closed = 1;
nodes = (
"425 0 LINE",
"260 461 LINE",
"501 750 LINE",
"441 750 LINE",
"158 415 LINE",
"145 323 LINE",
"217 410 LINE",
"365 0 LINE"
);
},
{
closed = 1;
nodes = (
"110 0 LINE",
"215 750 LINE",
"160 750 LINE",
"55 0 LINE"
);
}
);
width = 487;
}
);
leftKerningGroup = I;
note = K;
rightKerningGroup = K;
unicode = 004B;
},
{
color = 8;
glyphname = L;
lastChange = "2018-05-02 18:11:20 +0000";
layers = (
{
anchors = (
{
name = bottom;
position = "{139, 0}";
},
{
name = center;
position = "{154, 375}";
},
{
name = top;
position = "{244, 750}";
},
{
name = topright;
position = "{397, 750}";
}
);
layerId = "60B18B06-8123-4D0C-85E3-2DE7B5C03586";
paths = (
{
closed = 1;
nodes = (
"140 750 LINE",
"35 0 LINE",
"325 0 LINE",
"344 135 LINE",
"189 135 LINE",
"275 750 LINE"
);
}
);
width = 379;
},
{
anchors = (
{
name = bottom;
position = "{149, 0}";
},
{
name = center;
position = "{135, 375}";
},
{
name = top;
position = "{254, 750}";
},
{
name = topright;
position = "{418, 750}";
}
);
hints = (
{
horizontal = 1;
origin = "{0, 1}";
target = "{0, 4}";
},
{
horizontal = 1;
origin = "{0, 0}";
target = down;
type = TopGhost;
}
);
layerId = "DDDB0B36-051A-43AE-9F30-611505482296";
paths = (
{
closed = 1;
nodes = (
"160 750 LINE",
"55 0 LINE",
"335 0 LINE",
"343 55 LINE",
"118 55 LINE",
"215 750 LINE"
);
}
);
width = 395;
}
);
leftKerningGroup = I;
note = L;
rightKerningGroup = L;
unicode = 004C;
},
{
color = 8;
glyphname = M;
lastChange = "2018-05-02 18:11:20 +0000";
layers = (
{
layerId = "60B18B06-8123-4D0C-85E3-2DE7B5C03586";
paths = (
{
closed = 1;
nodes = (
"160 0 LINE",
"213 381 LINE",
"197 378 LINE",
"250 0 LINE",
"336 0 LINE",
"495 378 LINE",
"479 381 LINE",
"426 0 LINE",
"551 0 LINE",
"656 750 LINE",
"536 750 LINE",
"301 169 LINE",
"333 169 LINE",
"260 750 LINE",
"140 750 LINE",
"35 0 LINE"
);
}
);
width = 663;
},
{
hints = (
{
horizontal = 1;
origin = "{0, 15}";
target = up;
type = BottomGhost;
},
{
horizontal = 1;
origin = "{0, 14}";
target = down;
type = TopGhost;
}
);
layerId = "DDDB0B36-051A-43AE-9F30-611505482296";
paths = (
{
closed = 1;
nodes = (
"110 0 LINE",
"195 605 LINE",
"188 604 LINE",
"260 0 LINE",
"310 0 LINE",
"550 604 LINE",
"545 605 LINE",
"460 0 LINE",
"515 0 LINE",
"620 750 LINE",
"556 750 LINE",
"291 86 LINE",
"303 86 LINE",
"224 750 LINE",
"160 750 LINE",
"55 0 LINE"
);
}
);
width = 646;
}
);
leftKerningGroup = I;
note = M;
rightKerningGroup = I;
unicode = 004D;
},
{
color = 8;
glyphname = N;
lastChange = "2018-05-02 18:11:20 +0000";
layers = (
{
anchors = (
{
name = bottom;
position = "{215, 0}";
},
{
name = top;
position = "{320, 750}";
}
);
layerId = "60B18B06-8123-4D0C-85E3-2DE7B5C03586";
paths = (
{
closed = 1;
nodes = (
"160 0 LINE",
"228 487 LINE",
"192 486 LINE",
"295 0 LINE",
"395 0 LINE",
"500 750 LINE",
"375 750 LINE",
"307 263 LINE",
"343 264 LINE",
"240 750 LINE",
"140 750 LINE",
"35 0 LINE"
);
}
);
width = 507;
},
{
anchors = (
{
name = bottom;
position = "{230, 0}";
},
{
name = top;
position = "{335, 750}";
}
);
hints = (
{
horizontal = 1;
origin = "{0, 11}";
target = up;
type = BottomGhost;
},
{
horizontal = 1;
origin = "{0, 10}";
target = down;
type = TopGhost;
}
);
layerId = "DDDB0B36-051A-43AE-9F30-611505482296";
paths = (
{
closed = 1;
nodes = (
"110 0 LINE",
"202 656 LINE",
"185 653 LINE",
"350 0 LINE",
"405 0 LINE",
"510 750 LINE",
"455 750 LINE",
"363 94 LINE",
"380 97 LINE",
"215 750 LINE",
"160 750 LINE",
"55 0 LINE"
);
}
);
width = 536;
}
);
leftKerningGroup = I;
note = N;
rightKerningGroup = I;
unicode = 004E;
},
{
color = 8;
glyphname = O;
lastChange = "2018-05-02 18:11:20 +0000";
layers = (
{
anchors = (
{
name = bottom;
position = "{208, 0}";
},
{
name = center;
position = "{261, 375}";
},
{
name = ogonek;
position = "{231, 10}";
},
{
name = top;
position = "{313, 750}";
}
);
layerId = "60B18B06-8123-4D0C-85E3-2DE7B5C03586";
paths = (
{
closed = 1;
nodes = (
"319 -16 OFFCURVE",
"401 58 OFFCURVE",
"417 169 CURVE SMOOTH",
"475 581 LINE SMOOTH",
"491 692 OFFCURVE",
"427 766 OFFCURVE",
"315 766 CURVE SMOOTH",
"203 766 OFFCURVE",
"121 692 OFFCURVE",
"105 581 CURVE SMOOTH",
"47 169 LINE SMOOTH",
"31 58 OFFCURVE",
"94 -16 OFFCURVE",
"206 -16 CURVE SMOOTH"
);
},
{
closed = 1;
nodes = (
"193 119 OFFCURVE",
"178 139 OFFCURVE",
"182 169 CURVE SMOOTH",
"240 581 LINE SMOOTH",
"244 611 OFFCURVE",
"265 631 OFFCURVE",
"297 631 CURVE SMOOTH",
"328 631 OFFCURVE",
"344 611 OFFCURVE",
"340 581 CURVE SMOOTH",
"282 169 LINE SMOOTH",
"278 139 OFFCURVE",
"256 119 OFFCURVE",
"225 119 CURVE SMOOTH"
);
}
);
width = 494;
},
{
anchors = (
{
name = bottom;
position = "{219, 0}";
},
{
name = center;
position = "{272, 375}";
},
{
name = ogonek;
position = "{252, 10}";
},
{
name = top;
position = "{324, 750}";
}
);
hints = (
{
horizontal = 1;
origin = "{0, 13}";
target = "{1, 13}";
},
{
horizontal = 1;
origin = "{0, 6}";
target = "{1, 6}";
}
);
layerId = "DDDB0B36-051A-43AE-9F30-611505482296";
paths = (
{
closed = 1;
nodes = (
"322 -16 OFFCURVE",
"402 58 OFFCURVE",
"418 169 CURVE SMOOTH",
"476 581 LINE SMOOTH",
"492 692 OFFCURVE",
"430 766 OFFCURVE",
"326 766 CURVE SMOOTH",
"222 766 OFFCURVE",
"142 692 OFFCURVE",
"126 581 CURVE SMOOTH",
"68 169 LINE SMOOTH",
"52 58 OFFCURVE",
"113 -16 OFFCURVE",
"217 -16 CURVE SMOOTH"
);
},
{
closed = 1;
nodes = (
"153 39 OFFCURVE",
"112 91 OFFCURVE",
"123 169 CURVE SMOOTH",
"181 581 LINE SMOOTH",
"192 659 OFFCURVE",
"247 711 OFFCURVE",
"319 711 CURVE SMOOTH",
"391 711 OFFCURVE",
"432 659 OFFCURVE",
"421 581 CURVE SMOOTH",
"363 169 LINE SMOOTH",
"352 91 OFFCURVE",
"296 39 OFFCURVE",
"225 39 CURVE SMOOTH"
);
}
);
width = 514;
}
);
leftKerningGroup = O;
note = O;
rightKerningGroup = O;
unicode = 004F;
},
{
glyphname = OE;
lastChange = "2018-05-02 18:11:20 +0000";
layers = (
{
anchors = (
{
name = bottom;
position = "{220, 0}";
},
{
name = center;
position = "{273, 375}";
},
{
name = ogonek;
position = "{253, 10}";
},
{
name = top;
position = "{325, 750}";
}
);
hints = (
{
horizontal = 1;
origin = "{0, 25}";
target = "{1, 13}";
},
{
horizontal = 1;
origin = "{0, 7}";
target = "{0, 10}";
},
{
horizontal = 1;
origin = "{0, 14}";
target = "{0, 11}";
},
{
horizontal = 1;
origin = "{0, 3}";
target = "{0, 6}";
},
{
horizontal = 1;
origin = "{0, 18}";
target = "{1, 6}";
}
);
layerId = "DDDB0B36-051A-43AE-9F30-611505482296";
paths = (
{
closed = 1;
nodes = (
"267 -16 OFFCURVE",
"309 0 OFFCURVE",
"343 28 CURVE",
"339 0 LINE",
"639 0 LINE",
"647 55 LINE",
"402 55 LINE",
"442 340 LINE",
"660 340 LINE",
"668 395 LINE",
"450 395 LINE",
"492 695 LINE",
"737 695 LINE",
"744 750 LINE",
"444 750 LINE",
"440 722 LINE",
"414 750 OFFCURVE",
"375 766 OFFCURVE",
"326 766 CURVE SMOOTH",
"222 766 OFFCURVE",
"142 692 OFFCURVE",
"126 581 CURVE SMOOTH",
"68 169 LINE SMOOTH",
"52 58 OFFCURVE",
"113 -16 OFFCURVE",
"217 -16 CURVE SMOOTH"
);
},
{
closed = 1;
nodes = (
"153 39 OFFCURVE",
"112 91 OFFCURVE",
"123 169 CURVE SMOOTH",
"181 581 LINE SMOOTH",
"192 659 OFFCURVE",
"247 711 OFFCURVE",
"319 711 CURVE SMOOTH",
"391 711 OFFCURVE",
"432 659 OFFCURVE",
"421 581 CURVE SMOOTH",
"363 169 LINE SMOOTH",
"352 91 OFFCURVE",
"296 39 OFFCURVE",
"225 39 CURVE SMOOTH"
);
}
);
width = 718;
},
{
anchors = (
{
name = bottom;
position = "{208, 0}";
},
{
name = center;
position = "{261, 375}";
},
{
name = ogonek;
position = "{231, 10}";
},
{
name = top;
position = "{313, 750}";
}
);
layerId = "60B18B06-8123-4D0C-85E3-2DE7B5C03586";
paths = (
{
closed = 1;
nodes = (
"266 -16 OFFCURVE",
"318 5 OFFCURVE",
"355 41 CURVE",
"349 0 LINE",
"659 0 LINE",
"678 135 LINE",
"503 135 LINE",
"531 330 LINE",
"679 330 LINE",
"697 465 LINE",
"549 465 LINE",
"570 615 LINE",
"745 615 LINE",
"764 750 LINE",
"454 750 LINE",
"449 709 LINE",
"422 745 OFFCURVE",
"374 766 OFFCURVE",
"315 766 CURVE SMOOTH",
"203 766 OFFCURVE",
"121 692 OFFCURVE",
"105 581 CURVE SMOOTH",
"47 169 LINE SMOOTH",
"31 58 OFFCURVE",
"94 -16 OFFCURVE",
"206 -16 CURVE SMOOTH"
);
},
{
closed = 1;
nodes = (
"193 119 OFFCURVE",
"178 139 OFFCURVE",
"182 169 CURVE SMOOTH",
"240 581 LINE SMOOTH",
"244 611 OFFCURVE",
"265 631 OFFCURVE",
"297 631 CURVE SMOOTH",
"328 631 OFFCURVE",
"344 611 OFFCURVE",
"340 581 CURVE SMOOTH",
"282 169 LINE SMOOTH",
"278 139 OFFCURVE",
"256 119 OFFCURVE",
"225 119 CURVE SMOOTH"
);
}
);
width = 742;
}
);
leftKerningGroup = O;
leftMetricsKey = O;
rightKerningGroup = E;
rightMetricsKey = E;
unicode = 0152;
},
{
color = 8;
glyphname = P;
lastChange = "2018-05-02 18:11:20 +0000";
layers = (
{
anchors = (
{
name = bottom;
position = "{192, 0}";
},
{
name = top;
position = "{297, 750}";
}
);
layerId = "60B18B06-8123-4D0C-85E3-2DE7B5C03586";
paths = (
{
closed = 1;
nodes = (
"170 0 LINE",
"209 280 LINE",
"259 280 LINE SMOOTH",
"369 280 OFFCURVE",
"454 351 OFFCURVE",
"470 465 CURVE SMOOTH",
"484 565 LINE SMOOTH",
"500 680 OFFCURVE",
"434 750 OFFCURVE",
"325 750 CURVE SMOOTH",
"140 750 LINE",
"35 0 LINE"
);
},
{
closed = 1;
nodes = (
"256 615 LINE",
"306 615 LINE SMOOTH",
"339 615 OFFCURVE",
"353 595 OFFCURVE",
"349 565 CURVE SMOOTH",
"335 465 LINE SMOOTH",
"331 435 OFFCURVE",
"309 415 OFFCURVE",
"278 415 CURVE SMOOTH",
"228 415 LINE"
);
}
);
width = 470;
},
{
anchors = (
{
name = bottom;
position = "{194, 0}";
},
{
name = top;
position = "{299, 750}";
}
);
hints = (
{
horizontal = 1;
origin = "{0, 11}";
target = up;
type = BottomGhost;
},
{
horizontal = 1;
origin = "{0, 1}";
target = "{1, 9}";
},
{
horizontal = 1;
origin = "{0, 10}";
target = "{1, 0}";
}
);
layerId = "DDDB0B36-051A-43AE-9F30-611505482296";
paths = (
{
closed = 1;
nodes = (
"110 0 LINE",
"158 345 LINE",
"288 345 LINE SMOOTH",
"378 345 OFFCURVE",
"451 408 OFFCURVE",
"466 510 CURVE SMOOTH",
"477 585 LINE SMOOTH",
"492 684 OFFCURVE",
"437 750 OFFCURVE",
"345 750 CURVE SMOOTH",
"160 750 LINE",
"55 0 LINE"
);
},
{
closed = 1;
nodes = (
"207 695 LINE",
"337 695 LINE SMOOTH",
"396 695 OFFCURVE",
"432 651 OFFCURVE",
"422 585 CURVE SMOOTH",
"411 510 LINE SMOOTH",
"401 444 OFFCURVE",
"356 400 OFFCURVE",
"296 400 CURVE SMOOTH",
"166 400 LINE"
);
}
);
width = 477;
},
{
associatedMasterId = "DDDB0B36-051A-43AE-9F30-611505482296";
layerId = "717232E1-C685-40E8-BA8C-325482597663";
name = "Apr 29 18, 11:00";
paths = (
{
closed = 1;
nodes = (
"278 345 LINE SMOOTH",
"371 345 OFFCURVE",
"433 411 OFFCURVE",
"433 510 CURVE SMOOTH",
"433 585 LINE SMOOTH",
"433 684 OFFCURVE",
"371 750 OFFCURVE",
"278 750 CURVE SMOOTH",
"93 750 LINE",
"93 345 LINE"
);
},
{
closed = 1;
nodes = (
"148 695 LINE",
"278 695 LINE SMOOTH",
"338 695 OFFCURVE",
"378 651 OFFCURVE",
"378 585 CURVE SMOOTH",
"378 510 LINE SMOOTH",
"378 444 OFFCURVE",
"338 400 OFFCURVE",
"278 400 CURVE SMOOTH",
"148 400 LINE"
);
},
{
closed = 1;
nodes = (
"148 750 LINE",
"93 750 LINE",
"93 0 LINE",
"148 0 LINE"
);
}
);
width = 477;
}
);
leftKerningGroup = I;
note = P;
rightKerningGroup = P;
unicode = 0050;
},
{
glyphname = Thorn;
lastChange = "2018-05-02 18:11:20 +0000";
layers = (
{
hints = (
{
horizontal = 1;
origin = "{0, 13}";
target = up;
type = BottomGhost;
},
{
horizontal = 1;
origin = "{0, 1}";
target = "{1, 9}";
},
{
horizontal = 1;
origin = "{1, 0}";
target = "{0, 10}";
}
);
layerId = "DDDB0B36-051A-43AE-9F30-611505482296";
paths = (
{
closed = 1;
nodes = (
"110 0 LINE",
"141 222 LINE",
"271 222 LINE SMOOTH",
"361 222 OFFCURVE",
"434 285 OFFCURVE",
"449 387 CURVE SMOOTH",
"460 462 LINE SMOOTH",
"474 557 OFFCURVE",
"424 627 OFFCURVE",
"328 627 CURVE SMOOTH",
"198 627 LINE",
"215 750 LINE",
"160 750 LINE",
"55 0 LINE"
);
},
{
closed = 1;
nodes = (
"190 572 LINE",
"320 572 LINE SMOOTH",
"379 572 OFFCURVE",
"415 528 OFFCURVE",
"405 462 CURVE SMOOTH",
"394 387 LINE SMOOTH",
"384 321 OFFCURVE",
"339 277 OFFCURVE",
"279 277 CURVE SMOOTH",
"149 277 LINE"
);
}
);
width = 477;
},
{
layerId = "60B18B06-8123-4D0C-85E3-2DE7B5C03586";
paths = (
{
closed = 1;
nodes = (
"170 0 LINE",
"196 189 LINE",
"246 189 LINE SMOOTH",
"362 189 OFFCURVE",
"442 266 OFFCURVE",
"457 374 CURVE SMOOTH",
"471 474 LINE SMOOTH",
"486 581 OFFCURVE",
"429 659 OFFCURVE",
"312 659 CURVE SMOOTH",
"262 659 LINE",
"275 750 LINE",
"140 750 LINE",
"35 0 LINE"
);
},
{
closed = 1;
nodes = (
"243 524 LINE",
"293 524 LINE SMOOTH",
"325 524 OFFCURVE",
"340 504 OFFCURVE",
"336 474 CURVE SMOOTH",
"322 374 LINE SMOOTH",
"318 344 OFFCURVE",
"296 324 OFFCURVE",
"265 324 CURVE SMOOTH",
"215 324 LINE"
);
}
);
width = 470;
}
);
leftKerningGroup = I;
leftMetricsKey = P;
rightKerningGroup = P;
rightMetricsKey = P;
unicode = 00DE;
},
{
color = 8;
glyphname = Q;
lastChange = "2018-05-02 18:11:20 +0000";
layers = (
{
layerId = "60B18B06-8123-4D0C-85E3-2DE7B5C03586";
paths = (
{
closed = 1;
nodes = (
"371 -92 LINE",
"342 219 LINE",
"203 219 LINE",
"234 -92 LINE"
);
},
{
closed = 1;
nodes = (
"319 -16 OFFCURVE",
"401 58 OFFCURVE",
"417 169 CURVE SMOOTH",
"475 581 LINE SMOOTH",
"491 692 OFFCURVE",
"427 766 OFFCURVE",
"315 766 CURVE SMOOTH",
"203 766 OFFCURVE",
"121 692 OFFCURVE",
"105 581 CURVE SMOOTH",
"47 169 LINE SMOOTH",
"31 58 OFFCURVE",
"94 -16 OFFCURVE",
"206 -16 CURVE SMOOTH"
);
},
{
closed = 1;
nodes = (
"193 119 OFFCURVE",
"178 139 OFFCURVE",
"182 169 CURVE SMOOTH",
"240 581 LINE SMOOTH",
"244 611 OFFCURVE",
"265 631 OFFCURVE",
"297 631 CURVE SMOOTH",
"328 631 OFFCURVE",
"344 611 OFFCURVE",
"340 581 CURVE SMOOTH",
"282 169 LINE SMOOTH",
"278 139 OFFCURVE",
"256 119 OFFCURVE",
"225 119 CURVE SMOOTH"
);
}
);
width = 494;
},
{
hints = (
{
horizontal = 1;
origin = "{1, 13}";
target = "{2, 13}";
},
{
horizontal = 1;
origin = "{1, 6}";
target = "{2, 6}";
}
);
layerId = "DDDB0B36-051A-43AE-9F30-611505482296";
paths = (
{
closed = 1;
nodes = (
"340 -90 LINE",
"277 219 LINE",
"221 219 LINE",
"284 -90 LINE"
);
},
{
closed = 1;
nodes = (
"322 -16 OFFCURVE",
"402 58 OFFCURVE",
"418 169 CURVE SMOOTH",
"476 581 LINE SMOOTH",
"492 692 OFFCURVE",
"430 766 OFFCURVE",
"326 766 CURVE SMOOTH",
"222 766 OFFCURVE",
"142 692 OFFCURVE",
"126 581 CURVE SMOOTH",
"68 169 LINE SMOOTH",
"52 58 OFFCURVE",
"113 -16 OFFCURVE",
"217 -16 CURVE SMOOTH"
);
},
{
closed = 1;
nodes = (
"153 39 OFFCURVE",
"112 91 OFFCURVE",
"123 169 CURVE SMOOTH",
"181 581 LINE SMOOTH",
"192 659 OFFCURVE",
"247 711 OFFCURVE",
"319 711 CURVE SMOOTH",
"391 711 OFFCURVE",
"432 659 OFFCURVE",
"421 581 CURVE SMOOTH",
"363 169 LINE SMOOTH",
"352 91 OFFCURVE",
"296 39 OFFCURVE",
"225 39 CURVE SMOOTH"
);
}
);
width = 514;
}
);
leftKerningGroup = O;
note = Q;
rightKerningGroup = O;
unicode = 0051;
},
{
color = 8;
glyphname = R;
lastChange = "2018-05-02 18:11:20 +0000";
layers = (
{
anchors = (
{
name = bottom;
position = "{214, 0}";
},
{
name = top;
position = "{319, 750}";
}
);
layerId = "60B18B06-8123-4D0C-85E3-2DE7B5C03586";
paths = (
{
closed = 1;
nodes = (
"170 0 LINE",
"206 260 LINE",
"256 260 LINE SMOOTH",
"288 260 OFFCURVE",
"303 240 OFFCURVE",
"299 210 CURVE SMOOTH",
"270 0 LINE",
"405 0 LINE",
"434 210 LINE SMOOTH",
"442 268 OFFCURVE",
"415 308 OFFCURVE",
"360 330 CURVE",
"364 286 LINE",
"421 319 OFFCURVE",
"457 375 OFFCURVE",
"467 445 CURVE SMOOTH",
"484 565 LINE SMOOTH",
"500 676 OFFCURVE",
"437 750 OFFCURVE",
"325 750 CURVE SMOOTH",
"140 750 LINE",
"35 0 LINE"
);
},
{
closed = 1;
nodes = (
"256 615 LINE",
"306 615 LINE SMOOTH",
"338 615 OFFCURVE",
"353 595 OFFCURVE",
"349 565 CURVE SMOOTH",
"332 445 LINE SMOOTH",
"328 415 OFFCURVE",
"306 395 OFFCURVE",
"275 395 CURVE SMOOTH",
"225 395 LINE"
);
}
);
width = 505;
},
{
associatedMasterId = "60B18B06-8123-4D0C-85E3-2DE7B5C03586";
layerId = "39C2CA93-2650-459A-BE0E-7AE4DC651A2C";
name = "Apr 25 18, 16:34";
paths = (
{
closed = 1;
nodes = (
"149 281 LINE",
"231 281 LINE SMOOTH",
"274 281 OFFCURVE",
"311 244 OFFCURVE",
"311 200 CURVE SMOOTH",
"311 0 LINE",
"408 0 LINE",
"408 200 LINE SMOOTH",
"408 249 OFFCURVE",
"387 299 OFFCURVE",
"349 332 CURVE",
"380 364 OFFCURVE",
"401 409 OFFCURVE",
"401 454 CURVE SMOOTH",
"401 576 LINE SMOOTH",
"401 672 OFFCURVE",
"322 750 OFFCURVE",
"226 750 CURVE SMOOTH",
"52 750 LINE",
"52 0 LINE",
"149 0 LINE"
);
},
{
closed = 1;
nodes = (
"226 654 LINE SMOOTH",
"269 654 OFFCURVE",
"303 619 OFFCURVE",
"303 576 CURVE SMOOTH",
"303 454 LINE SMOOTH",
"303 413 OFFCURVE",
"271 377 OFFCURVE",
"230 377 CURVE SMOOTH",
"149 377 LINE",
"149 654 LINE"
);
}
);
width = 454;
},
{
anchors = (
{
name = bottom;
position = "{219, 0}";
},
{
name = top;
position = "{324, 750}";
}
);
hints = (
{
horizontal = 1;
origin = "{0, 21}";
target = up;
type = BottomGhost;
},
{
horizontal = 1;
origin = "{0, 1}";
target = "{1, 9}";
},
{
horizontal = 1;
origin = "{0, 20}";
target = "{1, 0}";
}
);
layerId = "DDDB0B36-051A-43AE-9F30-611505482296";
paths = (
{
closed = 1;
nodes = (
"110 0 LINE",
"155 325 LINE",
"285 325 LINE SMOOTH",
"345 325 OFFCURVE",
"379 285 OFFCURVE",
"371 225 CURVE SMOOTH",
"340 0 LINE",
"395 0 LINE",
"426 225 LINE SMOOTH",
"435 290 OFFCURVE",
"408 336 OFFCURVE",
"362 356 CURVE",
"361 341 LINE",
"416 367 OFFCURVE",
"454 421 OFFCURVE",
"464 490 CURVE SMOOTH",
"477 585 LINE SMOOTH",
"491 688 OFFCURVE",
"434 750 OFFCURVE",
"345 750 CURVE SMOOTH",
"160 750 LINE",
"55 0 LINE"
);
},
{
closed = 1;
nodes = (
"207 695 LINE",
"337 695 LINE SMOOTH",
"397 695 OFFCURVE",
"431 651 OFFCURVE",
"422 585 CURVE SMOOTH",
"409 490 LINE SMOOTH",
"400 424 OFFCURVE",
"353 380 OFFCURVE",
"293 380 CURVE SMOOTH",
"163 380 LINE"
);
}
);
width = 514;
}
);
leftKerningGroup = I;
note = R;
rightKerningGroup = R;
unicode = 0052;
},
{
color = 8;
glyphname = S;
lastChange = "2018-05-02 18:11:20 +0000";
layers = (
{
anchors = (
{
name = bottom;
position = "{194, 0}";
},
{
name = top;
position = "{299, 750}";
}
);
layerId = "60B18B06-8123-4D0C-85E3-2DE7B5C03586";
paths = (
{
closed = 1;
nodes = (
"306 -16 OFFCURVE",
"388 58 OFFCURVE",
"404 169 CURVE SMOOTH",
"415 246 LINE SMOOTH",
"431 357 OFFCURVE",
"368 431 OFFCURVE",
"256 431 CURVE SMOOTH",
"224 431 OFFCURVE",
"209 451 OFFCURVE",
"213 481 CURVE SMOOTH",
"227 581 LINE SMOOTH",
"231 611 OFFCURVE",
"252 631 OFFCURVE",
"284 631 CURVE SMOOTH",
"313 631 OFFCURVE",
"332 613 OFFCURVE",
"327 581 CURVE SMOOTH",
"321 541 LINE",
"456 541 LINE",
"462 581 LINE SMOOTH",
"479 692 OFFCURVE",
"414 766 OFFCURVE",
"302 766 CURVE SMOOTH",
"188 766 OFFCURVE",
"107 690 OFFCURVE",
"92 581 CURVE SMOOTH",
"78 481 LINE SMOOTH",
"62 368 OFFCURVE",
"126 296 OFFCURVE",
"237 296 CURVE SMOOTH",
"269 296 OFFCURVE",
"284 276 OFFCURVE",
"280 246 CURVE SMOOTH",
"269 169 LINE SMOOTH",
"265 139 OFFCURVE",
"243 119 OFFCURVE",
"212 119 CURVE SMOOTH",
"177 119 OFFCURVE",
"165 142 OFFCURVE",
"169 169 CURVE SMOOTH",
"175 209 LINE",
"40 209 LINE",
"34 169 LINE SMOOTH",
"17 58 OFFCURVE",
"81 -16 OFFCURVE",
"193 -16 CURVE SMOOTH"
);
}
);
width = 465;
},
{
anchors = (
{
name = bottom;
position = "{199, 0}";
},
{
name = top;
position = "{304, 750}";
}
);
hints = (
{
horizontal = 1;
origin = "{0, 45}";
target = "{0, 36}";
},
{
horizontal = 1;
origin = "{0, 29}";
target = "{0, 6}";
},
{
horizontal = 1;
origin = "{0, 22}";
target = "{0, 13}";
}
);
layerId = "DDDB0B36-051A-43AE-9F30-611505482296";
paths = (
{
closed = 1;
nodes = (
"302 -16 OFFCURVE",
"382 58 OFFCURVE",
"398 169 CURVE SMOOTH",
"405 218 LINE SMOOTH",
"421 329 OFFCURVE",
"360 403 OFFCURVE",
"256 403 CURVE SMOOTH",
"184 403 OFFCURVE",
"143 455 OFFCURVE",
"154 533 CURVE SMOOTH",
"161 581 LINE SMOOTH",
"172 659 OFFCURVE",
"228 711 OFFCURVE",
"299 711 CURVE SMOOTH",
"370 711 OFFCURVE",
"413 659 OFFCURVE",
"401 581 CURVE SMOOTH",
"398 561 LINE",
"453 561 LINE",
"456 581 LINE SMOOTH",
"473 692 OFFCURVE",
"410 766 OFFCURVE",
"306 766 CURVE SMOOTH",
"202 766 OFFCURVE",
"122 692 OFFCURVE",
"106 581 CURVE SMOOTH",
"99 533 LINE SMOOTH",
"83 422 OFFCURVE",
"143 348 OFFCURVE",
"248 348 CURVE SMOOTH",
"320 348 OFFCURVE",
"361 296 OFFCURVE",
"350 218 CURVE SMOOTH",
"343 169 LINE SMOOTH",
"332 91 OFFCURVE",
"276 39 OFFCURVE",
"205 39 CURVE SMOOTH",
"134 39 OFFCURVE",
"91 91 OFFCURVE",
"103 169 CURVE SMOOTH",
"106 189 LINE",
"51 189 LINE",
"48 169 LINE SMOOTH",
"31 58 OFFCURVE",
"93 -16 OFFCURVE",
"197 -16 CURVE SMOOTH"
);
}
);
width = 474;
}
);
leftKerningGroup = S;
note = S;
rightKerningGroup = S;
unicode = 0053;
},
{
color = 8;
glyphname = T;
lastChange = "2018-05-02 18:11:20 +0000";
layers = (
{
anchors = (
{
name = bottom;
position = "{143, 0}";
},
{
name = center;
position = "{202, 375}";
},
{
name = top;
position = "{255, 750}";
}
);
layerId = "60B18B06-8123-4D0C-85E3-2DE7B5C03586";
paths = (
{
closed = 1;
nodes = (
"217 0 LINE",
"303 615 LINE",
"413 615 LINE",
"432 750 LINE",
"77 750 LINE",
"58 615 LINE",
"168 615 LINE",
"82 0 LINE"
);
}
);
width = 375;
},
{
anchors = (
{
name = bottom;
position = "{147, 0}";
},
{
name = center;
position = "{200, 375}";
},
{
name = top;
position = "{253, 750}";
}
);
hints = (
{
horizontal = 1;
origin = "{0, 7}";
target = up;
type = BottomGhost;
},
{
horizontal = 1;
origin = "{0, 4}";
target = "{0, 5}";
}
);
layerId = "DDDB0B36-051A-43AE-9F30-611505482296";
paths = (
{
closed = 1;
nodes = (
"175 0 LINE",
"272 695 LINE",
"407 695 LINE",
"415 750 LINE",
"90 750 LINE",
"82 695 LINE",
"217 695 LINE",
"120 0 LINE"
);
}
);
width = 370;
}
);
leftKerningGroup = T;
note = T;
rightKerningGroup = T;
unicode = 0054;
},
{
color = 8;
glyphname = U;
lastChange = "2018-05-02 18:11:20 +0000";
layers = (
{
anchors = (
{
name = bottom;
position = "{215, 0}";
},
{
name = ogonek;
position = "{215, 0}";
},
{
name = top;
position = "{320, 750}";
}
);
layerId = "60B18B06-8123-4D0C-85E3-2DE7B5C03586";
paths = (
{
closed = 1;
nodes = (
"370 750 LINE",
"289 169 LINE SMOOTH",
"285 139 OFFCURVE",
"263 119 OFFCURVE",
"232 119 CURVE SMOOTH",
"200 119 OFFCURVE",
"185 139 OFFCURVE",
"189 169 CURVE SMOOTH",
"270 750 LINE",
"135 750 LINE",
"54 169 LINE SMOOTH",
"38 54 OFFCURVE",
"104 -16 OFFCURVE",
"213 -16 CURVE SMOOTH",
"323 -16 OFFCURVE",
"408 55 OFFCURVE",
"424 169 CURVE SMOOTH",
"505 750 LINE"
);
}
);
width = 507;
},
{
anchors = (
{
name = bottom;
position = "{226, 0}";
},
{
name = ogonek;
position = "{225, 0}";
},
{
name = top;
position = "{331, 750}";
}
);
hints = (
{
horizontal = 1;
origin = "{0, 13}";
target = "{0, 4}";
},
{
horizontal = 1;
origin = "{0, 9}";
target = down;
type = TopGhost;
}
);
layerId = "DDDB0B36-051A-43AE-9F30-611505482296";
paths = (
{
closed = 1;
nodes = (
"450 750 LINE",
"369 169 LINE SMOOTH",
"358 91 OFFCURVE",
"303 39 OFFCURVE",
"231 39 CURVE SMOOTH",
"159 39 OFFCURVE",
"118 91 OFFCURVE",
"129 169 CURVE SMOOTH",
"210 750 LINE",
"155 750 LINE",
"74 169 LINE SMOOTH",
"58 54 OFFCURVE",
"122 -16 OFFCURVE",
"223 -16 CURVE SMOOTH",
"325 -16 OFFCURVE",
"408 55 OFFCURVE",
"424 169 CURVE SMOOTH",
"505 750 LINE"
);
}
);
width = 526;
}
);
leftKerningGroup = U;
note = U;
rightKerningGroup = U;
unicode = 0055;
},
{
color = 8;
glyphname = V;
lastChange = "2018-05-02 18:11:20 +0000";
layers = (
{
layerId = "60B18B06-8123-4D0C-85E3-2DE7B5C03586";
paths = (
{
closed = 1;
nodes = (
"265 0 LINE",
"509 750 LINE",
"371 750 LINE",
"210 191 LINE",
"228 191 LINE",
"220 750 LINE",
"82 750 LINE",
"119 0 LINE"
);
}
);
width = 457;
},
{
hints = (
{
horizontal = 1;
origin = "{0, 7}";
target = up;
type = BottomGhost;
},
{
horizontal = 1;
origin = "{0, 6}";
target = down;
type = TopGhost;
}
);
layerId = "DDDB0B36-051A-43AE-9F30-611505482296";
paths = (
{
closed = 1;
nodes = (
"221 0 LINE",
"496 750 LINE",
"439 750 LINE",
"201 103 LINE",
"213 103 LINE",
"155 750 LINE",
"98 750 LINE",
"163 0 LINE"
);
}
);
width = 460;
}
);
note = V;
unicode = 0056;
},
{
color = 8;
glyphname = W;
lastChange = "2018-05-02 18:11:20 +0000";
layers = (
{
anchors = (
{
name = bottom;
position = "{303, 0}";
},
{
name = top;
position = "{408, 750}";
}
);
layerId = "60B18B06-8123-4D0C-85E3-2DE7B5C03586";
paths = (
{
closed = 1;
nodes = (
"228 0 LINE",
"377 451 LINE",
"355 451 LINE",
"377 0 LINE",
"523 0 LINE",
"720 750 LINE",
"582 750 LINE",
"456 231 LINE",
"472 231 LINE",
"462 750 LINE",
"353 750 LINE",
"197 231 LINE",
"213 231 LINE",
"233 750 LINE",
"95 750 LINE",
"82 0 LINE"
);
}
);
width = 681;
},
{
associatedMasterId = "60B18B06-8123-4D0C-85E3-2DE7B5C03586";
layerId = "7AC04416-80C8-4AEE-BAA9-DA417D64F7BF";
name = "Apr 25 18, 16:40";
paths = (
{
closed = 1;
nodes = (
"336 495 LINE",
"412 0 LINE",
"515 0 LINE",
"636 750 LINE",
"538 750 LINE",
"463 323 LINE",
"388 750 LINE",
"285 750 LINE",
"210 323 LINE",
"135 750 LINE",
"37 750 LINE",
"158 0 LINE",
"261 0 LINE"
);
}
);
width = 673;
},
{
anchors = (
{
name = bottom;
position = "{282, 0}";
},
{
name = top;
position = "{387, 750}";
}
);
hints = (
{
horizontal = 1;
origin = "{0, 15}";
target = up;
type = BottomGhost;
},
{
horizontal = 1;
origin = "{0, 14}";
target = down;
type = TopGhost;
}
);
layerId = "DDDB0B36-051A-43AE-9F30-611505482296";
paths = (
{
closed = 1;
nodes = (
"172 0 LINE",
"373 616 LINE",
"364 616 LINE",
"391 0 LINE",
"449 0 LINE",
"664 750 LINE",
"607 750 LINE",
"429 112 LINE",
"436 113 LINE",
"413 750 LINE",
"360 750 LINE",
"159 113 LINE",
"166 112 LINE",
"166 750 LINE",
"109 750 LINE",
"114 0 LINE"
);
}
);
width = 639;
},
{
associatedMasterId = "DDDB0B36-051A-43AE-9F30-611505482296";
layerId = "F3D4BCD6-DEEE-4411-B041-4C3F669BA026";
name = "Apr 26 18, 11:00";
paths = (
{
closed = 1;
nodes = (
"211 0 LINE",
"337 750 LINE",
"284 750 LINE",
"186 137 LINE",
"100 750 LINE",
"43 750 LINE",
"153 0 LINE"
);
},
{
closed = 1;
nodes = (
"578 750 LINE",
"521 750 LINE",
"435 137 LINE",
"337 750 LINE",
"284 750 LINE",
"410 0 LINE",
"468 0 LINE"
);
}
);
width = 600;
}
);
leftKerningGroup = W;
note = W;
rightKerningGroup = W;
unicode = 0057;
},
{
color = 8;
glyphname = X;
lastChange = "2018-05-02 18:11:20 +0000";
layers = (
{
layerId = "60B18B06-8123-4D0C-85E3-2DE7B5C03586";
paths = (
{
closed = 1;
nodes = (
"115 0 LINE",
"245 249 LINE",
"202 249 LINE",
"260 0 LINE",
"398 0 LINE",
"309 375 LINE",
"503 750 LINE",
"365 750 LINE",
"237 501 LINE",
"280 501 LINE",
"220 750 LINE",
"82 750 LINE",
"171 375 LINE",
"-23 0 LINE"
);
}
);
width = 452;
},
{
hints = (
{
horizontal = 1;
origin = "{0, 13}";
target = up;
type = BottomGhost;
},
{
horizontal = 1;
origin = "{0, 11}";
target = down;
type = TopGhost;
}
);
layerId = "DDDB0B36-051A-43AE-9F30-611505482296";
paths = (
{
closed = 1;
nodes = (
"50 0 LINE",
"249 335 LINE",
"229 335 LINE",
"334 0 LINE",
"391 0 LINE",
"274 376 LINE",
"496 750 LINE",
"438 750 LINE",
"240 416 LINE",
"260 416 LINE",
"156 750 LINE",
"98 750 LINE",
"216 376 LINE",
"-7 0 LINE"
);
}
);
width = 460;
},
{
associatedMasterId = "60B18B06-8123-4D0C-85E3-2DE7B5C03586";
layerId = "767CC648-F331-45EB-A0E3-CD7EA67E24E4";
name = "Apr 26 18, 11:01";
paths = (
{
closed = 1;
nodes = (
"298 750 LINE",
"436 750 LINE",
"153 0 LINE",
"15 0 LINE"
);
},
{
closed = 1;
nodes = (
"436 0 LINE",
"153 750 LINE",
"15 750 LINE",
"298 0 LINE"
);
}
);
width = 451;
},
{
associatedMasterId = "DDDB0B36-051A-43AE-9F30-611505482296";
layerId = "ACED6411-93E7-4B74-AFE3-083CFF28D3D2";
name = "Apr 26 18, 11:02";
paths = (
{
closed = 1;
nodes = (
"443 750 LINE",
"501 750 LINE",
"160 0 LINE",
"103 0 LINE"
);
},
{
closed = 1;
nodes = (
"501 0 LINE",
"161 750 LINE",
"103 750 LINE",
"444 0 LINE"
);
}
);
width = 600;
}
);
note = X;
unicode = 0058;
},
{
color = 8;
glyphname = Y;
lastChange = "2018-05-02 18:11:20 +0000";
layers = (
{
anchors = (
{
name = bottom;
position = "{189, 0}";
},
{
name = top;
position = "{294, 750}";
}
);
layerId = "60B18B06-8123-4D0C-85E3-2DE7B5C03586";
paths = (
{
closed = 1;
nodes = (
"257 0 LINE",
"305 340 LINE",
"517 750 LINE",
"379 750 LINE",
"232 433 LINE",
"270 433 LINE",
"208 750 LINE",
"70 750 LINE",
"170 340 LINE",
"122 0 LINE"
);
}
);
width = 453;
},
{
anchors = (
{
name = bottom;
position = "{201, 0}";
},
{
name = top;
position = "{306, 750}";
}
);
hints = (
{
horizontal = 1;
origin = "{0, 9}";
target = up;
type = BottomGhost;
},
{
horizontal = 1;
origin = "{0, 7}";
target = down;
type = TopGhost;
}
);
layerId = "DDDB0B36-051A-43AE-9F30-611505482296";
paths = (
{
closed = 1;
nodes = (
"229 0 LINE",
"285 400 LINE",
"525 750 LINE",
"468 750 LINE",
"250 433 LINE",
"274 433 LINE",
"144 750 LINE",
"87 750 LINE",
"230 400 LINE",
"174 0 LINE"
);
}
);
width = 478;
}
);
leftKerningGroup = Y;
note = Y;
rightKerningGroup = Y;
unicode = 0059;
},
{
color = 8;
glyphname = Z;
lastChange = "2018-05-02 18:11:20 +0000";
layers = (
{
anchors = (
{
name = bottom;
position = "{181, 0}";
},
{
name = top;
position = "{286, 750}";
}
);
layerId = "60B18B06-8123-4D0C-85E3-2DE7B5C03586";
paths = (
{
closed = 1;
nodes = (
"368 0 LINE",
"387 135 LINE",
"96 135 LINE",
"124 79 LINE",
"459 652 LINE",
"473 750 LINE",
"98 750 LINE",
"79 615 LINE",
"370 615 LINE",
"342 671 LINE",
"7 98 LINE",
"-7 0 LINE"
);
}
);
width = 438;
},
{
anchors = (
{
name = bottom;
position = "{169, 0}";
},
{
name = top;
position = "{274, 750}";
}
);
hints = (
{
horizontal = 1;
origin = "{0, 11}";
target = "{0, 2}";
},
{
horizontal = 1;
origin = "{0, 6}";
target = "{0, 7}";
}
);
layerId = "DDDB0B36-051A-43AE-9F30-611505482296";
paths = (
{
closed = 1;
nodes = (
"339 0 LINE",
"347 55 LINE",
"42 55 LINE",
"53 32 LINE",
"438 705 LINE",
"444 750 LINE",
"105 750 LINE",
"97 695 LINE",
"401 695 LINE",
"389 718 LINE",
"5 45 LINE",
"0 0 LINE"
);
}
);
width = 414;
}
);
leftKerningGroup = Z;
note = Z;
rightKerningGroup = Z;
unicode = 005A;
},
{
color = 7;
glyphname = G.ss03;
lastChange = "2018-05-02 18:11:20 +0000";
layers = (
{
anchors = (
{
name = bottom;
position = "{208, 0}";
},
{
name = top;
position = "{313, 750}";
}
);
layerId = "60B18B06-8123-4D0C-85E3-2DE7B5C03586";
paths = (
{
closed = 1;
nodes = (
"319 -16 OFFCURVE",
"401 58 OFFCURVE",
"417 169 CURVE SMOOTH",
"460 475 LINE",
"262 475 LINE",
"243 340 LINE",
"306 340 LINE",
"282 169 LINE SMOOTH",
"278 139 OFFCURVE",
"256 119 OFFCURVE",
"225 119 CURVE SMOOTH",
"193 119 OFFCURVE",
"178 139 OFFCURVE",
"182 169 CURVE SMOOTH",
"240 581 LINE SMOOTH",
"244 611 OFFCURVE",
"265 631 OFFCURVE",
"297 631 CURVE SMOOTH",
"326 631 OFFCURVE",
"345 613 OFFCURVE",
"340 581 CURVE SMOOTH",
"334 541 LINE",
"469 541 LINE",
"475 581 LINE SMOOTH",
"492 692 OFFCURVE",
"427 766 OFFCURVE",
"315 766 CURVE SMOOTH",
"203 766 OFFCURVE",
"121 692 OFFCURVE",
"105 581 CURVE SMOOTH",
"47 169 LINE SMOOTH",
"31 58 OFFCURVE",
"94 -16 OFFCURVE",
"206 -16 CURVE SMOOTH"
);
}
);
width = 484;
},
{
anchors = (
{
name = bottom;
position = "{219, 0}";
},
{
name = top;
position = "{324, 750}";
}
);
hints = (
{
horizontal = 1;
origin = "{0, 33}";
target = "{0, 10}";
},
{
horizontal = 1;
origin = "{0, 5}";
target = "{0, 4}";
},
{
horizontal = 1;
origin = "{0, 26}";
target = "{0, 17}";
}
);
layerId = "DDDB0B36-051A-43AE-9F30-611505482296";
paths = (
{
closed = 1;
nodes = (
"319 -16 OFFCURVE",
"402 55 OFFCURVE",
"418 169 CURVE SMOOTH",
"458 455 LINE",
"290 455 LINE",
"282 400 LINE",
"395 400 LINE",
"363 169 LINE SMOOTH",
"352 91 OFFCURVE",
"297 39 OFFCURVE",
"225 39 CURVE SMOOTH",
"153 39 OFFCURVE",
"112 91 OFFCURVE",
"123 169 CURVE SMOOTH",
"181 581 LINE SMOOTH",
"192 659 OFFCURVE",
"247 711 OFFCURVE",
"319 711 CURVE SMOOTH",
"390 711 OFFCURVE",
"433 659 OFFCURVE",
"421 581 CURVE SMOOTH",
"418 561 LINE",
"473 561 LINE",
"476 581 LINE SMOOTH",
"493 692 OFFCURVE",
"430 766 OFFCURVE",
"326 766 CURVE SMOOTH",
"222 766 OFFCURVE",
"142 692 OFFCURVE",
"126 581 CURVE SMOOTH",
"68 169 LINE SMOOTH",
"52 58 OFFCURVE",
"113 -16 OFFCURVE",
"217 -16 CURVE SMOOTH"
);
}
);
width = 500;
}
);
leftKerningGroup = O;
note = G;
rightKerningGroup = G;
},
{
color = 4;
glyphname = J.ss04;
lastChange = "2018-05-02 18:11:20 +0000";
layers = (
{
anchors = (
{
name = bottom;
position = "{262, 0}";
},
{
name = top;
position = "{386, 750}";
}
);
layerId = "60B18B06-8123-4D0C-85E3-2DE7B5C03586";
paths = (
{
closed = 1;
nodes = (
"274 -7 OFFCURVE",
"359 64 OFFCURVE",
"375 178 CURVE SMOOTH",
"455 750 LINE",
"320 750 LINE",
"240 178 LINE SMOOTH",
"236 148 OFFCURVE",
"214 128 OFFCURVE",
"183 128 CURVE SMOOTH",
"151 128 OFFCURVE",
"137 148 OFFCURVE",
"140 178 CURVE SMOOTH",
"141 188 LINE",
"6 188 LINE",
"5 178 LINE SMOOTH",
"-6 64 OFFCURVE",
"53 -7 OFFCURVE",
"164 -7 CURVE SMOOTH"
);
}
);
width = 456;
},
{
anchors = (
{
name = bottom;
position = "{266, 0}";
},
{
name = top;
position = "{408, 750}";
}
);
hints = (
{
horizontal = 1;
origin = "{0, 17}";
target = "{0, 8}";
},
{
horizontal = 1;
origin = "{0, 4}";
target = down;
type = TopGhost;
}
);
layerId = "DDDB0B36-051A-43AE-9F30-611505482296";
paths = (
{
closed = 1;
nodes = (
"260 -6 OFFCURVE",
"340 68 OFFCURVE",
"356 179 CURVE SMOOTH",
"436 750 LINE",
"381 750 LINE",
"301 179 LINE SMOOTH",
"290 101 OFFCURVE",
"234 49 OFFCURVE",
"163 49 CURVE SMOOTH",
"91 49 OFFCURVE",
"53 101 OFFCURVE",
"61 179 CURVE SMOOTH",
"62 189 LINE",
"7 189 LINE",
"6 179 LINE SMOOTH",
"-5 69 OFFCURVE",
"49 -6 OFFCURVE",
"155 -6 CURVE SMOOTH"
);
}
);
width = 456;
}
);
leftKerningGroup = J.ss04;
note = J;
rightKerningGroup = J;
},
{
color = 6;
glyphname = a;
lastChange = "2018-05-04 06:37:11 +0000";
layers = (
{
anchors = (
{
name = bottom;
position = "{190, 0}";
},
{
name = top;
position = "{267, 550}";
}
);
layerId = "60B18B06-8123-4D0C-85E3-2DE7B5C03586";
paths = (
{
closed = 1;
nodes = (
"196 -13 OFFCURVE",
"238 12 OFFCURVE",
"265 55 CURVE",
"247 84 LINE",
"235 0 LINE",
"360 0 LINE",
"437 550 LINE",
"312 550 LINE",
"301 466 LINE",
"327 495 LINE",
"312 538 OFFCURVE",
"276 563 OFFCURVE",
"221 563 CURVE SMOOTH",
"157 563 OFFCURVE",
"85 529 OFFCURVE",
"65 388 CURVE SMOOTH",
"33 162 LINE SMOOTH",
"13 21 OFFCURVE",
"76 -13 OFFCURVE",
"141 -13 CURVE SMOOTH"
);
},
{
closed = 1;
nodes = (
"169 112 OFFCURVE",
"154 132 OFFCURVE",
"158 162 CURVE SMOOTH",
"190 388 LINE SMOOTH",
"194 418 OFFCURVE",
"216 438 OFFCURVE",
"247 438 CURVE SMOOTH",
"278 438 OFFCURVE",
"294 418 OFFCURVE",
"290 388 CURVE SMOOTH",
"258 162 LINE SMOOTH",
"254 132 OFFCURVE",
"232 112 OFFCURVE",
"201 112 CURVE SMOOTH"
);
}
);
width = 458;
},
{
anchors = (
{
name = bottom;
position = "{201, 0}";
},
{
name = top;
position = "{277, 540}";
}
);
hints = (
{
horizontal = 1;
origin = "{0, 19}";
target = "{1, 13}";
},
{
horizontal = 1;
origin = "{0, 7}";
target = "{1, 6}";
},
{
horizontal = 1;
origin = "{0, 12}";
target = "{1, 6}";
},
{
horizontal = 1;
origin = "{1, 13}";
target = "{0, 4}";
}
);
layerId = "DDDB0B36-051A-43AE-9F30-611505482296";
paths = (
{
closed = 1;
nodes = (
"245 -12 OFFCURVE",
"291 13 OFFCURVE",
"322 54 CURVE",
"315 66 LINE",
"305 0 LINE",
"360 0 LINE",
"436 540 LINE",
"381 540 LINE",
"372 474 LINE",
"382 486 LINE",
"363 527 OFFCURVE",
"323 552 OFFCURVE",
"269 552 CURVE SMOOTH",
"169 552 OFFCURVE",
"89 482 OFFCURVE",
"75 379 CURVE SMOOTH",
"45 162 LINE SMOOTH",
"31 58 OFFCURVE",
"90 -12 OFFCURVE",
"190 -12 CURVE SMOOTH"
);
},
{
closed = 1;
nodes = (
"128 43 OFFCURVE",
"90 91 OFFCURVE",
"100 162 CURVE SMOOTH",
"130 379 LINE SMOOTH",
"140 450 OFFCURVE",
"191 497 OFFCURVE",
"261 497 CURVE SMOOTH",
"333 497 OFFCURVE",
"368 450 OFFCURVE",
"358 379 CURVE SMOOTH",
"328 161 LINE SMOOTH",
"318 90 OFFCURVE",
"270 43 OFFCURVE",
"197 43 CURVE SMOOTH"
);
}
);
width = 473;
}
);
leftKerningGroup = o;
note = a;
rightKerningGroup = d;
unicode = 0061;
},
{
glyphname = ae;
lastChange = "2018-05-02 18:11:20 +0000";
layers = (
{
hints = (
{
horizontal = 1;
origin = "{0, 53}";
target = "{0, 15}";
},
{
horizontal = 1;
origin = "{0, 19}";
target = "{2, 8}";
},
{
horizontal = 1;
origin = "{0, 31}";
target = "{0, 40}";
}
);
layerId = "DDDB0B36-051A-43AE-9F30-611505482296";
paths = (
{
closed = 1;
nodes = (
"230 -12 OFFCURVE",
"300 21 OFFCURVE",
"341 88 CURVE",
"325 87 LINE",
"342 26 OFFCURVE",
"395 -12 OFFCURVE",
"468 -12 CURVE SMOOTH",
"566 -12 OFFCURVE",
"651 55 OFFCURVE",
"662 162 CURVE SMOOTH",
"663 172 LINE",
"608 172 LINE",
"607 162 LINE SMOOTH",
"600 91 OFFCURVE",
"546 43 OFFCURVE",
"476 43 CURVE SMOOTH",
"407 43 OFFCURVE",
"367 91 OFFCURVE",
"377 162 CURVE SMOOTH",
"391 266 LINE",
"676 266 LINE",
"692 379 LINE SMOOTH",
"707 482 OFFCURVE",
"646 552 OFFCURVE",
"547 552 CURVE SMOOTH",
"477 552 OFFCURVE",
"418 518 OFFCURVE",
"384 465 CURVE",
"400 465 LINE",
"379 520 OFFCURVE",
"328 552 OFFCURVE",
"260 552 CURVE SMOOTH",
"161 552 OFFCURVE",
"74 482 OFFCURVE",
"74 379 CURVE SMOOTH",
"74 369 LINE",
"126 369 LINE",
"126 379 LINE SMOOTH",
"126 450 OFFCURVE",
"183 497 OFFCURVE",
"252 497 CURVE SMOOTH",
"322 497 OFFCURVE",
"362 450 OFFCURVE",
"352 379 CURVE SMOOTH",
"350 365 LINE SMOOTH",
"339 291 OFFCURVE",
"241 300 OFFCURVE",
"147 268 CURVE SMOOTH",
"87 248 OFFCURVE",
"20 205 OFFCURVE",
"20 111 CURVE SMOOTH",
"20 38 OFFCURVE",
"72 -12 OFFCURVE",
"164 -12 CURVE SMOOTH"
);
},
{
closed = 1;
nodes = (
"112 42 OFFCURVE",
"76 74 OFFCURVE",
"76 122 CURVE SMOOTH",
"76 183 OFFCURVE",
"119 211 OFFCURVE",
"169 226 CURVE SMOOTH",
"221 242 OFFCURVE",
"285 244 OFFCURVE",
"337 273 CURVE",
"323 171 LINE SMOOTH",
"312 92 OFFCURVE",
"262 42 OFFCURVE",
"178 42 CURVE SMOOTH"
);
},
{
closed = 1;
nodes = (
"407 379 LINE SMOOTH",
"417 450 OFFCURVE",
"470 497 OFFCURVE",
"539 497 CURVE SMOOTH",
"609 497 OFFCURVE",
"647 450 OFFCURVE",
"637 379 CURVE SMOOTH",
"629 321 LINE",
"399 321 LINE"
);
}
);
width = 732;
},
{
layerId = "60B18B06-8123-4D0C-85E3-2DE7B5C03586";
paths = (
{
closed = 1;
nodes = (
"190 -13 OFFCURVE",
"261 19 OFFCURVE",
"289 103 CURVE",
"253 92 LINE",
"268 27 OFFCURVE",
"322 -13 OFFCURVE",
"399 -13 CURVE SMOOTH",
"503 -13 OFFCURVE",
"589 57 OFFCURVE",
"601 172 CURVE SMOOTH",
"602 182 LINE",
"477 182 LINE",
"474 162 LINE SMOOTH",
"469 130 OFFCURVE",
"447 112 OFFCURVE",
"417 112 CURVE SMOOTH",
"385 112 OFFCURVE",
"370 132 OFFCURVE",
"374 162 CURVE SMOOTH",
"385 243 LINE",
"610 243 LINE",
"629 378 LINE SMOOTH",
"645 489 OFFCURVE",
"586 563 OFFCURVE",
"480 563 CURVE SMOOTH",
"420 563 OFFCURVE",
"369 540 OFFCURVE",
"333 498 CURVE",
"386 498 LINE",
"360 540 OFFCURVE",
"314 563 OFFCURVE",
"255 563 CURVE SMOOTH",
"148 563 OFFCURVE",
"71 489 OFFCURVE",
"54 378 CURVE SMOOTH",
"51 358 LINE",
"176 358 LINE",
"180 388 LINE SMOOTH",
"184 418 OFFCURVE",
"206 438 OFFCURVE",
"237 438 CURVE SMOOTH",
"269 438 OFFCURVE",
"283 418 OFFCURVE",
"280 388 CURVE SMOOTH",
"279 378 LINE SMOOTH",
"273 318 OFFCURVE",
"180 310 OFFCURVE",
"110 274 CURVE SMOOTH",
"62 249 OFFCURVE",
"8 202 OFFCURVE",
"8 107 CURVE SMOOTH",
"8 36 OFFCURVE",
"48 -13 OFFCURVE",
"127 -13 CURVE SMOOTH"
);
},
{
closed = 1;
nodes = (
"152 102 OFFCURVE",
"137 122 OFFCURVE",
"137 144 CURVE SMOOTH",
"137 178 OFFCURVE",
"164 193 OFFCURVE",
"183 202 CURVE SMOOTH",
"210 214 OFFCURVE",
"239 220 OFFCURVE",
"259 236 CURVE",
"248 159 LINE SMOOTH",
"242 116 OFFCURVE",
"212 102 OFFCURVE",
"184 102 CURVE SMOOTH"
);
},
{
closed = 1;
nodes = (
"405 388 LINE SMOOTH",
"409 418 OFFCURVE",
"431 438 OFFCURVE",
"462 438 CURVE SMOOTH",
"494 438 OFFCURVE",
"509 418 OFFCURVE",
"505 388 CURVE SMOOTH",
"501 358 LINE",
"401 358 LINE"
);
}
);
width = 657;
}
);
leftKerningGroup = o;
rightKerningGroup = e;
unicode = 00E6;
},
{
color = 8;
glyphname = b;
lastChange = "2018-05-02 18:11:20 +0000";
layers = (
{
layerId = "60B18B06-8123-4D0C-85E3-2DE7B5C03586";
paths = (
{
closed = 1;
nodes = (
"301 -13 OFFCURVE",
"375 21 OFFCURVE",
"394 162 CURVE SMOOTH",
"425 388 LINE SMOOTH",
"444 529 OFFCURVE",
"383 563 OFFCURVE",
"318 563 CURVE SMOOTH",
"263 563 OFFCURVE",
"220 538 OFFCURVE",
"193 495 CURVE",
"211 466 LINE",
"251 750 LINE",
"126 750 LINE",
"21 0 LINE",
"146 0 LINE",
"158 84 LINE",
"132 55 LINE",
"147 12 OFFCURVE",
"181 -13 OFFCURVE",
"237 -13 CURVE SMOOTH"
);
},
{
closed = 1;
nodes = (
"180 112 OFFCURVE",
"165 132 OFFCURVE",
"169 162 CURVE SMOOTH",
"200 388 LINE SMOOTH",
"204 418 OFFCURVE",
"226 438 OFFCURVE",
"257 438 CURVE SMOOTH",
"289 438 OFFCURVE",
"304 418 OFFCURVE",
"300 388 CURVE SMOOTH",
"269 162 LINE SMOOTH",
"265 132 OFFCURVE",
"243 112 OFFCURVE",
"212 112 CURVE SMOOTH"
);
}
);
width = 459;
},
{
hints = (
{
horizontal = 1;
origin = "{0, 19}";
target = "{1, 13}";
},
{
horizontal = 1;
origin = "{0, 6}";
target = "{1, 6}";
},
{
horizontal = 1;
origin = "{0, 12}";
target = down;
type = TopGhost;
},
{
horizontal = 1;
origin = "{1, 13}";
target = "{0, 13}";
}
);
layerId = "DDDB0B36-051A-43AE-9F30-611505482296";
paths = (
{
closed = 1;
nodes = (
"303 -12 OFFCURVE",
"384 58 OFFCURVE",
"398 162 CURVE SMOOTH",
"428 379 LINE SMOOTH",
"442 482 OFFCURVE",
"383 552 OFFCURVE",
"283 552 CURVE SMOOTH",
"228 552 OFFCURVE",
"182 527 OFFCURVE",
"151 486 CURVE",
"158 474 LINE",
"197 750 LINE",
"142 750 LINE",
"37 0 LINE",
"92 0 LINE",
"101 66 LINE",
"91 54 LINE",
"110 13 OFFCURVE",
"150 -12 OFFCURVE",
"204 -12 CURVE SMOOTH"
);
},
{
closed = 1;
nodes = (
"140 43 OFFCURVE",
"105 90 OFFCURVE",
"115 161 CURVE SMOOTH",
"145 379 LINE SMOOTH",
"155 450 OFFCURVE",
"203 497 OFFCURVE",
"276 497 CURVE SMOOTH",
"345 497 OFFCURVE",
"383 450 OFFCURVE",
"373 379 CURVE SMOOTH",
"343 162 LINE SMOOTH",
"333 91 OFFCURVE",
"282 43 OFFCURVE",
"212 43 CURVE SMOOTH"
);
}
);
width = 473;
}
);
leftKerningGroup = h;
note = b;
rightKerningGroup = o;
unicode = 0062;
},
{
color = 8;
glyphname = c;
lastChange = "2018-05-02 18:11:20 +0000";
layers = (
{
anchors = (
{
name = bottom;
position = "{180, 0}";
},
{
name = top;
position = "{257, 550}";
}
);
layerId = "60B18B06-8123-4D0C-85E3-2DE7B5C03586";
paths = (
{
closed = 1;
nodes = (
"255 182 LINE",
"252 162 LINE SMOOTH",
"248 134 OFFCURVE",
"229 112 OFFCURVE",
"196 112 CURVE SMOOTH",
"164 112 OFFCURVE",
"149 132 OFFCURVE",
"153 162 CURVE SMOOTH",
"184 388 LINE SMOOTH",
"188 418 OFFCURVE",
"210 438 OFFCURVE",
"241 438 CURVE SMOOTH",
"276 438 OFFCURVE",
"288 415 OFFCURVE",
"284 388 CURVE SMOOTH",
"281 368 LINE",
"406 368 LINE",
"407 378 LINE SMOOTH",
"418 488 OFFCURVE",
"367 563 OFFCURVE",
"259 563 CURVE SMOOTH",
"152 563 OFFCURVE",
"74 489 OFFCURVE",
"58 378 CURVE SMOOTH",
"29 172 LINE SMOOTH",
"13 61 OFFCURVE",
"72 -13 OFFCURVE",
"178 -13 CURVE SMOOTH",
"282 -13 OFFCURVE",
"367 57 OFFCURVE",
"379 172 CURVE SMOOTH",
"380 182 LINE"
);
}
);
width = 421;
},
{
anchors = (
{
name = bottom;
position = "{192, 0}";
},
{
name = top;
position = "{268, 540}";
}
);
hints = (
{
horizontal = 1;
origin = "{0, 27}";
target = "{0, 4}";
},
{
horizontal = 1;
origin = "{0, 20}";
target = "{0, 11}";
}
);
layerId = "DDDB0B36-051A-43AE-9F30-611505482296";
paths = (
{
closed = 1;
nodes = (
"330 172 LINE",
"329 162 LINE SMOOTH",
"322 91 OFFCURVE",
"268 43 OFFCURVE",
"198 43 CURVE SMOOTH",
"128 43 OFFCURVE",
"89 91 OFFCURVE",
"99 162 CURVE SMOOTH",
"129 379 LINE SMOOTH",
"139 450 OFFCURVE",
"192 497 OFFCURVE",
"262 497 CURVE SMOOTH",
"332 497 OFFCURVE",
"366 450 OFFCURVE",
"359 379 CURVE SMOOTH",
"358 369 LINE",
"413 369 LINE",
"414 379 LINE SMOOTH",
"424 481 OFFCURVE",
"371 552 OFFCURVE",
"270 552 CURVE SMOOTH",
"170 552 OFFCURVE",
"88 482 OFFCURVE",
"74 379 CURVE SMOOTH",
"44 162 LINE SMOOTH",
"30 58 OFFCURVE",
"91 -12 OFFCURVE",
"191 -12 CURVE SMOOTH",
"294 -12 OFFCURVE",
"374 61 OFFCURVE",
"384 162 CURVE SMOOTH",
"385 172 LINE"
);
}
);
width = 440;
}
);
leftKerningGroup = o;
note = c;
rightKerningGroup = c;
unicode = 0063;
},
{
color = 8;
glyphname = d;
lastChange = "2018-05-02 18:11:20 +0000";
layers = (
{
anchors = (
{
name = bottom;
position = "{190, 0}";
},
{
name = center;
position = "{388, 646}";
},
{
name = top;
position = "{267, 550}";
}
);
layerId = "60B18B06-8123-4D0C-85E3-2DE7B5C03586";
paths = (
{
closed = 1;
nodes = (
"196 -13 OFFCURVE",
"238 12 OFFCURVE",
"265 55 CURVE",
"247 84 LINE",
"235 0 LINE",
"360 0 LINE",
"465 750 LINE",
"340 750 LINE",
"301 466 LINE",
"327 495 LINE",
"312 538 OFFCURVE",
"276 563 OFFCURVE",
"221 563 CURVE SMOOTH",
"157 563 OFFCURVE",
"85 529 OFFCURVE",
"65 388 CURVE SMOOTH",
"33 162 LINE SMOOTH",
"13 21 OFFCURVE",
"76 -13 OFFCURVE",
"141 -13 CURVE SMOOTH"
);
},
{
closed = 1;
nodes = (
"169 112 OFFCURVE",
"154 132 OFFCURVE",
"158 162 CURVE SMOOTH",
"190 388 LINE SMOOTH",
"194 418 OFFCURVE",
"216 438 OFFCURVE",
"247 438 CURVE SMOOTH",
"278 438 OFFCURVE",
"294 418 OFFCURVE",
"290 388 CURVE SMOOTH",
"258 162 LINE SMOOTH",
"254 132 OFFCURVE",
"232 112 OFFCURVE",
"201 112 CURVE SMOOTH"
);
}
);
width = 458;
},
{
anchors = (
{
name = bottom;
position = "{201, 0}";
},
{
name = center;
position = "{423, 642}";
},
{
name = top;
position = "{277, 540}";
}
);
hints = (
{
horizontal = 1;
origin = "{0, 19}";
target = "{1, 13}";
},
{
horizontal = 1;
origin = "{0, 12}";
target = "{1, 6}";
},
{
horizontal = 1;
origin = "{0, 7}";
target = down;
type = TopGhost;
},
{
horizontal = 1;
origin = "{1, 13}";
target = "{0, 4}";
}
);
layerId = "DDDB0B36-051A-43AE-9F30-611505482296";
paths = (
{
closed = 1;
nodes = (
"245 -12 OFFCURVE",
"291 13 OFFCURVE",
"322 54 CURVE",
"315 66 LINE",
"305 0 LINE",
"360 0 LINE",
"465 750 LINE",
"410 750 LINE",
"372 474 LINE",
"382 486 LINE",
"363 527 OFFCURVE",
"323 552 OFFCURVE",
"269 552 CURVE SMOOTH",
"169 552 OFFCURVE",
"89 482 OFFCURVE",
"75 379 CURVE SMOOTH",
"45 162 LINE SMOOTH",
"31 58 OFFCURVE",
"90 -12 OFFCURVE",
"190 -12 CURVE SMOOTH"
);
},
{
closed = 1;
nodes = (
"128 43 OFFCURVE",
"90 91 OFFCURVE",
"100 162 CURVE SMOOTH",
"130 379 LINE SMOOTH",
"140 450 OFFCURVE",
"191 497 OFFCURVE",
"261 497 CURVE SMOOTH",
"333 497 OFFCURVE",
"368 450 OFFCURVE",
"358 379 CURVE SMOOTH",
"328 161 LINE SMOOTH",
"318 90 OFFCURVE",
"270 43 OFFCURVE",
"197 43 CURVE SMOOTH"
);
}
);
width = 473;
}
);
leftKerningGroup = o;
note = d;
rightKerningGroup = d;
unicode = 0064;
},
{
glyphname = eth;
lastChange = "2018-05-02 18:11:20 +0000";
layers = (
{
hints = (
{
horizontal = 1;
origin = "{0, 17}";
target = "{1, 13}";
},
{
horizontal = 1;
origin = "{0, 10}";
target = "{1, 6}";
},
{
horizontal = 1;
origin = "{0, 0}";
target = "{0, 1}";
},
{
horizontal = 1;
origin = "{1, 13}";
target = "{0, 22}";
}
);
layerId = "DDDB0B36-051A-43AE-9F30-611505482296";
paths = (
{
closed = 1;
nodes = (
"276 750 LINE",
"269 695 LINE",
"289 695 LINE SMOOTH",
"358 695 OFFCURVE",
"396 647 OFFCURVE",
"386 576 CURVE SMOOTH",
"372 474 LINE",
"382 486 LINE",
"363 527 OFFCURVE",
"323 552 OFFCURVE",
"269 552 CURVE SMOOTH",
"169 552 OFFCURVE",
"89 482 OFFCURVE",
"75 379 CURVE SMOOTH",
"45 162 LINE SMOOTH",
"31 58 OFFCURVE",
"90 -12 OFFCURVE",
"190 -12 CURVE SMOOTH",
"245 -12 OFFCURVE",
"291 13 OFFCURVE",
"322 54 CURVE",
"315 66 LINE",
"305 0 LINE",
"360 0 LINE",
"441 576 LINE SMOOTH",
"456 680 OFFCURVE",
"395 750 OFFCURVE",
"296 750 CURVE SMOOTH"
);
},
{
closed = 1;
nodes = (
"128 43 OFFCURVE",
"90 91 OFFCURVE",
"100 162 CURVE SMOOTH",
"130 379 LINE SMOOTH",
"140 450 OFFCURVE",
"191 497 OFFCURVE",
"261 497 CURVE SMOOTH",
"333 497 OFFCURVE",
"368 450 OFFCURVE",
"358 379 CURVE SMOOTH",
"328 161 LINE SMOOTH",
"318 90 OFFCURVE",
"270 43 OFFCURVE",
"197 43 CURVE SMOOTH"
);
},
{
closed = 1;
nodes = (
"514 639 LINE",
"521 691 LINE",
"287 629 LINE",
"280 577 LINE"
);
}
);
width = 473;
},
{
layerId = "60B18B06-8123-4D0C-85E3-2DE7B5C03586";
paths = (
{
closed = 1;
nodes = (
"262 750 LINE",
"250 665 LINE",
"278 665 LINE SMOOTH",
"308 665 OFFCURVE",
"325 645 OFFCURVE",
"321 615 CURVE SMOOTH",
"301 466 LINE",
"327 495 LINE",
"312 538 OFFCURVE",
"276 563 OFFCURVE",
"221 563 CURVE SMOOTH",
"157 563 OFFCURVE",
"85 529 OFFCURVE",
"65 388 CURVE SMOOTH",
"33 162 LINE SMOOTH",
"13 21 OFFCURVE",
"76 -13 OFFCURVE",
"141 -13 CURVE SMOOTH",
"196 -13 OFFCURVE",
"238 12 OFFCURVE",
"265 55 CURVE",
"247 84 LINE",
"235 0 LINE",
"360 0 LINE",
"446 615 LINE SMOOTH",
"457 696 OFFCURVE",
"415 750 OFFCURVE",
"340 750 CURVE SMOOTH"
);
},
{
closed = 1;
nodes = (
"169 112 OFFCURVE",
"154 132 OFFCURVE",
"158 162 CURVE SMOOTH",
"190 388 LINE SMOOTH",
"194 418 OFFCURVE",
"216 438 OFFCURVE",
"247 438 CURVE SMOOTH",
"278 438 OFFCURVE",
"294 418 OFFCURVE",
"290 388 CURVE SMOOTH",
"258 162 LINE SMOOTH",
"254 132 OFFCURVE",
"232 112 OFFCURVE",
"201 112 CURVE SMOOTH"
);
},
{
closed = 1;
nodes = (
"485 617 LINE",
"494 687 LINE",
"276 632 LINE",
"266 562 LINE"
);
}
);
width = 458;
}
);
leftKerningGroup = o;
rightKerningGroup = o;
unicode = 00F0;
},
{
color = 8;
glyphname = e;
lastChange = "2018-05-02 18:11:20 +0000";
layers = (
{
anchors = (
{
name = bottom;
position = "{180, 0}";
},
{
name = ogonek;
position = "{207, 0}";
},
{
name = top;
position = "{257, 550}";
}
);
layerId = "60B18B06-8123-4D0C-85E3-2DE7B5C03586";
paths = (
{
closed = 1;
nodes = (
"282 -13 OFFCURVE",
"367 57 OFFCURVE",
"379 172 CURVE SMOOTH",
"380 182 LINE",
"255 182 LINE",
"252 162 LINE SMOOTH",
"248 134 OFFCURVE",
"229 112 OFFCURVE",
"196 112 CURVE SMOOTH",
"164 112 OFFCURVE",
"149 132 OFFCURVE",
"153 162 CURVE SMOOTH",
"184 388 LINE SMOOTH",
"188 418 OFFCURVE",
"210 438 OFFCURVE",
"241 438 CURVE SMOOTH",
"273 438 OFFCURVE",
"288 418 OFFCURVE",
"284 388 CURVE SMOOTH",
"280 358 LINE",
"164 358 LINE",
"148 243 LINE",
"389 243 LINE",
"408 378 LINE SMOOTH",
"424 489 OFFCURVE",
"365 563 OFFCURVE",
"259 563 CURVE SMOOTH",
"152 563 OFFCURVE",
"74 489 OFFCURVE",
"58 378 CURVE SMOOTH",
"29 172 LINE SMOOTH",
"13 61 OFFCURVE",
"72 -13 OFFCURVE",
"178 -13 CURVE SMOOTH"
);
}
);
width = 435;
},
{
anchors = (
{
name = bottom;
position = "{192, 0}";
},
{
name = ogonek;
position = "{217, 0}";
},
{
name = top;
position = "{268, 540}";
}
);
hints = (
{
horizontal = 1;
origin = "{0, 33}";
target = "{0, 8}";
},
{
horizontal = 1;
origin = "{0, 21}";
target = "{0, 20}";
},
{
horizontal = 1;
origin = "{0, 26}";
target = "{0, 15}";
}
);
layerId = "DDDB0B36-051A-43AE-9F30-611505482296";
paths = (
{
closed = 1;
nodes = (
"294 -12 OFFCURVE",
"374 61 OFFCURVE",
"384 162 CURVE SMOOTH",
"385 172 LINE",
"330 172 LINE",
"329 162 LINE SMOOTH",
"322 91 OFFCURVE",
"268 43 OFFCURVE",
"198 43 CURVE SMOOTH",
"128 43 OFFCURVE",
"89 91 OFFCURVE",
"99 162 CURVE SMOOTH",
"129 379 LINE SMOOTH",
"139 450 OFFCURVE",
"192 497 OFFCURVE",
"262 497 CURVE SMOOTH",
"331 497 OFFCURVE",
"369 450 OFFCURVE",
"359 379 CURVE SMOOTH",
"351 321 LINE",
"107 321 LINE",
"100 266 LINE",
"399 266 LINE",
"415 379 LINE SMOOTH",
"430 482 OFFCURVE",
"368 552 OFFCURVE",
"270 552 CURVE SMOOTH",
"170 552 OFFCURVE",
"88 482 OFFCURVE",
"74 379 CURVE SMOOTH",
"44 162 LINE SMOOTH",
"30 58 OFFCURVE",
"91 -12 OFFCURVE",
"191 -12 CURVE SMOOTH"
);
}
);
width = 455;
}
);
leftKerningGroup = o;
note = e;
rightKerningGroup = e;
unicode = 0065;
},
{
color = 8;
glyphname = f;
lastChange = "2018-05-02 18:11:20 +0000";
layers = (
{
layerId = "60B18B06-8123-4D0C-85E3-2DE7B5C03586";
paths = (
{
closed = 1;
nodes = (
"187 0 LINE",
"248 435 LINE",
"353 435 LINE",
"369 550 LINE",
"264 550 LINE",
"269 585 LINE SMOOTH",
"273 615 OFFCURVE",
"295 635 OFFCURVE",
"326 635 CURVE SMOOTH",
"381 635 LINE",
"398 760 LINE",
"343 760 LINE SMOOTH",
"238 760 OFFCURVE",
"158 686 OFFCURVE",
"144 585 CURVE SMOOTH",
"139 550 LINE",
"39 550 LINE",
"23 435 LINE",
"123 435 LINE",
"62 0 LINE"
);
}
);
width = 331;
},
{
hints = (
{
horizontal = 1;
origin = "{0, 19}";
target = up;
type = BottomGhost;
},
{
horizontal = 1;
origin = "{0, 16}";
target = "{0, 17}";
},
{
horizontal = 1;
origin = "{0, 11}";
target = "{0, 8}";
}
);
layerId = "DDDB0B36-051A-43AE-9F30-611505482296";
paths = (
{
closed = 1;
nodes = (
"126 0 LINE",
"194 487 LINE",
"342 487 LINE",
"349 540 LINE",
"201 540 LINE",
"206 576 LINE SMOOTH",
"217 653 OFFCURVE",
"270 705 OFFCURVE",
"340 705 CURVE SMOOTH",
"372 705 LINE",
"380 760 LINE",
"348 760 LINE SMOOTH",
"246 760 OFFCURVE",
"166 685 OFFCURVE",
"151 576 CURVE SMOOTH",
"146 540 LINE",
"45 540 LINE",
"38 487 LINE",
"139 487 LINE",
"71 0 LINE"
);
}
);
width = 319;
}
);
leftKerningGroup = f;
note = f;
rightKerningGroup = f;
unicode = 0066;
},
{
color = 8;
glyphname = g;
lastChange = "2018-05-02 18:11:20 +0000";
layers = (
{
anchors = (
{
name = bottom;
position = "{154, -183}";
},
{
name = top;
position = "{257, 550}";
}
);
layerId = "60B18B06-8123-4D0C-85E3-2DE7B5C03586";
paths = (
{
closed = 1;
nodes = (
"259 -183 OFFCURVE",
"340 -110 OFFCURVE",
"355 0 CURVE SMOOTH",
"432 550 LINE",
"307 550 LINE",
"295 466 LINE",
"321 495 LINE",
"306 538 OFFCURVE",
"271 563 OFFCURVE",
"215 563 CURVE SMOOTH",
"151 563 OFFCURVE",
"79 529 OFFCURVE",
"59 388 CURVE SMOOTH",
"37 232 LINE SMOOTH",
"17 91 OFFCURVE",
"80 57 OFFCURVE",
"145 57 CURVE SMOOTH",
"201 57 OFFCURVE",
"242 82 OFFCURVE",
"269 125 CURVE",
"251 154 LINE",
"229 -8 LINE SMOOTH",
"225 -38 OFFCURVE",
"203 -58 OFFCURVE",
"172 -58 CURVE SMOOTH",
"140 -58 OFFCURVE",
"125 -38 OFFCURVE",
"129 -8 CURVE SMOOTH",
"133 24 LINE",
"8 24 LINE",
"5 2 LINE SMOOTH",
"-10 -109 OFFCURVE",
"46 -183 OFFCURVE",
"154 -183 CURVE SMOOTH"
);
},
{
closed = 1;
nodes = (
"173 182 OFFCURVE",
"158 202 OFFCURVE",
"162 232 CURVE SMOOTH",
"184 388 LINE SMOOTH",
"188 418 OFFCURVE",
"210 438 OFFCURVE",
"241 438 CURVE SMOOTH",
"273 438 OFFCURVE",
"288 418 OFFCURVE",
"284 388 CURVE SMOOTH",
"262 232 LINE SMOOTH",
"258 202 OFFCURVE",
"236 182 OFFCURVE",
"205 182 CURVE SMOOTH"
);
}
);
width = 453;
},
{
anchors = (
{
name = bottom;
position = "{153, -183}";
},
{
name = top;
position = "{256, 540}";
}
);
hints = (
{
horizontal = 1;
origin = "{0, 33}";
target = "{0, 24}";
},
{
horizontal = 1;
origin = "{0, 16}";
target = "{1, 13}";
},
{
horizontal = 1;
origin = "{0, 4}";
target = "{1, 6}";
},
{
horizontal = 1;
origin = "{0, 9}";
target = "{1, 6}";
}
);
layerId = "DDDB0B36-051A-43AE-9F30-611505482296";
paths = (
{
closed = 1;
nodes = (
"253 -183 OFFCURVE",
"333 -113 OFFCURVE",
"348 -9 CURVE SMOOTH",
"425 540 LINE",
"370 540 LINE",
"361 474 LINE",
"371 486 LINE",
"352 527 OFFCURVE",
"312 552 OFFCURVE",
"257 552 CURVE SMOOTH",
"158 552 OFFCURVE",
"78 482 OFFCURVE",
"64 379 CURVE SMOOTH",
"44 232 LINE SMOOTH",
"30 128 OFFCURVE",
"89 58 OFFCURVE",
"188 58 CURVE SMOOTH",
"243 58 OFFCURVE",
"290 83 OFFCURVE",
"321 124 CURVE",
"313 136 LINE",
"293 -9 LINE SMOOTH",
"283 -80 OFFCURVE",
"230 -128 OFFCURVE",
"160 -128 CURVE SMOOTH",
"90 -128 OFFCURVE",
"56 -80 OFFCURVE",
"63 -9 CURVE SMOOTH",
"64 1 LINE",
"9 1 LINE",
"8 -9 LINE SMOOTH",
"-2 -112 OFFCURVE",
"51 -183 OFFCURVE",
"153 -183 CURVE SMOOTH"
);
},
{
closed = 1;
nodes = (
"127 113 OFFCURVE",
"89 161 OFFCURVE",
"99 232 CURVE SMOOTH",
"119 379 LINE SMOOTH",
"129 450 OFFCURVE",
"180 497 OFFCURVE",
"250 497 CURVE SMOOTH",
"322 497 OFFCURVE",
"357 450 OFFCURVE",
"347 379 CURVE SMOOTH",
"327 231 LINE SMOOTH",
"317 160 OFFCURVE",
"269 113 OFFCURVE",
"196 113 CURVE SMOOTH"
);
}
);
width = 462;
}
);
leftKerningGroup = o;
note = g;
rightKerningGroup = g;
rightMetricsKey = "=|n";
unicode = 0067;
},
{
color = 8;
glyphname = h;
lastChange = "2018-05-02 18:11:20 +0000";
layers = (
{
anchors = (
{
name = bottom;
position = "{194, 0}";
},
{
name = center;
position = "{173, 653}";
},
{
name = top;
position = "{187, 750}";
}
);
layerId = "60B18B06-8123-4D0C-85E3-2DE7B5C03586";
paths = (
{
closed = 1;
nodes = (
"146 0 LINE",
"200 388 LINE SMOOTH",
"204 418 OFFCURVE",
"226 438 OFFCURVE",
"257 438 CURVE SMOOTH",
"289 438 OFFCURVE",
"304 418 OFFCURVE",
"300 388 CURVE SMOOTH",
"246 0 LINE",
"371 0 LINE",
"429 418 LINE SMOOTH",
"444 529 OFFCURVE",
"383 563 OFFCURVE",
"318 563 CURVE SMOOTH",
"263 563 OFFCURVE",
"220 538 OFFCURVE",
"193 495 CURVE",
"211 466 LINE",
"251 750 LINE",
"126 750 LINE",
"21 0 LINE"
);
}
);
width = 465;
},
{
anchors = (
{
name = bottom;
position = "{200, 0}";
},
{
name = center;
position = "{155, 652}";
},
{
name = top;
position = "{169, 750}";
}
);
hints = (
{
horizontal = 1;
origin = "{0, 20}";
target = up;
type = BottomGhost;
},
{
horizontal = 1;
origin = "{0, 4}";
target = "{0, 13}";
},
{
horizontal = 1;
origin = "{0, 19}";
target = down;
type = TopGhost;
}
);
layerId = "DDDB0B36-051A-43AE-9F30-611505482296";
paths = (
{
closed = 1;
nodes = (
"92 0 LINE",
"145 380 LINE SMOOTH",
"155 451 OFFCURVE",
"206 498 OFFCURVE",
"273 498 CURVE SMOOTH",
"337 498 OFFCURVE",
"375 451 OFFCURVE",
"365 380 CURVE SMOOTH",
"312 0 LINE",
"367 0 LINE",
"420 380 LINE SMOOTH",
"434 481 OFFCURVE",
"384 553 OFFCURVE",
"286 553 CURVE SMOOTH",
"230 553 OFFCURVE",
"183 528 OFFCURVE",
"151 484 CURVE",
"158 473 LINE",
"197 750 LINE",
"142 750 LINE",
"37 0 LINE"
);
}
);
width = 473;
}
);
leftKerningGroup = h;
note = h;
rightKerningGroup = n;
unicode = 0068;
},
{
color = 8;
glyphname = i;
lastChange = "2018-05-02 18:11:20 +0000";
layers = (
{
layerId = "60B18B06-8123-4D0C-85E3-2DE7B5C03586";
paths = (
{
closed = 1;
nodes = (
"146 0 LINE",
"223 550 LINE",
"98 550 LINE",
"21 0 LINE"
);
},
{
closed = 1;
nodes = (
"229 590 LINE",
"247 720 LINE",
"122 720 LINE",
"104 590 LINE"
);
}
);
width = 244;
},
{
hints = (
{
horizontal = 1;
origin = "{0, 3}";
target = up;
type = BottomGhost;
},
{
horizontal = 1;
origin = "{0, 2}";
target = down;
type = TopGhost;
},
{
horizontal = 1;
origin = "{1, 3}";
target = "{1, 2}";
}
);
layerId = "DDDB0B36-051A-43AE-9F30-611505482296";
paths = (
{
closed = 1;
nodes = (
"92 0 LINE",
"168 540 LINE",
"113 540 LINE",
"37 0 LINE"
);
},
{
closed = 1;
nodes = (
"177 607 LINE",
"193 720 LINE",
"138 720 LINE",
"122 607 LINE"
);
}
);
width = 205;
}
);
leftKerningGroup = i;
note = i;
rightKerningGroup = i;
unicode = 0069;
},
{
glyphname = idotless;
lastChange = "2018-05-02 18:11:20 +0000";
layers = (
{
anchors = (
{
name = bottom;
position = "{65, 0}";
},
{
name = ogonek;
position = "{46, 0}";
},
{
name = top;
position = "{141, 540}";
}
);
hints = (
{
horizontal = 1;
origin = "{0, 3}";
target = up;
type = BottomGhost;
},
{
horizontal = 1;
origin = "{0, 2}";
target = down;
type = TopGhost;
}
);
layerId = "DDDB0B36-051A-43AE-9F30-611505482296";
paths = (
{
closed = 1;
nodes = (
"92 0 LINE",
"168 540 LINE",
"113 540 LINE",
"37 0 LINE"
);
}
);
width = 205;
},
{
anchors = (
{
name = bottom;
position = "{84, 0}";
},
{
name = ogonek;
position = "{64, 0}";
},
{
name = top;
position = "{161, 550}";
}
);
layerId = "60B18B06-8123-4D0C-85E3-2DE7B5C03586";
paths = (
{
closed = 1;
nodes = (
"146 0 LINE",
"223 550 LINE",
"98 550 LINE",
"21 0 LINE"
);
}
);
width = 244;
}
);
leftKerningGroup = i;
rightKerningGroup = i;
unicode = 0131;
},
{
color = 8;
glyphname = j;
lastChange = "2018-05-02 18:11:20 +0000";
layers = (
{
layerId = "60B18B06-8123-4D0C-85E3-2DE7B5C03586";
paths = (
{
closed = 1;
nodes = (
"-55 -183 LINE SMOOTH",
"52 -183 OFFCURVE",
"130 -109 OFFCURVE",
"146 2 CURVE SMOOTH",
"223 550 LINE",
"98 550 LINE",
"19 -8 LINE SMOOTH",
"15 -38 OFFCURVE",
"-6 -58 OFFCURVE",
"-38 -58 CURVE SMOOTH",
"-73 -58 LINE",
"-90 -183 LINE"
);
},
{
closed = 1;
nodes = (
"228 590 LINE",
"246 720 LINE",
"121 720 LINE",
"103 590 LINE"
);
}
);
width = 243;
},
{
hints = (
{
horizontal = 1;
origin = "{0, 11}";
target = "{0, 10}";
},
{
horizontal = 1;
origin = "{0, 5}";
target = down;
type = TopGhost;
},
{
horizontal = 1;
origin = "{1, 3}";
target = "{1, 2}";
}
);
layerId = "DDDB0B36-051A-43AE-9F30-611505482296";
paths = (
{
closed = 1;
nodes = (
"-104 -183 LINE SMOOTH",
"-5 -183 OFFCURVE",
"76 -112 OFFCURVE",
"92 2 CURVE SMOOTH",
"167 540 LINE",
"112 540 LINE",
"37 1 LINE SMOOTH",
"26 -76 OFFCURVE",
"-27 -128 OFFCURVE",
"-96 -128 CURVE SMOOTH",
"-126 -128 LINE",
"-134 -183 LINE"
);
},
{
closed = 1;
nodes = (
"176 607 LINE",
"192 720 LINE",
"137 720 LINE",
"121 607 LINE"
);
}
);
width = 205;
}
);
leftKerningGroup = j;
note = j;
rightKerningGroup = j;
unicode = 006A;
},
{
glyphname = jdotless;
lastChange = "2018-05-02 18:11:20 +0000";
layers = (
{
anchors = (
{
name = bottom;
position = "{65, 0}";
},
{
name = top;
position = "{140, 540}";
}
);
hints = (
{
horizontal = 1;
origin = "{0, 11}";
target = "{0, 10}";
},
{
horizontal = 1;
origin = "{0, 5}";
target = down;
type = TopGhost;
}
);
layerId = "DDDB0B36-051A-43AE-9F30-611505482296";
paths = (
{
closed = 1;
nodes = (
"-104 -183 LINE SMOOTH",
"-5 -183 OFFCURVE",
"76 -112 OFFCURVE",
"92 2 CURVE SMOOTH",
"167 540 LINE",
"112 540 LINE",
"37 1 LINE SMOOTH",
"26 -76 OFFCURVE",
"-27 -128 OFFCURVE",
"-96 -128 CURVE SMOOTH",
"-126 -128 LINE",
"-134 -183 LINE"
);
}
);
width = 205;
},
{
anchors = (
{
name = bottom;
position = "{84, 0}";
},
{
name = top;
position = "{161, 550}";
}
);
layerId = "60B18B06-8123-4D0C-85E3-2DE7B5C03586";
paths = (
{
closed = 1;
nodes = (
"-55 -183 LINE SMOOTH",
"52 -183 OFFCURVE",
"130 -109 OFFCURVE",
"146 2 CURVE SMOOTH",
"223 550 LINE",
"98 550 LINE",
"19 -8 LINE SMOOTH",
"15 -38 OFFCURVE",
"-6 -58 OFFCURVE",
"-38 -58 CURVE SMOOTH",
"-73 -58 LINE",
"-90 -183 LINE"
);
}
);
width = 243;
}
);
leftKerningGroup = j;
leftMetricsKey = j;
rightKerningGroup = j;
rightMetricsKey = j;
unicode = 0237;
},
{
color = 8;
glyphname = k;
lastChange = "2018-05-02 18:11:20 +0000";
layers = (
{
anchors = (
{
name = bottom;
position = "{180, 0}";
},
{
name = top;
position = "{257, 550}";
}
);
layerId = "60B18B06-8123-4D0C-85E3-2DE7B5C03586";
paths = (
{
closed = 1;
nodes = (
"412 0 LINE",
"318 384 LINE",
"460 550 LINE",
"330 550 LINE",
"191 389 LINE",
"166 208 LINE",
"220 270 LINE",
"282 0 LINE"
);
},
{
closed = 1;
nodes = (
"146 0 LINE",
"251 750 LINE",
"126 750 LINE",
"21 0 LINE"
);
}
);
width = 447;
},
{
anchors = (
{
name = bottom;
position = "{165, 0}";
},
{
name = top;
position = "{241, 540}";
}
);
hints = (
{
horizontal = 1;
origin = "{1, 3}";
target = up;
type = BottomGhost;
},
{
horizontal = 1;
origin = "{0, 3}";
target = down;
type = TopGhost;
},
{
horizontal = 1;
origin = "{1, 2}";
target = down;
type = TopGhost;
}
);
layerId = "DDDB0B36-051A-43AE-9F30-611505482296";
paths = (
{
closed = 1;
nodes = (
"375 0 LINE",
"233 343 LINE",
"419 541 LINE",
"359 541 LINE",
"124 300 LINE",
"112 213 LINE",
"191 298 LINE",
"315 0 LINE"
);
},
{
closed = 1;
nodes = (
"92 0 LINE",
"197 750 LINE",
"142 750 LINE",
"37 0 LINE"
);
}
);
width = 420;
}
);
leftKerningGroup = h;
note = k;
rightKerningGroup = k;
unicode = 006B;
},
{
glyphname = kgreenlandic;
lastChange = "2018-05-02 18:11:20 +0000";
layers = (
{
hints = (
{
horizontal = 1;
origin = "{1, 3}";
target = up;
type = BottomGhost;
},
{
horizontal = 1;
origin = "{0, 3}";
target = down;
type = TopGhost;
},
{
horizontal = 1;
origin = "{1, 2}";
target = down;
type = TopGhost;
}
);
layerId = "DDDB0B36-051A-43AE-9F30-611505482296";
paths = (
{
closed = 1;
nodes = (
"375 0 LINE",
"194 313 LINE",
"419 541 LINE",
"359 541 LINE",
"135 317 LINE",
"315 0 LINE"
);
},
{
closed = 1;
nodes = (
"92 0 LINE",
"168 540 LINE",
"113 540 LINE",
"37 0 LINE"
);
}
);
width = 418;
},
{
layerId = "60B18B06-8123-4D0C-85E3-2DE7B5C03586";
paths = (
{
closed = 1;
nodes = (
"412 0 LINE",
"318 384 LINE",
"460 550 LINE",
"330 550 LINE",
"191 389 LINE",
"282 0 LINE"
);
},
{
closed = 1;
nodes = (
"146 0 LINE",
"223 550 LINE",
"98 550 LINE",
"21 0 LINE"
);
}
);
width = 447;
}
);
leftKerningGroup = n;
rightKerningGroup = k;
unicode = 0138;
},
{
color = 8;
glyphname = l;
lastChange = "2018-05-02 18:11:20 +0000";
layers = (
{
anchors = (
{
name = bottom;
position = "{84, 0}";
},
{
name = center;
position = "{137, 376}";
},
{
name = top;
position = "{189, 750}";
}
);
layerId = "60B18B06-8123-4D0C-85E3-2DE7B5C03586";
paths = (
{
closed = 1;
nodes = (
"146 0 LINE",
"251 750 LINE",
"126 750 LINE",
"21 0 LINE"
);
}
);
width = 244;
},
{
anchors = (
{
name = bottom;
position = "{65, 0}";
},
{
name = center;
position = "{117, 375}";
},
{
name = top;
position = "{170, 750}";
}
);
hints = (
{
horizontal = 1;
origin = "{0, 3}";
target = up;
type = BottomGhost;
},
{
horizontal = 1;
origin = "{0, 2}";
target = down;
type = TopGhost;
}
);
layerId = "DDDB0B36-051A-43AE-9F30-611505482296";
paths = (
{
closed = 1;
nodes = (
"92 0 LINE",
"197 750 LINE",
"142 750 LINE",
"37 0 LINE"
);
}
);
width = 205;
}
);
leftKerningGroup = l;
note = l;
rightKerningGroup = l;
unicode = 006C;
},
{
color = 8;
glyphname = m;
lastChange = "2018-05-02 18:11:20 +0000";
layers = (
{
layerId = "60B18B06-8123-4D0C-85E3-2DE7B5C03586";
paths = (
{
closed = 1;
nodes = (
"146 0 LINE",
"200 388 LINE SMOOTH",
"204 418 OFFCURVE",
"226 438 OFFCURVE",
"257 438 CURVE SMOOTH",
"289 438 OFFCURVE",
"304 418 OFFCURVE",
"300 388 CURVE SMOOTH",
"246 0 LINE",
"371 0 LINE",
"425 388 LINE SMOOTH",
"429 418 OFFCURVE",
"451 438 OFFCURVE",
"482 438 CURVE SMOOTH",
"514 438 OFFCURVE",
"529 418 OFFCURVE",
"525 388 CURVE SMOOTH",
"471 0 LINE",
"596 0 LINE",
"654 418 LINE SMOOTH",
"669 529 OFFCURVE",
"608 563 OFFCURVE",
"543 563 CURVE SMOOTH",
"474 563 OFFCURVE",
"429 526 OFFCURVE",
"402 464 CURVE",
"434 456 LINE",
"430 536 OFFCURVE",
"374 563 OFFCURVE",
"318 563 CURVE SMOOTH",
"263 563 OFFCURVE",
"220 538 OFFCURVE",
"193 495 CURVE",
"211 466 LINE",
"223 550 LINE",
"98 550 LINE",
"21 0 LINE"
);
}
);
width = 690;
},
{
hints = (
{
horizontal = 1;
origin = "{0, 36}";
target = up;
type = BottomGhost;
},
{
horizontal = 1;
origin = "{0, 29}";
target = "{0, 4}";
},
{
horizontal = 1;
origin = "{0, 35}";
target = "{0, 4}";
}
);
layerId = "DDDB0B36-051A-43AE-9F30-611505482296";
paths = (
{
closed = 1;
nodes = (
"92 0 LINE",
"145 379 LINE SMOOTH",
"155 450 OFFCURVE",
"206 497 OFFCURVE",
"273 497 CURVE SMOOTH",
"337 497 OFFCURVE",
"375 450 OFFCURVE",
"365 379 CURVE SMOOTH",
"312 0 LINE",
"367 0 LINE",
"420 379 LINE SMOOTH",
"430 450 OFFCURVE",
"481 497 OFFCURVE",
"548 497 CURVE SMOOTH",
"612 497 OFFCURVE",
"650 450 OFFCURVE",
"640 379 CURVE SMOOTH",
"587 0 LINE",
"642 0 LINE",
"695 379 LINE SMOOTH",
"710 485 OFFCURVE",
"654 552 OFFCURVE",
"561 552 CURVE SMOOTH",
"492 552 OFFCURVE",
"436 513 OFFCURVE",
"406 451 CURVE",
"418 451 LINE",
"405 514 OFFCURVE",
"357 552 OFFCURVE",
"286 552 CURVE SMOOTH",
"230 552 OFFCURVE",
"183 527 OFFCURVE",
"151 483 CURVE",
"158 472 LINE",
"168 540 LINE",
"113 540 LINE",
"37 0 LINE"
);
}
);
width = 748;
}
);
leftKerningGroup = n;
note = m;
rightKerningGroup = n;
unicode = 006D;
},
{
color = 8;
glyphname = n;
lastChange = "2018-05-02 18:11:20 +0000";
layers = (
{
anchors = (
{
name = bottom;
position = "{196, 0}";
},
{
name = top;
position = "{273, 550}";
}
);
layerId = "60B18B06-8123-4D0C-85E3-2DE7B5C03586";
paths = (
{
closed = 1;
nodes = (
"146 0 LINE",
"200 388 LINE SMOOTH",
"204 418 OFFCURVE",
"226 438 OFFCURVE",
"257 438 CURVE SMOOTH",
"289 438 OFFCURVE",
"304 418 OFFCURVE",
"300 388 CURVE SMOOTH",
"246 0 LINE",
"371 0 LINE",
"425 388 LINE SMOOTH",
"440 498 OFFCURVE",
"401 563 OFFCURVE",
"318 563 CURVE SMOOTH",
"266 563 OFFCURVE",
"220 538 OFFCURVE",
"191 488 CURVE",
"211 463 LINE",
"223 550 LINE",
"98 550 LINE",
"21 0 LINE"
);
}
);
width = 463;
},
{
anchors = (
{
name = bottom;
position = "{202, 0}";
},
{
name = top;
position = "{278, 540}";
}
);
hints = (
{
horizontal = 1;
origin = "{0, 20}";
target = up;
type = BottomGhost;
},
{
horizontal = 1;
origin = "{0, 13}";
target = "{0, 4}";
},
{
horizontal = 1;
origin = "{0, 19}";
target = "{0, 4}";
}
);
layerId = "DDDB0B36-051A-43AE-9F30-611505482296";
paths = (
{
closed = 1;
nodes = (
"92 0 LINE",
"145 379 LINE SMOOTH",
"155 450 OFFCURVE",
"206 497 OFFCURVE",
"273 497 CURVE SMOOTH",
"337 497 OFFCURVE",
"375 450 OFFCURVE",
"365 379 CURVE SMOOTH",
"312 0 LINE",
"367 0 LINE",
"420 379 LINE SMOOTH",
"435 485 OFFCURVE",
"379 552 OFFCURVE",
"286 552 CURVE SMOOTH",
"230 552 OFFCURVE",
"183 527 OFFCURVE",
"151 483 CURVE",
"158 472 LINE",
"168 540 LINE",
"113 540 LINE",
"37 0 LINE"
);
}
);
width = 473;
}
);
leftKerningGroup = n;
note = n;
rightKerningGroup = n;
unicode = 006E;
},
{
color = 8;
glyphname = o;
lastChange = "2018-05-02 18:11:20 +0000";
layers = (
{
anchors = (
{
name = bottom;
position = "{180, 0}";
},
{
name = center;
position = "{218, 275}";
},
{
name = ogonek;
position = "{212, 0}";
},
{
name = top;
position = "{257, 550}";
}
);
layerId = "60B18B06-8123-4D0C-85E3-2DE7B5C03586";
paths = (
{
closed = 1;
nodes = (
"285 -13 OFFCURVE",
"363 61 OFFCURVE",
"379 172 CURVE SMOOTH",
"408 378 LINE SMOOTH",
"424 489 OFFCURVE",
"365 563 OFFCURVE",
"259 563 CURVE SMOOTH",
"152 563 OFFCURVE",
"74 489 OFFCURVE",
"58 378 CURVE SMOOTH",
"29 172 LINE SMOOTH",
"13 61 OFFCURVE",
"72 -13 OFFCURVE",
"178 -13 CURVE SMOOTH"
);
},
{
closed = 1;
nodes = (
"164 112 OFFCURVE",
"149 132 OFFCURVE",
"153 162 CURVE SMOOTH",
"184 388 LINE SMOOTH",
"188 418 OFFCURVE",
"210 438 OFFCURVE",
"241 438 CURVE SMOOTH",
"273 438 OFFCURVE",
"288 418 OFFCURVE",
"284 388 CURVE SMOOTH",
"253 162 LINE SMOOTH",
"249 132 OFFCURVE",
"227 112 OFFCURVE",
"196 112 CURVE SMOOTH"
);
}
);
width = 437;
},
{
anchors = (
{
name = bottom;
position = "{192, 0}";
},
{
name = center;
position = "{230, 270}";
},
{
name = ogonek;
position = "{230, 0}";
},
{
name = top;
position = "{268, 540}";
}
);
hints = (
{
horizontal = 1;
origin = "{0, 13}";
target = "{1, 13}";
},
{
horizontal = 1;
origin = "{0, 6}";
target = "{1, 6}";
}
);
layerId = "DDDB0B36-051A-43AE-9F30-611505482296";
paths = (
{
closed = 1;
nodes = (
"290 -12 OFFCURVE",
"370 58 OFFCURVE",
"384 162 CURVE SMOOTH",
"414 379 LINE SMOOTH",
"428 482 OFFCURVE",
"369 552 OFFCURVE",
"270 552 CURVE SMOOTH",
"170 552 OFFCURVE",
"88 482 OFFCURVE",
"74 379 CURVE SMOOTH",
"44 162 LINE SMOOTH",
"30 58 OFFCURVE",
"91 -12 OFFCURVE",
"191 -12 CURVE SMOOTH"
);
},
{
closed = 1;
nodes = (
"128 43 OFFCURVE",
"89 91 OFFCURVE",
"99 162 CURVE SMOOTH",
"129 379 LINE SMOOTH",
"139 450 OFFCURVE",
"192 497 OFFCURVE",
"262 497 CURVE SMOOTH",
"331 497 OFFCURVE",
"369 450 OFFCURVE",
"359 379 CURVE SMOOTH",
"329 162 LINE SMOOTH",
"319 91 OFFCURVE",
"268 43 OFFCURVE",
"198 43 CURVE SMOOTH"
);
}
);
width = 459;
}
);
leftKerningGroup = o;
note = o;
rightKerningGroup = o;
unicode = 006F;
},
{
glyphname = oe;
lastChange = "2018-05-02 18:11:20 +0000";
layers = (
{
hints = (
{
horizontal = 1;
origin = "{0, 38}";
target = "{1, 13}";
},
{
horizontal = 1;
origin = "{0, 19}";
target = "{2, 8}";
},
{
horizontal = 1;
origin = "{0, 31}";
target = "{1, 6}";
}
);
layerId = "DDDB0B36-051A-43AE-9F30-611505482296";
paths = (
{
closed = 1;
nodes = (
"259 -12 OFFCURVE",
"318 21 OFFCURVE",
"353 75 CURVE",
"337 75 LINE",
"356 21 OFFCURVE",
"409 -12 OFFCURVE",
"476 -12 CURVE SMOOTH",
"579 -12 OFFCURVE",
"659 61 OFFCURVE",
"669 162 CURVE SMOOTH",
"670 172 LINE",
"615 172 LINE",
"614 162 LINE SMOOTH",
"607 91 OFFCURVE",
"553 43 OFFCURVE",
"483 43 CURVE SMOOTH",
"414 43 OFFCURVE",
"374 91 OFFCURVE",
"384 162 CURVE SMOOTH",
"399 266 LINE",
"684 266 LINE",
"700 379 LINE SMOOTH",
"715 482 OFFCURVE",
"653 552 OFFCURVE",
"555 552 CURVE SMOOTH",
"487 552 OFFCURVE",
"426 519 OFFCURVE",
"391 465 CURVE",
"407 465 LINE",
"388 519 OFFCURVE",
"337 552 OFFCURVE",
"270 552 CURVE SMOOTH",
"170 552 OFFCURVE",
"88 482 OFFCURVE",
"74 379 CURVE SMOOTH",
"44 162 LINE SMOOTH",
"30 58 OFFCURVE",
"91 -12 OFFCURVE",
"191 -12 CURVE SMOOTH"
);
},
{
closed = 1;
nodes = (
"128 43 OFFCURVE",
"89 91 OFFCURVE",
"99 162 CURVE SMOOTH",
"129 379 LINE SMOOTH",
"139 450 OFFCURVE",
"192 497 OFFCURVE",
"262 497 CURVE SMOOTH",
"331 497 OFFCURVE",
"369 450 OFFCURVE",
"359 379 CURVE SMOOTH",
"329 162 LINE SMOOTH",
"319 91 OFFCURVE",
"268 43 OFFCURVE",
"198 43 CURVE SMOOTH"
);
},
{
closed = 1;
nodes = (
"414 379 LINE SMOOTH",
"424 450 OFFCURVE",
"477 497 OFFCURVE",
"547 497 CURVE SMOOTH",
"616 497 OFFCURVE",
"654 450 OFFCURVE",
"644 379 CURVE SMOOTH",
"636 321 LINE",
"406 321 LINE"
);
}
);
width = 740;
},
{
layerId = "60B18B06-8123-4D0C-85E3-2DE7B5C03586";
paths = (
{
closed = 1;
nodes = (
"238 -13 OFFCURVE",
"289 10 OFFCURVE",
"327 52 CURVE",
"274 52 LINE",
"298 10 OFFCURVE",
"344 -13 OFFCURVE",
"403 -13 CURVE SMOOTH",
"507 -13 OFFCURVE",
"592 57 OFFCURVE",
"604 172 CURVE SMOOTH",
"605 182 LINE",
"480 182 LINE",
"477 162 LINE SMOOTH",
"473 134 OFFCURVE",
"454 112 OFFCURVE",
"421 112 CURVE SMOOTH",
"389 112 OFFCURVE",
"374 132 OFFCURVE",
"378 162 CURVE SMOOTH",
"389 243 LINE",
"614 243 LINE",
"633 378 LINE SMOOTH",
"649 489 OFFCURVE",
"590 563 OFFCURVE",
"484 563 CURVE SMOOTH",
"427 563 OFFCURVE",
"374 542 OFFCURVE",
"337 498 CURVE",
"390 498 LINE",
"365 538 OFFCURVE",
"321 563 OFFCURVE",
"259 563 CURVE SMOOTH",
"152 563 OFFCURVE",
"74 489 OFFCURVE",
"58 378 CURVE SMOOTH",
"29 172 LINE SMOOTH",
"13 61 OFFCURVE",
"72 -13 OFFCURVE",
"178 -13 CURVE SMOOTH"
);
},
{
closed = 1;
nodes = (
"164 112 OFFCURVE",
"149 132 OFFCURVE",
"153 162 CURVE SMOOTH",
"184 388 LINE SMOOTH",
"188 418 OFFCURVE",
"210 438 OFFCURVE",
"241 438 CURVE SMOOTH",
"273 438 OFFCURVE",
"288 418 OFFCURVE",
"284 388 CURVE SMOOTH",
"253 162 LINE SMOOTH",
"249 132 OFFCURVE",
"227 112 OFFCURVE",
"196 112 CURVE SMOOTH"
);
},
{
closed = 1;
nodes = (
"409 388 LINE SMOOTH",
"413 418 OFFCURVE",
"435 438 OFFCURVE",
"466 438 CURVE SMOOTH",
"498 438 OFFCURVE",
"513 418 OFFCURVE",
"509 388 CURVE SMOOTH",
"505 358 LINE",
"405 358 LINE"
);
}
);
width = 660;
}
);
leftKerningGroup = o;
leftMetricsKey = o;
rightKerningGroup = e;
rightMetricsKey = e;
unicode = 0153;
},
{
color = 8;
glyphname = p;
lastChange = "2018-05-02 18:11:20 +0000";
layers = (
{
anchors = (
{
name = bottom;
position = "{196, 0}";
},
{
name = top;
position = "{273, 550}";
}
);
layerId = "60B18B06-8123-4D0C-85E3-2DE7B5C03586";
paths = (
{
closed = 1;
nodes = (
"121 -180 LINE",
"158 84 LINE",
"132 55 LINE",
"147 12 OFFCURVE",
"182 -13 OFFCURVE",
"237 -13 CURVE SMOOTH",
"301 -13 OFFCURVE",
"375 21 OFFCURVE",
"394 162 CURVE SMOOTH",
"425 388 LINE SMOOTH",
"444 529 OFFCURVE",
"383 563 OFFCURVE",
"318 563 CURVE SMOOTH",
"263 563 OFFCURVE",
"220 538 OFFCURVE",
"193 495 CURVE",
"211 466 LINE",
"223 550 LINE",
"98 550 LINE",
"-4 -180 LINE"
);
},
{
closed = 1;
nodes = (
"180 112 OFFCURVE",
"165 132 OFFCURVE",
"169 162 CURVE SMOOTH",
"200 388 LINE SMOOTH",
"204 418 OFFCURVE",
"226 438 OFFCURVE",
"257 438 CURVE SMOOTH",
"289 438 OFFCURVE",
"304 418 OFFCURVE",
"300 388 CURVE SMOOTH",
"269 162 LINE SMOOTH",
"265 132 OFFCURVE",
"243 112 OFFCURVE",
"212 112 CURVE SMOOTH"
);
}
);
width = 459;
},
{
anchors = (
{
name = bottom;
position = "{206, 0}";
},
{
name = top;
position = "{282, 540}";
}
);
hints = (
{
horizontal = 1;
origin = "{0, 5}";
target = "{1, 13}";
},
{
horizontal = 1;
origin = "{0, 12}";
target = "{1, 6}";
},
{
horizontal = 1;
origin = "{0, 18}";
target = "{1, 6}";
}
);
layerId = "DDDB0B36-051A-43AE-9F30-611505482296";
paths = (
{
closed = 1;
nodes = (
"67 -180 LINE",
"101 66 LINE",
"91 54 LINE",
"110 13 OFFCURVE",
"150 -12 OFFCURVE",
"204 -12 CURVE SMOOTH",
"304 -12 OFFCURVE",
"384 58 OFFCURVE",
"398 162 CURVE SMOOTH",
"428 379 LINE SMOOTH",
"442 482 OFFCURVE",
"383 552 OFFCURVE",
"283 552 CURVE SMOOTH",
"229 552 OFFCURVE",
"182 527 OFFCURVE",
"151 486 CURVE",
"158 474 LINE",
"168 540 LINE",
"113 540 LINE",
"12 -180 LINE"
);
},
{
closed = 1;
nodes = (
"139 43 OFFCURVE",
"105 90 OFFCURVE",
"115 161 CURVE SMOOTH",
"145 379 LINE SMOOTH",
"155 450 OFFCURVE",
"202 497 OFFCURVE",
"276 497 CURVE SMOOTH",
"345 497 OFFCURVE",
"383 450 OFFCURVE",
"373 379 CURVE SMOOTH",
"343 162 LINE SMOOTH",
"333 91 OFFCURVE",
"282 43 OFFCURVE",
"212 43 CURVE SMOOTH"
);
}
);
width = 472;
}
);
leftKerningGroup = n;
note = p;
rightKerningGroup = o;
unicode = 0070;
},
{
glyphname = thorn;
lastChange = "2018-05-02 18:11:20 +0000";
layers = (
{
anchors = (
{
name = bottom;
position = "{206, 0}";
},
{
name = top;
position = "{282, 540}";
}
);
hints = (
{
horizontal = 1;
origin = "{0, 5}";
target = "{1, 13}";
},
{
horizontal = 1;
origin = "{0, 12}";
target = "{1, 6}";
},
{
horizontal = 1;
origin = "{0, 18}";
target = down;
type = TopGhost;
}
);
layerId = "DDDB0B36-051A-43AE-9F30-611505482296";
paths = (
{
closed = 1;
nodes = (
"67 -180 LINE",
"101 66 LINE",
"91 54 LINE",
"110 13 OFFCURVE",
"150 -12 OFFCURVE",
"204 -12 CURVE SMOOTH",
"304 -12 OFFCURVE",
"384 58 OFFCURVE",
"398 162 CURVE SMOOTH",
"428 379 LINE SMOOTH",
"442 482 OFFCURVE",
"383 552 OFFCURVE",
"283 552 CURVE SMOOTH",
"229 552 OFFCURVE",
"182 527 OFFCURVE",
"151 486 CURVE",
"158 474 LINE",
"197 750 LINE",
"142 750 LINE",
"12 -180 LINE"
);
},
{
closed = 1;
nodes = (
"139 43 OFFCURVE",
"105 90 OFFCURVE",
"115 161 CURVE SMOOTH",
"145 379 LINE SMOOTH",
"155 450 OFFCURVE",
"202 497 OFFCURVE",
"276 497 CURVE SMOOTH",
"345 497 OFFCURVE",
"383 450 OFFCURVE",
"373 379 CURVE SMOOTH",
"343 162 LINE SMOOTH",
"333 91 OFFCURVE",
"282 43 OFFCURVE",
"212 43 CURVE SMOOTH"
);
}
);
width = 472;
},
{
anchors = (
{
name = bottom;
position = "{196, 0}";
},
{
name = top;
position = "{273, 550}";
}
);
layerId = "60B18B06-8123-4D0C-85E3-2DE7B5C03586";
paths = (
{
closed = 1;
nodes = (
"121 -180 LINE",
"158 84 LINE",
"132 55 LINE",
"147 12 OFFCURVE",
"182 -13 OFFCURVE",
"237 -13 CURVE SMOOTH",
"301 -13 OFFCURVE",
"375 21 OFFCURVE",
"394 162 CURVE SMOOTH",
"425 388 LINE SMOOTH",
"444 529 OFFCURVE",
"383 563 OFFCURVE",
"318 563 CURVE SMOOTH",
"263 563 OFFCURVE",
"220 538 OFFCURVE",
"193 495 CURVE",
"211 466 LINE",
"251 750 LINE",
"126 750 LINE",
"-4 -180 LINE"
);
},
{
closed = 1;
nodes = (
"180 112 OFFCURVE",
"165 132 OFFCURVE",
"169 162 CURVE SMOOTH",
"200 388 LINE SMOOTH",
"204 418 OFFCURVE",
"226 438 OFFCURVE",
"257 438 CURVE SMOOTH",
"289 438 OFFCURVE",
"304 418 OFFCURVE",
"300 388 CURVE SMOOTH",
"269 162 LINE SMOOTH",
"265 132 OFFCURVE",
"243 112 OFFCURVE",
"212 112 CURVE SMOOTH"
);
}
);
width = 459;
}
);
leftKerningGroup = h;
rightKerningGroup = o;
unicode = 00FE;
},
{
color = 8;
glyphname = q;
lastChange = "2018-05-02 18:11:20 +0000";
layers = (
{
layerId = "60B18B06-8123-4D0C-85E3-2DE7B5C03586";
paths = (
{
closed = 1;
nodes = (
"337 -170 LINE",
"437 550 LINE",
"312 550 LINE",
"301 466 LINE",
"327 495 LINE",
"312 538 OFFCURVE",
"276 563 OFFCURVE",
"221 563 CURVE SMOOTH",
"157 563 OFFCURVE",
"85 529 OFFCURVE",
"65 388 CURVE SMOOTH",
"33 162 LINE SMOOTH",
"13 21 OFFCURVE",
"76 -13 OFFCURVE",
"141 -13 CURVE SMOOTH",
"196 -13 OFFCURVE",
"238 12 OFFCURVE",
"265 55 CURVE",
"247 84 LINE",
"212 -170 LINE"
);
},
{
closed = 1;
nodes = (
"169 112 OFFCURVE",
"154 132 OFFCURVE",
"158 162 CURVE SMOOTH",
"190 388 LINE SMOOTH",
"194 418 OFFCURVE",
"216 438 OFFCURVE",
"247 438 CURVE SMOOTH",
"278 438 OFFCURVE",
"294 418 OFFCURVE",
"290 388 CURVE SMOOTH",
"258 162 LINE SMOOTH",
"254 132 OFFCURVE",
"232 112 OFFCURVE",
"201 112 CURVE SMOOTH"
);
}
);
width = 459;
},
{
hints = (
{
horizontal = 1;
origin = "{0, 14}";
target = "{1, 13}";
},
{
horizontal = 1;
origin = "{0, 2}";
target = "{1, 6}";
},
{
horizontal = 1;
origin = "{0, 7}";
target = "{1, 6}";
}
);
layerId = "DDDB0B36-051A-43AE-9F30-611505482296";
paths = (
{
closed = 1;
nodes = (
"334 -180 LINE",
"435 540 LINE",
"380 540 LINE",
"371 474 LINE",
"381 486 LINE",
"362 527 OFFCURVE",
"322 552 OFFCURVE",
"268 552 CURVE SMOOTH",
"168 552 OFFCURVE",
"88 482 OFFCURVE",
"74 379 CURVE SMOOTH",
"44 162 LINE SMOOTH",
"30 58 OFFCURVE",
"89 -12 OFFCURVE",
"189 -12 CURVE SMOOTH",
"244 -12 OFFCURVE",
"290 13 OFFCURVE",
"321 54 CURVE",
"314 66 LINE",
"279 -180 LINE"
);
},
{
closed = 1;
nodes = (
"127 43 OFFCURVE",
"89 91 OFFCURVE",
"99 162 CURVE SMOOTH",
"129 379 LINE SMOOTH",
"139 450 OFFCURVE",
"190 497 OFFCURVE",
"260 497 CURVE SMOOTH",
"332 497 OFFCURVE",
"367 450 OFFCURVE",
"357 379 CURVE SMOOTH",
"327 161 LINE SMOOTH",
"317 90 OFFCURVE",
"269 43 OFFCURVE",
"196 43 CURVE SMOOTH"
);
}
);
width = 472;
}
);
leftKerningGroup = o;
note = q;
rightKerningGroup = u;
unicode = 0071;
},
{
color = 8;
glyphname = r;
lastChange = "2018-05-02 18:11:20 +0000";
layers = (
{
anchors = (
{
name = bottom;
position = "{83, 0}";
},
{
name = top;
position = "{223, 550}";
}
);
layerId = "60B18B06-8123-4D0C-85E3-2DE7B5C03586";
paths = (
{
closed = 1;
nodes = (
"146 0 LINE",
"200 388 LINE SMOOTH",
"204 418 OFFCURVE",
"225 432 OFFCURVE",
"256 432 CURVE SMOOTH",
"324 432 LINE",
"342 557 LINE",
"317 557 LINE SMOOTH",
"264 557 OFFCURVE",
"220 534 OFFCURVE",
"191 487 CURVE",
"210 460 LINE",
"223 550 LINE",
"98 550 LINE",
"21 0 LINE"
);
}
);
width = 302;
},
{
anchors = (
{
name = bottom;
position = "{64, 0}";
},
{
name = top;
position = "{211, 540}";
}
);
hints = (
{
horizontal = 1;
origin = "{0, 14}";
target = up;
type = BottomGhost;
},
{
horizontal = 1;
origin = "{0, 7}";
target = "{0, 4}";
},
{
horizontal = 1;
origin = "{0, 13}";
target = down;
type = TopGhost;
}
);
layerId = "DDDB0B36-051A-43AE-9F30-611505482296";
paths = (
{
closed = 1;
nodes = (
"92 0 LINE",
"144 373 LINE SMOOTH",
"154 444 OFFCURVE",
"205 491 OFFCURVE",
"272 491 CURVE SMOOTH",
"301 491 LINE",
"308 546 LINE",
"285 546 LINE SMOOTH",
"230 546 OFFCURVE",
"182 521 OFFCURVE",
"150 477 CURVE",
"157 466 LINE",
"168 540 LINE",
"113 540 LINE",
"37 0 LINE"
);
}
);
width = 276;
}
);
leftKerningGroup = n;
note = r;
rightKerningGroup = r;
unicode = 0072;
},
{
color = 8;
glyphname = s;
lastChange = "2018-05-02 18:11:20 +0000";
layers = (
{
anchors = (
{
name = bottom;
position = "{172, 0}";
},
{
name = top;
position = "{249, 550}";
}
);
layerId = "60B18B06-8123-4D0C-85E3-2DE7B5C03586";
paths = (
{
closed = 1;
nodes = (
"285 -13 OFFCURVE",
"372 75 OFFCURVE",
"372 192 CURVE SMOOTH",
"372 277 OFFCURVE",
"314 333 OFFCURVE",
"219 333 CURVE SMOOTH",
"190 333 OFFCURVE",
"176 353 OFFCURVE",
"176 378 CURVE SMOOTH",
"176 413 OFFCURVE",
"200 438 OFFCURVE",
"233 438 CURVE SMOOTH",
"268 438 OFFCURVE",
"280 415 OFFCURVE",
"276 388 CURVE SMOOTH",
"273 368 LINE",
"398 368 LINE",
"399 378 LINE SMOOTH",
"410 488 OFFCURVE",
"359 563 OFFCURVE",
"251 563 CURVE SMOOTH",
"136 563 OFFCURVE",
"49 476 OFFCURVE",
"49 359 CURVE SMOOTH",
"49 274 OFFCURVE",
"107 218 OFFCURVE",
"202 218 CURVE SMOOTH",
"231 218 OFFCURVE",
"245 198 OFFCURVE",
"245 173 CURVE SMOOTH",
"245 138 OFFCURVE",
"220 112 OFFCURVE",
"188 112 CURVE SMOOTH",
"159 112 OFFCURVE",
"139 129 OFFCURVE",
"144 162 CURVE SMOOTH",
"147 182 LINE",
"22 182 LINE",
"21 172 LINE SMOOTH",
"10 62 OFFCURVE",
"62 -13 OFFCURVE",
"170 -13 CURVE SMOOTH"
);
}
);
width = 420;
},
{
anchors = (
{
name = bottom;
position = "{175, 0}";
},
{
name = top;
position = "{250, 540}";
}
);
hints = (
{
horizontal = 1;
origin = "{0, 41}";
target = "{0, 32}";
},
{
horizontal = 1;
origin = "{0, 26}";
target = "{0, 5}";
},
{
horizontal = 1;
origin = "{0, 20}";
target = "{0, 11}";
}
);
layerId = "DDDB0B36-051A-43AE-9F30-611505482296";
paths = (
{
closed = 1;
nodes = (
"283 -12 OFFCURVE",
"362 65 OFFCURVE",
"362 168 CURVE SMOOTH",
"362 246 OFFCURVE",
"306 297 OFFCURVE",
"217 297 CURVE SMOOTH",
"157 297 OFFCURVE",
"119 329 OFFCURVE",
"119 381 CURVE SMOOTH",
"119 448 OFFCURVE",
"173 497 OFFCURVE",
"245 497 CURVE SMOOTH",
"310 497 OFFCURVE",
"351 457 OFFCURVE",
"341 397 CURVE SMOOTH",
"338 378 LINE",
"393 378 LINE",
"396 397 LINE SMOOTH",
"411 489 OFFCURVE",
"351 552 OFFCURVE",
"253 552 CURVE SMOOTH",
"145 552 OFFCURVE",
"64 476 OFFCURVE",
"64 372 CURVE SMOOTH",
"64 293 OFFCURVE",
"120 243 OFFCURVE",
"210 243 CURVE SMOOTH",
"268 243 OFFCURVE",
"306 210 OFFCURVE",
"306 159 CURVE SMOOTH",
"306 92 OFFCURVE",
"254 43 OFFCURVE",
"185 43 CURVE SMOOTH",
"118 43 OFFCURVE",
"76 83 OFFCURVE",
"85 143 CURVE SMOOTH",
"88 164 LINE",
"33 164 LINE",
"30 144 LINE SMOOTH",
"16 50 OFFCURVE",
"77 -12 OFFCURVE",
"177 -12 CURVE SMOOTH"
);
}
);
width = 426;
}
);
leftKerningGroup = s;
note = s;
rightKerningGroup = s;
unicode = 0073;
},
{
glyphname = germandbls;
lastChange = "2018-05-02 18:11:20 +0000";
layers = (
{
hints = (
{
horizontal = 1;
origin = "{0, 23}";
target = "{0, 22}";
},
{
horizontal = 1;
origin = "{0, 13}";
target = "{0, 12}";
},
{
horizontal = 1;
origin = "{0, 39}";
target = "{0, 4}";
}
);
layerId = "DDDB0B36-051A-43AE-9F30-611505482296";
paths = (
{
closed = 1;
nodes = (
"76 -120 LINE",
"174 581 LINE SMOOTH",
"185 659 OFFCURVE",
"241 711 OFFCURVE",
"312 711 CURVE SMOOTH",
"383 711 OFFCURVE",
"425 659 OFFCURVE",
"414 581 CURVE SMOOTH",
"407 530 LINE SMOOTH",
"398 464 OFFCURVE",
"351 420 OFFCURVE",
"292 420 CURVE SMOOTH",
"240 420 LINE",
"232 365 LINE",
"294 365 LINE SMOOTH",
"353 365 OFFCURVE",
"387 321 OFFCURVE",
"378 255 CURVE SMOOTH",
"366 165 LINE SMOOTH",
"357 99 OFFCURVE",
"310 55 OFFCURVE",
"250 55 CURVE SMOOTH",
"188 55 LINE",
"181 0 LINE",
"243 0 LINE SMOOTH",
"336 0 OFFCURVE",
"408 66 OFFCURVE",
"421 165 CURVE SMOOTH",
"433 255 LINE SMOOTH",
"442 324 OFFCURVE",
"419 377 OFFCURVE",
"373 404 CURVE",
"372 387 LINE",
"418 414 OFFCURVE",
"453 466 OFFCURVE",
"462 530 CURVE SMOOTH",
"469 581 LINE SMOOTH",
"484 692 OFFCURVE",
"425 766 OFFCURVE",
"320 766 CURVE SMOOTH",
"218 766 OFFCURVE",
"135 695 OFFCURVE",
"119 581 CURVE SMOOTH",
"21 -120 LINE"
);
}
);
width = 491;
},
{
layerId = "60B18B06-8123-4D0C-85E3-2DE7B5C03586";
paths = (
{
closed = 1;
nodes = (
"139 -120 LINE",
"236 571 LINE SMOOTH",
"241 607 OFFCURVE",
"269 631 OFFCURVE",
"304 631 CURVE SMOOTH",
"340 631 OFFCURVE",
"361 607 OFFCURVE",
"356 571 CURVE SMOOTH",
"344 485 LINE SMOOTH",
"340 455 OFFCURVE",
"318 435 OFFCURVE",
"287 435 CURVE SMOOTH",
"267 435 LINE",
"248 300 LINE",
"278 300 LINE SMOOTH",
"309 300 OFFCURVE",
"325 280 OFFCURVE",
"321 250 CURVE SMOOTH",
"310 170 LINE SMOOTH",
"306 140 OFFCURVE",
"284 120 OFFCURVE",
"253 120 CURVE SMOOTH",
"221 120 LINE",
"202 -15 LINE",
"234 -15 LINE SMOOTH",
"346 -15 OFFCURVE",
"430 59 OFFCURVE",
"445 170 CURVE SMOOTH",
"456 250 LINE SMOOTH",
"465 315 OFFCURVE",
"445 367 OFFCURVE",
"409 400 CURVE",
"404 346 LINE",
"444 378 OFFCURVE",
"471 428 OFFCURVE",
"479 485 CURVE SMOOTH",
"491 571 LINE SMOOTH",
"507 688 OFFCURVE",
"440 766 OFFCURVE",
"323 766 CURVE SMOOTH",
"207 766 OFFCURVE",
"117 688 OFFCURVE",
"101 571 CURVE SMOOTH",
"4 -120 LINE"
);
}
);
width = 503;
}
);
leftKerningGroup = I;
rightKerningGroup = B;
unicode = 00DF;
},
{
glyphname = longs;
lastChange = "2018-05-02 18:11:20 +0000";
layers = (
{
hints = (
{
horizontal = 1;
origin = "{0, 15}";
target = up;
type = BottomGhost;
},
{
horizontal = 1;
origin = "{0, 12}";
target = "{0, 13}";
},
{
horizontal = 1;
origin = "{0, 7}";
target = "{0, 4}";
}
);
layerId = "DDDB0B36-051A-43AE-9F30-611505482296";
paths = (
{
closed = 1;
nodes = (
"126 0 LINE",
"206 576 LINE SMOOTH",
"217 653 OFFCURVE",
"270 705 OFFCURVE",
"340 705 CURVE SMOOTH",
"372 705 LINE",
"380 760 LINE",
"348 760 LINE SMOOTH",
"246 760 OFFCURVE",
"166 685 OFFCURVE",
"151 576 CURVE SMOOTH",
"146 540 LINE",
"45 540 LINE",
"38 487 LINE",
"139 487 LINE",
"71 0 LINE"
);
}
);
width = 268;
},
{
layerId = "60B18B06-8123-4D0C-85E3-2DE7B5C03586";
paths = (
{
closed = 1;
nodes = (
"187 0 LINE",
"269 585 LINE SMOOTH",
"273 615 OFFCURVE",
"295 635 OFFCURVE",
"326 635 CURVE SMOOTH",
"381 635 LINE",
"398 760 LINE",
"343 760 LINE SMOOTH",
"238 760 OFFCURVE",
"158 686 OFFCURVE",
"144 585 CURVE SMOOTH",
"139 550 LINE",
"39 550 LINE",
"23 435 LINE",
"123 435 LINE",
"62 0 LINE"
);
}
);
width = 304;
}
);
leftKerningGroup = f;
rightKerningGroup = f;
unicode = 017F;
},
{
color = 8;
glyphname = t;
lastChange = "2018-05-02 18:11:20 +0000";
layers = (
{
anchors = (
{
name = bottom;
position = "{205, 0}";
},
{
name = center;
position = "{166, 275}";
},
{
name = top;
position = "{204, 550}";
}
);
layerId = "60B18B06-8123-4D0C-85E3-2DE7B5C03586";
paths = (
{
closed = 1;
nodes = (
"280 -7 LINE",
"298 118 LINE",
"243 118 LINE SMOOTH",
"211 118 OFFCURVE",
"196 138 OFFCURVE",
"200 168 CURVE SMOOTH",
"237 435 LINE",
"342 435 LINE",
"358 550 LINE",
"253 550 LINE",
"271 680 LINE",
"146 680 LINE",
"128 550 LINE",
"38 550 LINE",
"22 435 LINE",
"112 435 LINE",
"75 168 LINE SMOOTH",
"60 57 OFFCURVE",
"118 -7 OFFCURVE",
"225 -7 CURVE SMOOTH"
);
}
);
width = 343;
},
{
anchors = (
{
name = bottom;
position = "{203, 0}";
},
{
name = center;
position = "{167, 270}";
},
{
name = top;
position = "{204, 540}";
}
);
hints = (
{
horizontal = 1;
origin = "{0, 19}";
target = "{0, 2}";
},
{
horizontal = 1;
origin = "{0, 13}";
target = "{0, 14}";
}
);
layerId = "DDDB0B36-051A-43AE-9F30-611505482296";
paths = (
{
closed = 1;
nodes = (
"270 -6 LINE",
"278 49 LINE",
"248 49 LINE SMOOTH",
"179 49 OFFCURVE",
"140 100 OFFCURVE",
"151 178 CURVE SMOOTH",
"194 488 LINE",
"339 488 LINE",
"346 541 LINE",
"201 541 LINE",
"221 680 LINE",
"166 680 LINE",
"146 541 LINE",
"46 541 LINE",
"39 488 LINE",
"139 488 LINE",
"96 178 LINE SMOOTH",
"81 67 OFFCURVE",
"138 -6 OFFCURVE",
"240 -6 CURVE SMOOTH"
);
}
);
width = 330;
}
);
leftKerningGroup = t;
note = t;
rightKerningGroup = t;
unicode = 0074;
},
{
color = 8;
glyphname = u;
lastChange = "2018-05-02 18:11:20 +0000";
layers = (
{
anchors = (
{
name = bottom;
position = "{194, 0}";
},
{
name = ogonek;
position = "{285, 0}";
},
{
name = top;
position = "{271, 550}";
}
);
layerId = "60B18B06-8123-4D0C-85E3-2DE7B5C03586";
paths = (
{
closed = 1;
nodes = (
"203 -13 OFFCURVE",
"244 12 OFFCURVE",
"271 55 CURVE",
"253 84 LINE",
"241 0 LINE",
"366 0 LINE",
"443 550 LINE",
"318 550 LINE",
"264 162 LINE SMOOTH",
"260 132 OFFCURVE",
"238 112 OFFCURVE",
"207 112 CURVE SMOOTH",
"175 112 OFFCURVE",
"160 132 OFFCURVE",
"164 162 CURVE SMOOTH",
"218 550 LINE",
"93 550 LINE",
"39 162 LINE SMOOTH",
"19 21 OFFCURVE",
"83 -13 OFFCURVE",
"147 -13 CURVE SMOOTH"
);
}
);
width = 464;
},
{
anchors = (
{
name = bottom;
position = "{193, 0}";
},
{
name = ogonek;
position = "{310, 0}";
},
{
name = top;
position = "{269, 540}";
}
);
hints = (
{
horizontal = 1;
origin = "{0, 20}";
target = "{0, 11}";
},
{
horizontal = 1;
origin = "{0, 16}";
target = down;
type = TopGhost;
},
{
horizontal = 1;
origin = "{0, 11}";
target = "{0, 4}";
}
);
layerId = "DDDB0B36-051A-43AE-9F30-611505482296";
paths = (
{
closed = 1;
nodes = (
"243 -12 OFFCURVE",
"290 13 OFFCURVE",
"322 57 CURVE",
"315 68 LINE",
"305 0 LINE",
"360 0 LINE",
"436 540 LINE",
"381 540 LINE",
"328 161 LINE SMOOTH",
"318 90 OFFCURVE",
"267 43 OFFCURVE",
"200 43 CURVE SMOOTH",
"136 43 OFFCURVE",
"98 90 OFFCURVE",
"108 161 CURVE SMOOTH",
"161 540 LINE",
"106 540 LINE",
"53 161 LINE SMOOTH",
"38 55 OFFCURVE",
"94 -12 OFFCURVE",
"187 -12 CURVE SMOOTH"
);
}
);
width = 473;
}
);
leftKerningGroup = u;
note = u;
rightKerningGroup = u;
unicode = 0075;
},
{
color = 8;
glyphname = v;
lastChange = "2018-05-02 18:11:20 +0000";
layers = (
{
layerId = "60B18B06-8123-4D0C-85E3-2DE7B5C03586";
paths = (
{
closed = 1;
nodes = (
"250 0 LINE",
"466 550 LINE",
"330 550 LINE",
"184 145 LINE",
"211 145 LINE",
"175 550 LINE",
"39 550 LINE",
"104 0 LINE"
);
}
);
width = 428;
},
{
hints = (
{
horizontal = 1;
origin = "{0, 7}";
target = up;
type = BottomGhost;
},
{
horizontal = 1;
origin = "{0, 6}";
target = down;
type = TopGhost;
}
);
layerId = "DDDB0B36-051A-43AE-9F30-611505482296";
paths = (
{
closed = 1;
nodes = (
"204 0 LINE",
"438 540 LINE",
"380 540 LINE",
"170 55 LINE",
"184 55 LINE",
"110 540 LINE",
"52 540 LINE",
"135 0 LINE"
);
}
);
width = 414;
}
);
leftKerningGroup = v;
note = v;
rightKerningGroup = v;
unicode = 0076;
},
{
color = 8;
glyphname = w;
lastChange = "2018-05-02 18:11:20 +0000";
layers = (
{
anchors = (
{
name = bottom;
position = "{263, 0}";
},
{
name = top;
position = "{340, 550}";
}
);
layerId = "60B18B06-8123-4D0C-85E3-2DE7B5C03586";
paths = (
{
closed = 1;
nodes = (
"198 0 LINE",
"327 367 LINE",
"302 367 LINE",
"327 0 LINE",
"455 0 LINE",
"629 550 LINE",
"499 550 LINE",
"393 153 LINE",
"412 153 LINE",
"394 550 LINE",
"285 550 LINE",
"155 153 LINE",
"174 153 LINE",
"180 550 LINE",
"50 550 LINE",
"70 0 LINE"
);
}
);
width = 601;
},
{
anchors = (
{
name = bottom;
position = "{230, 0}";
},
{
name = top;
position = "{306, 540}";
}
);
hints = (
{
horizontal = 1;
origin = "{0, 14}";
target = down;
type = TopGhost;
}
);
layerId = "DDDB0B36-051A-43AE-9F30-611505482296";
paths = (
{
closed = 1;
nodes = (
"145 0 LINE",
"296 435 LINE",
"286 435 LINE",
"314 0 LINE",
"381 0 LINE",
"540 540 LINE",
"482 540 LINE",
"351 55 LINE",
"359 56 LINE",
"333 540 LINE",
"278 540 LINE",
"116 56 LINE",
"124 55 LINE",
"128 540 LINE",
"71 540 LINE",
"78 0 LINE"
);
}
);
width = 535;
}
);
leftKerningGroup = w;
note = w;
rightKerningGroup = w;
unicode = 0077;
},
{
color = 8;
glyphname = x;
lastChange = "2018-05-02 18:11:20 +0000";
layers = (
{
layerId = "60B18B06-8123-4D0C-85E3-2DE7B5C03586";
paths = (
{
closed = 1;
nodes = (
"90 0 LINE",
"224 202 LINE",
"168 202 LINE",
"246 0 LINE",
"374 0 LINE",
"268 275 LINE",
"451 550 LINE",
"323 550 LINE",
"189 348 LINE",
"245 348 LINE",
"167 550 LINE",
"39 550 LINE",
"145 275 LINE",
"-38 0 LINE"
);
}
);
width = 413;
},
{
hints = (
{
horizontal = 1;
origin = "{0, 13}";
target = up;
type = BottomGhost;
},
{
horizontal = 1;
origin = "{0, 11}";
target = down;
type = TopGhost;
}
);
layerId = "DDDB0B36-051A-43AE-9F30-611505482296";
paths = (
{
closed = 1;
nodes = (
"39 0 LINE",
"200 232 LINE",
"176 232 LINE",
"272 0 LINE",
"334 0 LINE",
"222 271 LINE",
"410 540 LINE",
"348 540 LINE",
"187 310 LINE",
"211 310 LINE",
"115 540 LINE",
"53 540 LINE",
"165 271 LINE",
"-23 0 LINE"
);
}
);
width = 387;
}
);
note = x;
unicode = 0078;
},
{
color = 8;
glyphname = y;
lastChange = "2018-05-02 18:11:20 +0000";
layers = (
{
anchors = (
{
name = bottom;
position = "{175, 0}";
},
{
name = top;
position = "{252, 550}";
}
);
layerId = "60B18B06-8123-4D0C-85E3-2DE7B5C03586";
paths = (
{
closed = 1;
nodes = (
"165 -180 LINE",
"465 550 LINE",
"329 550 LINE",
"185 155 LINE",
"212 155 LINE",
"174 550 LINE",
"38 550 LINE",
"112 0 LINE",
"39 -180 LINE"
);
}
);
width = 425;
},
{
anchors = (
{
name = bottom;
position = "{170, 0}";
},
{
name = top;
position = "{246, 540}";
}
);
hints = (
{
horizontal = 1;
origin = "{0, 6}";
target = down;
type = TopGhost;
}
);
layerId = "DDDB0B36-051A-43AE-9F30-611505482296";
paths = (
{
closed = 1;
nodes = (
"125 -180 LINE",
"439 540 LINE",
"378 540 LINE",
"172 61 LINE",
"186 61 LINE",
"113 540 LINE",
"53 540 LINE",
"135 -15 LINE",
"63 -180 LINE"
);
}
);
width = 415;
}
);
leftKerningGroup = y;
note = y;
rightKerningGroup = v;
unicode = 0079;
},
{
color = 8;
glyphname = z;
lastChange = "2018-05-02 18:11:20 +0000";
layers = (
{
anchors = (
{
name = bottom;
position = "{164, 0}";
},
{
name = top;
position = "{241, 550}";
}
);
layerId = "60B18B06-8123-4D0C-85E3-2DE7B5C03586";
paths = (
{
closed = 1;
nodes = (
"338 0 LINE",
"355 125 LINE",
"99 125 LINE",
"122 73 LINE",
"401 452 LINE",
"415 550 LINE",
"65 550 LINE",
"47 425 LINE",
"312 425 LINE",
"291 477 LINE",
"2 98 LINE",
"-12 0 LINE"
);
}
);
width = 403;
},
{
anchors = (
{
name = bottom;
position = "{148, 0}";
},
{
name = top;
position = "{224, 540}";
}
);
hints = (
{
horizontal = 1;
origin = "{0, 11}";
target = "{0, 2}";
},
{
horizontal = 1;
origin = "{0, 6}";
target = "{0, 7}";
}
);
layerId = "DDDB0B36-051A-43AE-9F30-611505482296";
paths = (
{
closed = 1;
nodes = (
"301 0 LINE",
"309 55 LINE",
"40 55 LINE",
"50 33 LINE",
"379 497 LINE",
"385 540 LINE",
"69 540 LINE",
"61 485 LINE",
"331 485 LINE",
"321 506 LINE",
"-9 43 LINE",
"-15 0 LINE"
);
}
);
width = 370;
}
);
leftKerningGroup = z;
note = z;
rightKerningGroup = z;
unicode = 007A;
},
{
color = 8;
glyphname = a.ss01;
lastChange = "2018-05-04 06:38:06 +0000";
layers = (
{
anchors = (
{
name = bottom;
position = "{130, 0}";
},
{
name = ogonek;
position = "{280, 0}";
},
{
name = top;
position = "{253, 550}";
}
);
layerId = "60B18B06-8123-4D0C-85E3-2DE7B5C03586";
paths = (
{
closed = 1;
nodes = (
"182 -13 OFFCURVE",
"229 12 OFFCURVE",
"256 58 CURVE",
"238 86 LINE",
"226 0 LINE",
"351 0 LINE",
"404 378 LINE SMOOTH",
"420 489 OFFCURVE",
"361 563 OFFCURVE",
"255 563 CURVE SMOOTH",
"148 563 OFFCURVE",
"71 489 OFFCURVE",
"54 378 CURVE SMOOTH",
"51 358 LINE",
"176 358 LINE",
"180 388 LINE SMOOTH",
"184 418 OFFCURVE",
"206 438 OFFCURVE",
"237 438 CURVE SMOOTH",
"269 438 OFFCURVE",
"283 418 OFFCURVE",
"280 388 CURVE SMOOTH",
"279 378 LINE SMOOTH",
"273 318 OFFCURVE",
"180 310 OFFCURVE",
"110 274 CURVE SMOOTH",
"62 249 OFFCURVE",
"8 202 OFFCURVE",
"8 107 CURVE SMOOTH",
"8 36 OFFCURVE",
"48 -13 OFFCURVE",
"127 -13 CURVE SMOOTH"
);
},
{
closed = 1;
nodes = (
"152 102 OFFCURVE",
"137 122 OFFCURVE",
"137 144 CURVE SMOOTH",
"137 178 OFFCURVE",
"164 193 OFFCURVE",
"183 202 CURVE SMOOTH",
"210 214 OFFCURVE",
"239 220 OFFCURVE",
"259 236 CURVE",
"248 159 LINE SMOOTH",
"242 116 OFFCURVE",
"212 102 OFFCURVE",
"184 102 CURVE SMOOTH"
);
}
);
width = 441;
},
{
anchors = (
{
name = bottom;
position = "{178, 0}";
},
{
name = ogonek;
position = "{311, 0}";
},
{
name = top;
position = "{258, 540}";
}
);
hints = (
{
horizontal = 1;
origin = "{0, 31}";
target = "{1, 12}";
},
{
horizontal = 1;
origin = "{0, 9}";
target = "{0, 18}";
},
{
horizontal = 1;
origin = "{0, 4}";
target = up;
type = BottomGhost;
}
);
layerId = "DDDB0B36-051A-43AE-9F30-611505482296";
paths = (
{
closed = 1;
nodes = (
"231 -12 OFFCURVE",
"283 14 OFFCURVE",
"316 59 CURVE",
"309 71 LINE",
"299 0 LINE",
"354 0 LINE",
"407 379 LINE SMOOTH",
"421 482 OFFCURVE",
"360 552 OFFCURVE",
"260 552 CURVE SMOOTH",
"161 552 OFFCURVE",
"74 482 OFFCURVE",
"74 379 CURVE SMOOTH",
"74 369 LINE",
"126 369 LINE",
"126 379 LINE SMOOTH",
"126 450 OFFCURVE",
"183 497 OFFCURVE",
"252 497 CURVE SMOOTH",
"322 497 OFFCURVE",
"362 450 OFFCURVE",
"352 379 CURVE SMOOTH",
"350 365 LINE SMOOTH",
"339 291 OFFCURVE",
"241 300 OFFCURVE",
"147 268 CURVE SMOOTH",
"87 248 OFFCURVE",
"20 205 OFFCURVE",
"20 111 CURVE SMOOTH",
"20 38 OFFCURVE",
"72 -12 OFFCURVE",
"164 -12 CURVE SMOOTH"
);
},
{
closed = 1;
nodes = (
"112 42 OFFCURVE",
"76 74 OFFCURVE",
"76 122 CURVE SMOOTH",
"76 183 OFFCURVE",
"119 211 OFFCURVE",
"169 226 CURVE SMOOTH",
"221 242 OFFCURVE",
"285 244 OFFCURVE",
"337 273 CURVE",
"323 171 LINE SMOOTH",
"312 92 OFFCURVE",
"262 42 OFFCURVE",
"178 42 CURVE SMOOTH"
);
}
);
width = 459;
}
);
leftKerningGroup = a;
note = a;
rightKerningGroup = a;
},
{
color = 3;
glyphname = y.ss02;
lastChange = "2018-05-02 18:11:20 +0000";
layers = (
{
anchors = (
{
name = bottom;
position = "{154, -183}";
},
{
name = top;
position = "{257, 550}";
}
);
layerId = "60B18B06-8123-4D0C-85E3-2DE7B5C03586";
paths = (
{
closed = 1;
nodes = (
"259 -183 OFFCURVE",
"340 -110 OFFCURVE",
"355 0 CURVE SMOOTH",
"432 550 LINE",
"307 550 LINE",
"262 232 LINE SMOOTH",
"258 202 OFFCURVE",
"236 182 OFFCURVE",
"205 182 CURVE SMOOTH",
"173 182 OFFCURVE",
"158 202 OFFCURVE",
"162 232 CURVE SMOOTH",
"207 550 LINE",
"82 550 LINE",
"37 232 LINE SMOOTH",
"17 91 OFFCURVE",
"80 57 OFFCURVE",
"145 57 CURVE SMOOTH",
"201 57 OFFCURVE",
"242 82 OFFCURVE",
"269 125 CURVE",
"251 154 LINE",
"229 -8 LINE SMOOTH",
"225 -38 OFFCURVE",
"203 -58 OFFCURVE",
"172 -58 CURVE SMOOTH",
"140 -58 OFFCURVE",
"125 -38 OFFCURVE",
"129 -8 CURVE SMOOTH",
"133 24 LINE",
"8 24 LINE",
"5 2 LINE SMOOTH",
"-10 -109 OFFCURVE",
"46 -183 OFFCURVE",
"154 -183 CURVE SMOOTH"
);
}
);
width = 453;
},
{
anchors = (
{
name = bottom;
position = "{160, -183}";
},
{
name = top;
position = "{263, 540}";
}
);
hints = (
{
horizontal = 1;
origin = "{0, 34}";
target = "{0, 25}";
},
{
horizontal = 1;
origin = "{0, 17}";
target = "{0, 8}";
},
{
horizontal = 1;
origin = "{0, 13}";
target = down;
type = TopGhost;
}
);
layerId = "DDDB0B36-051A-43AE-9F30-611505482296";
paths = (
{
closed = 1;
nodes = (
"260 -183 OFFCURVE",
"340 -113 OFFCURVE",
"355 -9 CURVE SMOOTH",
"432 540 LINE",
"377 540 LINE",
"334 231 LINE SMOOTH",
"324 160 OFFCURVE",
"276 113 OFFCURVE",
"203 113 CURVE SMOOTH",
"134 113 OFFCURVE",
"96 161 OFFCURVE",
"106 232 CURVE SMOOTH",
"149 540 LINE",
"94 540 LINE",
"51 232 LINE SMOOTH",
"36 127 OFFCURVE",
"97 58 OFFCURVE",
"195 58 CURVE SMOOTH",
"250 58 OFFCURVE",
"297 83 OFFCURVE",
"328 124 CURVE",
"320 136 LINE",
"300 -9 LINE SMOOTH",
"290 -80 OFFCURVE",
"237 -128 OFFCURVE",
"167 -128 CURVE SMOOTH",
"97 -128 OFFCURVE",
"63 -80 OFFCURVE",
"70 -9 CURVE SMOOTH",
"71 1 LINE",
"16 1 LINE",
"15 -9 LINE SMOOTH",
"5 -112 OFFCURVE",
"58 -183 OFFCURVE",
"160 -183 CURVE SMOOTH"
);
}
);
width = 469;
}
);
leftKerningGroup = u;
note = u;
rightKerningGroup = u;
rightMetricsKey = j;
},
{
glyphname = ordfeminine;
lastChange = "2018-05-02 18:11:20 +0000";
layers = (
{
hints = (
{
horizontal = 1;
origin = "{0, 31}";
target = "{1, 12}";
},
{
horizontal = 1;
origin = "{0, 9}";
target = "{0, 18}";
}
);
layerId = "DDDB0B36-051A-43AE-9F30-611505482296";
paths = (
{
closed = 1;
nodes = (
"235 420 OFFCURVE",
"267 434 OFFCURVE",
"287 462 CURVE",
"280 472 LINE",
"274 427 LINE",
"318 427 LINE",
"350 654 LINE SMOOTH",
"359 717 OFFCURVE",
"322 760 OFFCURVE",
"261 760 CURVE SMOOTH",
"201 760 OFFCURVE",
"148 717 OFFCURVE",
"148 654 CURVE SMOOTH",
"148 647 LINE",
"190 647 LINE",
"190 656 LINE SMOOTH",
"190 692 OFFCURVE",
"220 716 OFFCURVE",
"255 716 CURVE SMOOTH",
"294 716 OFFCURVE",
"310 689 OFFCURVE",
"306 656 CURVE SMOOTH",
"305 648 LINE SMOOTH",
"300 605 OFFCURVE",
"235 607 OFFCURVE",
"190 589 CURVE SMOOTH",
"163 579 OFFCURVE",
"116 557 OFFCURVE",
"116 493 CURVE SMOOTH",
"116 450 OFFCURVE",
"145 420 OFFCURVE",
"199 420 CURVE SMOOTH"
);
},
{
closed = 1;
nodes = (
"179 461 OFFCURVE",
"161 479 OFFCURVE",
"161 503 CURVE SMOOTH",
"161 536 OFFCURVE",
"184 551 OFFCURVE",
"209 559 CURVE SMOOTH",
"236 568 OFFCURVE",
"270 570 OFFCURVE",
"296 585 CURVE",
"288 528 LINE SMOOTH",
"282 486 OFFCURVE",
"255 461 OFFCURVE",
"213 461 CURVE SMOOTH"
);
}
);
width = 394;
},
{
layerId = "60B18B06-8123-4D0C-85E3-2DE7B5C03586";
paths = (
{
closed = 1;
nodes = (
"172 414 OFFCURVE",
"201 428 OFFCURVE",
"218 457 CURVE",
"206 474 LINE",
"199 422 LINE",
"277 422 LINE",
"309 649 LINE SMOOTH",
"318 715 OFFCURVE",
"284 760 OFFCURVE",
"219 760 CURVE SMOOTH",
"155 760 OFFCURVE",
"109 716 OFFCURVE",
"99 649 CURVE SMOOTH",
"97 636 LINE",
"175 636 LINE",
"177 655 LINE SMOOTH",
"179 671 OFFCURVE",
"191 682 OFFCURVE",
"208 682 CURVE SMOOTH",
"225 682 OFFCURVE",
"232 671 OFFCURVE",
"229 655 CURVE SMOOTH",
"229 649 LINE SMOOTH",
"229 615 OFFCURVE",
"178 611 OFFCURVE",
"132 587 CURVE SMOOTH",
"102 572 OFFCURVE",
"71 542 OFFCURVE",
"71 486 CURVE SMOOTH",
"71 444 OFFCURVE",
"95 414 OFFCURVE",
"142 414 CURVE SMOOTH"
);
},
{
closed = 1;
nodes = (
"160 486 OFFCURVE",
"152 498 OFFCURVE",
"152 510 CURVE SMOOTH",
"152 525 OFFCURVE",
"163 535 OFFCURVE",
"177 542 CURVE SMOOTH",
"192 550 OFFCURVE",
"208 553 OFFCURVE",
"218 562 CURVE",
"212 517 LINE SMOOTH",
"209 493 OFFCURVE",
"191 486 OFFCURVE",
"178 486 CURVE SMOOTH"
);
}
);
width = 309;
}
);
unicode = 00AA;
},
{
glyphname = ordmasculine;
lastChange = "2018-05-02 18:11:20 +0000";
layers = (
{
hints = (
{
horizontal = 1;
origin = "{0, 13}";
target = "{1, 13}";
},
{
horizontal = 1;
origin = "{0, 6}";
target = "{1, 6}";
}
);
layerId = "DDDB0B36-051A-43AE-9F30-611505482296";
paths = (
{
closed = 1;
nodes = (
"267 420 OFFCURVE",
"314 462 OFFCURVE",
"323 526 CURVE SMOOTH",
"341 654 LINE SMOOTH",
"350 717 OFFCURVE",
"314 760 OFFCURVE",
"254 760 CURVE SMOOTH",
"193 760 OFFCURVE",
"145 717 OFFCURVE",
"136 654 CURVE SMOOTH",
"118 526 LINE SMOOTH",
"109 463 OFFCURVE",
"146 420 OFFCURVE",
"206 420 CURVE SMOOTH"
);
},
{
closed = 1;
nodes = (
"177 463 OFFCURVE",
"157 488 OFFCURVE",
"162 524 CURVE SMOOTH",
"180 656 LINE SMOOTH",
"185 692 OFFCURVE",
"212 716 OFFCURVE",
"248 716 CURVE SMOOTH",
"283 716 OFFCURVE",
"303 692 OFFCURVE",
"298 656 CURVE SMOOTH",
"280 524 LINE SMOOTH",
"275 488 OFFCURVE",
"248 463 OFFCURVE",
"212 463 CURVE SMOOTH"
);
}
);
width = 369;
},
{
layerId = "60B18B06-8123-4D0C-85E3-2DE7B5C03586";
paths = (
{
closed = 1;
nodes = (
"237 414 OFFCURVE",
"285 460 OFFCURVE",
"294 526 CURVE SMOOTH",
"311 649 LINE SMOOTH",
"320 716 OFFCURVE",
"285 760 OFFCURVE",
"221 760 CURVE SMOOTH",
"158 760 OFFCURVE",
"109 716 OFFCURVE",
"100 649 CURVE SMOOTH",
"83 526 LINE SMOOTH",
"74 459 OFFCURVE",
"108 414 OFFCURVE",
"172 414 CURVE SMOOTH"
);
},
{
closed = 1;
nodes = (
"167 493 OFFCURVE",
"159 504 OFFCURVE",
"161 519 CURVE SMOOTH",
"180 655 LINE SMOOTH",
"182 671 OFFCURVE",
"194 682 OFFCURVE",
"210 682 CURVE SMOOTH",
"228 682 OFFCURVE",
"235 671 OFFCURVE",
"233 655 CURVE SMOOTH",
"214 519 LINE SMOOTH",
"212 503 OFFCURVE",
"200 493 OFFCURVE",
"183 493 CURVE SMOOTH"
);
}
);
width = 306;
}
);
unicode = 00BA;
},
{
glyphname = Delta;
lastChange = "2018-05-02 18:11:20 +0000";
layers = (
{
hints = (
{
horizontal = 1;
origin = "{0, 3}";
target = "{1, 2}";
},
{
horizontal = 1;
origin = "{0, 2}";
target = down;
type = TopGhost;
}
);
layerId = "DDDB0B36-051A-43AE-9F30-611505482296";
paths = (
{
closed = 1;
nodes = (
"391 0 LINE",
"326 750 LINE",
"268 750 LINE",
"-7 0 LINE"
);
},
{
closed = 1;
nodes = (
"282 644 LINE",
"330 55 LINE",
"70 55 LINE"
);
}
);
width = 460;
},
{
layerId = "60B18B06-8123-4D0C-85E3-2DE7B5C03586";
paths = (
{
closed = 1;
nodes = (
"403 0 LINE",
"369 750 LINE",
"223 750 LINE",
"-24 0 LINE"
);
},
{
closed = 1;
nodes = (
"261 499 LINE",
"264 135 LINE",
"154 135 LINE"
);
}
);
width = 457;
}
);
leftKerningGroup = A;
rightKerningGroup = A;
unicode = 0394;
},
{
glyphname = Omega;
lastChange = "2018-05-02 18:11:20 +0000";
layers = (
{
hints = (
{
horizontal = 1;
origin = "{0, 37}";
target = "{0, 36}";
},
{
horizontal = 1;
origin = "{0, 27}";
target = "{0, 8}";
}
);
layerId = "DDDB0B36-051A-43AE-9F30-611505482296";
paths = (
{
closed = 1;
nodes = (
"233 0 LINE",
"241 55 LINE",
"169 55 OFFCURVE",
"128 107 OFFCURVE",
"139 185 CURVE SMOOTH",
"190 551 LINE SMOOTH",
"203 647 OFFCURVE",
"273 711 OFFCURVE",
"362 711 CURVE SMOOTH",
"452 711 OFFCURVE",
"503 647 OFFCURVE",
"490 551 CURVE SMOOTH",
"439 185 LINE SMOOTH",
"428 107 OFFCURVE",
"372 55 OFFCURVE",
"301 55 CURVE",
"293 0 LINE",
"528 0 LINE",
"536 55 LINE",
"407 55 LINE",
"420 44 LINE",
"459 77 OFFCURVE",
"485 127 OFFCURVE",
"494 185 CURVE SMOOTH",
"545 551 LINE SMOOTH",
"563 680 OFFCURVE",
"493 766 OFFCURVE",
"370 766 CURVE SMOOTH",
"248 766 OFFCURVE",
"153 680 OFFCURVE",
"135 551 CURVE SMOOTH",
"84 185 LINE SMOOTH",
"76 124 OFFCURVE",
"89 77 OFFCURVE",
"118 44 CURVE",
"135 55 LINE",
"6 55 LINE",
"-2 0 LINE"
);
}
);
width = 602;
},
{
layerId = "60B18B06-8123-4D0C-85E3-2DE7B5C03586";
paths = (
{
closed = 1;
nodes = (
"225 0 LINE",
"244 135 LINE",
"212 135 OFFCURVE",
"197 155 OFFCURVE",
"201 185 CURVE SMOOTH",
"252 551 LINE SMOOTH",
"259 599 OFFCURVE",
"295 631 OFFCURVE",
"343 631 CURVE SMOOTH",
"390 631 OFFCURVE",
"419 599 OFFCURVE",
"412 551 CURVE SMOOTH",
"361 185 LINE SMOOTH",
"357 155 OFFCURVE",
"335 135 OFFCURVE",
"304 135 CURVE",
"285 0 LINE",
"520 0 LINE",
"539 135 LINE",
"423 135 LINE",
"469 95 LINE",
"481 127 OFFCURVE",
"492 155 OFFCURVE",
"496 185 CURVE SMOOTH",
"547 551 LINE SMOOTH",
"565 680 OFFCURVE",
"491 766 OFFCURVE",
"362 766 CURVE SMOOTH",
"233 766 OFFCURVE",
"135 680 OFFCURVE",
"117 551 CURVE SMOOTH",
"66 185 LINE SMOOTH",
"61 150 OFFCURVE",
"65 131 OFFCURVE",
"67 95 CURVE",
"125 135 LINE",
"9 135 LINE",
"-10 0 LINE"
);
}
);
width = 588;
}
);
leftKerningGroup = O;
rightKerningGroup = O;
unicode = 03A9;
},
{
glyphname = pi;
lastChange = "2018-05-02 18:11:20 +0000";
layers = (
{
hints = (
{
horizontal = 1;
origin = "{0, 19}";
target = "{0, 2}";
},
{
horizontal = 1;
origin = "{0, 9}";
target = "{0, 10}";
},
{
horizontal = 1;
origin = "{0, 12}";
target = up;
type = BottomGhost;
}
);
layerId = "DDDB0B36-051A-43AE-9F30-611505482296";
paths = (
{
closed = 1;
nodes = (
"470 -6 LINE",
"478 49 LINE",
"448 49 LINE SMOOTH",
"378 49 OFFCURVE",
"340 100 OFFCURVE",
"351 178 CURVE SMOOTH",
"394 488 LINE",
"539 488 LINE",
"546 541 LINE",
"46 541 LINE",
"39 488 LINE",
"139 488 LINE",
"71 0 LINE",
"126 0 LINE",
"194 488 LINE",
"339 488 LINE",
"296 178 LINE SMOOTH",
"281 67 OFFCURVE",
"338 -6 OFFCURVE",
"440 -6 CURVE SMOOTH"
);
}
);
width = 530;
},
{
layerId = "60B18B06-8123-4D0C-85E3-2DE7B5C03586";
paths = (
{
closed = 1;
nodes = (
"470 -7 LINE",
"488 118 LINE",
"453 118 LINE SMOOTH",
"421 118 OFFCURVE",
"406 138 OFFCURVE",
"410 168 CURVE SMOOTH",
"447 435 LINE",
"532 435 LINE",
"548 550 LINE",
"38 550 LINE",
"22 435 LINE",
"112 435 LINE",
"51 0 LINE",
"176 0 LINE",
"237 435 LINE",
"322 435 LINE",
"285 168 LINE SMOOTH",
"270 57 OFFCURVE",
"328 -7 OFFCURVE",
"435 -7 CURVE SMOOTH"
);
}
);
width = 533;
}
);
leftKerningGroup = eta;
rightKerningGroup = iota;
unicode = 03C0;
},
{
glyphname = zero;
lastChange = "2018-05-02 18:11:20 +0000";
layers = (
{
layerId = "60B18B06-8123-4D0C-85E3-2DE7B5C03586";
paths = (
{
closed = 1;
nodes = (
"316 -16 OFFCURVE",
"398 58 OFFCURVE",
"414 169 CURVE SMOOTH",
"472 581 LINE SMOOTH",
"488 692 OFFCURVE",
"424 766 OFFCURVE",
"312 766 CURVE SMOOTH",
"200 766 OFFCURVE",
"118 692 OFFCURVE",
"102 581 CURVE SMOOTH",
"44 169 LINE SMOOTH",
"28 58 OFFCURVE",
"91 -16 OFFCURVE",
"203 -16 CURVE SMOOTH"
);
},
{
closed = 1;
nodes = (
"190 119 OFFCURVE",
"175 139 OFFCURVE",
"179 169 CURVE SMOOTH",
"237 581 LINE SMOOTH",
"241 611 OFFCURVE",
"262 631 OFFCURVE",
"294 631 CURVE SMOOTH",
"325 631 OFFCURVE",
"341 611 OFFCURVE",
"337 581 CURVE SMOOTH",
"279 169 LINE SMOOTH",
"275 139 OFFCURVE",
"253 119 OFFCURVE",
"222 119 CURVE SMOOTH"
);
},
{
closed = 1;
nodes = (
"115 119 LINE",
"190 119 LINE",
"402 631 LINE",
"326 631 LINE"
);
}
);
width = 488;
},
{
hints = (
{
horizontal = 1;
origin = "{0, 13}";
target = "{2, 0}";
},
{
horizontal = 1;
origin = "{0, 6}";
target = "{1, 6}";
}
);
layerId = "DDDB0B36-051A-43AE-9F30-611505482296";
paths = (
{
closed = 1;
nodes = (
"318 -16 OFFCURVE",
"398 58 OFFCURVE",
"414 169 CURVE SMOOTH",
"472 581 LINE SMOOTH",
"488 692 OFFCURVE",
"426 766 OFFCURVE",
"322 766 CURVE SMOOTH",
"218 766 OFFCURVE",
"138 692 OFFCURVE",
"122 581 CURVE SMOOTH",
"64 169 LINE SMOOTH",
"48 58 OFFCURVE",
"109 -16 OFFCURVE",
"213 -16 CURVE SMOOTH"
);
},
{
closed = 1;
nodes = (
"149 39 OFFCURVE",
"108 91 OFFCURVE",
"119 169 CURVE SMOOTH",
"177 581 LINE SMOOTH",
"188 659 OFFCURVE",
"243 711 OFFCURVE",
"315 711 CURVE SMOOTH",
"387 711 OFFCURVE",
"428 659 OFFCURVE",
"417 581 CURVE SMOOTH",
"359 169 LINE SMOOTH",
"348 91 OFFCURVE",
"292 39 OFFCURVE",
"221 39 CURVE SMOOTH"
);
},
{
closed = 1;
nodes = (
"109 39 LINE",
"149 39 LINE",
"427 711 LINE",
"387 711 LINE"
);
}
);
width = 506;
}
);
note = zero;
unicode = 0030;
},
{
glyphname = one;
lastChange = "2018-05-02 18:11:20 +0000";
layers = (
{
layerId = "60B18B06-8123-4D0C-85E3-2DE7B5C03586";
paths = (
{
closed = 1;
nodes = (
"225 0 LINE",
"330 750 LINE",
"195 750 LINE",
"193 739 LINE SMOOTH",
"185 694 OFFCURVE",
"153 664 OFFCURVE",
"99 664 CURVE SMOOTH",
"66 664 LINE",
"47 529 LINE",
"164 529 LINE",
"90 0 LINE"
);
}
);
width = 334;
},
{
hints = (
{
horizontal = 1;
origin = "{0, 10}";
target = up;
type = BottomGhost;
},
{
horizontal = 1;
origin = "{0, 8}";
target = "{0, 7}";
}
);
layerId = "DDDB0B36-051A-43AE-9F30-611505482296";
paths = (
{
closed = 1;
nodes = (
"138 0 LINE",
"243 750 LINE",
"188 750 LINE",
"186 739 LINE SMOOTH",
"178 694 OFFCURVE",
"146 664 OFFCURVE",
"92 664 CURVE SMOOTH",
"79 664 LINE",
"71 609 LINE",
"168 609 LINE",
"83 0 LINE"
);
}
);
width = 265;
}
);
note = one;
unicode = 0031;
},
{
glyphname = two;
lastChange = "2018-05-02 18:11:20 +0000";
layers = (
{
layerId = "60B18B06-8123-4D0C-85E3-2DE7B5C03586";
paths = (
{
closed = 1;
nodes = (
"370 0 LINE",
"389 135 LINE",
"101 135 LINE",
"153 74 LINE",
"164 150 LINE SMOOTH",
"184 288 OFFCURVE",
"411 295 OFFCURVE",
"437 481 CURVE SMOOTH",
"451 581 LINE SMOOTH",
"467 694 OFFCURVE",
"403 766 OFFCURVE",
"292 766 CURVE SMOOTH",
"178 766 OFFCURVE",
"95 692 OFFCURVE",
"81 581 CURVE SMOOTH",
"76 541 LINE",
"211 541 LINE",
"216 581 LINE SMOOTH",
"220 611 OFFCURVE",
"241 631 OFFCURVE",
"273 631 CURVE SMOOTH",
"305 631 OFFCURVE",
"320 611 OFFCURVE",
"316 581 CURVE SMOOTH",
"302 481 LINE SMOOTH",
"286 365 OFFCURVE",
"50 365 OFFCURVE",
"17 125 CURVE SMOOTH",
"0 0 LINE"
);
}
);
width = 452;
},
{
associatedMasterId = "60B18B06-8123-4D0C-85E3-2DE7B5C03586";
layerId = "F92B29A1-039B-46AC-99A0-1FE44ADB51CB";
name = "Apr 25 18, 17:35";
paths = (
{
closed = 1;
nodes = (
"150 582 LINE SMOOTH",
"150 621 OFFCURVE",
"186 655 OFFCURVE",
"226 655 CURVE SMOOTH",
"265 655 OFFCURVE",
"301 623 OFFCURVE",
"302 582 CURVE SMOOTH",
"304 500 LINE SMOOTH",
"309 322 OFFCURVE",
"41 294 OFFCURVE",
"41 71 CURVE SMOOTH",
"41 0 LINE",
"414 0 LINE",
"414 95 LINE",
"142 95 LINE",
"142 284 OFFCURVE",
"399 275 OFFCURVE",
"399 503 CURVE",
"398 582 LINE SMOOTH",
"397 672 OFFCURVE",
"320 750 OFFCURVE",
"226 750 CURVE SMOOTH",
"134 750 OFFCURVE",
"54 676 OFFCURVE",
"54 582 CURVE SMOOTH",
"54 520 LINE",
"150 520 LINE"
);
}
);
width = 456;
},
{
hints = (
{
horizontal = 1;
origin = "{0, 28}";
target = "{0, 2}";
},
{
horizontal = 1;
origin = "{0, 11}";
target = "{0, 20}";
}
);
layerId = "DDDB0B36-051A-43AE-9F30-611505482296";
paths = (
{
closed = 1;
nodes = (
"359 0 LINE",
"367 55 LINE",
"49 55 LINE",
"70 30 LINE",
"75 62 LINE SMOOTH",
"101 227 OFFCURVE",
"409 349 OFFCURVE",
"432 522 CURVE SMOOTH",
"440 581 LINE SMOOTH",
"455 691 OFFCURVE",
"396 766 OFFCURVE",
"291 766 CURVE SMOOTH",
"186 766 OFFCURVE",
"107 692 OFFCURVE",
"90 581 CURVE SMOOTH",
"87 561 LINE",
"142 561 LINE",
"145 581 LINE SMOOTH",
"157 659 OFFCURVE",
"212 711 OFFCURVE",
"283 711 CURVE SMOOTH",
"354 711 OFFCURVE",
"396 659 OFFCURVE",
"385 581 CURVE SMOOTH",
"377 522 LINE SMOOTH",
"355 361 OFFCURVE",
"46 261 OFFCURVE",
"15 42 CURVE SMOOTH",
"9 0 LINE"
);
}
);
width = 446;
}
);
note = two;
unicode = 0032;
},
{
glyphname = three;
lastChange = "2018-05-02 18:11:20 +0000";
layers = (
{
layerId = "60B18B06-8123-4D0C-85E3-2DE7B5C03586";
paths = (
{
closed = 1;
nodes = (
"285 -16 OFFCURVE",
"370 55 OFFCURVE",
"386 169 CURVE SMOOTH",
"400 269 LINE SMOOTH",
"409 331 OFFCURVE",
"392 381 OFFCURVE",
"359 414 CURVE",
"352 361 LINE",
"394 392 OFFCURVE",
"424 442 OFFCURVE",
"433 504 CURVE SMOOTH",
"444 581 LINE SMOOTH",
"460 692 OFFCURVE",
"397 766 OFFCURVE",
"284 766 CURVE SMOOTH",
"172 766 OFFCURVE",
"91 692 OFFCURVE",
"74 581 CURVE SMOOTH",
"68 541 LINE",
"203 541 LINE",
"209 581 LINE SMOOTH",
"214 614 OFFCURVE",
"237 631 OFFCURVE",
"266 631 CURVE SMOOTH",
"297 631 OFFCURVE",
"313 611 OFFCURVE",
"309 581 CURVE SMOOTH",
"298 504 LINE SMOOTH",
"294 474 OFFCURVE",
"272 454 OFFCURVE",
"241 454 CURVE SMOOTH",
"163 454 LINE",
"144 319 LINE",
"222 319 LINE SMOOTH",
"254 319 OFFCURVE",
"269 299 OFFCURVE",
"265 269 CURVE SMOOTH",
"251 169 LINE SMOOTH",
"247 139 OFFCURVE",
"225 119 OFFCURVE",
"194 119 CURVE SMOOTH",
"159 119 OFFCURVE",
"147 142 OFFCURVE",
"151 169 CURVE SMOOTH",
"157 209 LINE",
"22 209 LINE",
"16 169 LINE SMOOTH",
"-1 58 OFFCURVE",
"63 -16 OFFCURVE",
"175 -16 CURVE SMOOTH"
);
}
);
width = 457;
},
{
hints = (
{
horizontal = 1;
origin = "{0, 49}";
target = "{0, 40}";
},
{
horizontal = 1;
origin = "{0, 32}";
target = "{0, 31}";
},
{
horizontal = 1;
origin = "{0, 14}";
target = "{0, 23}";
}
);
layerId = "DDDB0B36-051A-43AE-9F30-611505482296";
paths = (
{
closed = 1;
nodes = (
"288 -16 OFFCURVE",
"367 58 OFFCURVE",
"383 169 CURVE SMOOTH",
"391 225 LINE SMOOTH",
"402 302 OFFCURVE",
"376 361 OFFCURVE",
"325 391 CURVE",
"322 375 LINE",
"383 404 OFFCURVE",
"423 464 OFFCURVE",
"435 540 CURVE SMOOTH",
"441 581 LINE SMOOTH",
"457 692 OFFCURVE",
"396 766 OFFCURVE",
"291 766 CURVE SMOOTH",
"186 766 OFFCURVE",
"108 692 OFFCURVE",
"91 581 CURVE SMOOTH",
"88 561 LINE",
"143 561 LINE",
"146 581 LINE SMOOTH",
"158 659 OFFCURVE",
"212 711 OFFCURVE",
"284 711 CURVE SMOOTH",
"356 711 OFFCURVE",
"397 659 OFFCURVE",
"386 581 CURVE SMOOTH",
"380 540 LINE SMOOTH",
"369 462 OFFCURVE",
"313 410 OFFCURVE",
"242 410 CURVE SMOOTH",
"190 410 LINE",
"182 355 LINE",
"234 355 LINE SMOOTH",
"306 355 OFFCURVE",
"347 303 OFFCURVE",
"336 225 CURVE SMOOTH",
"328 169 LINE SMOOTH",
"317 91 OFFCURVE",
"261 39 OFFCURVE",
"190 39 CURVE SMOOTH",
"119 39 OFFCURVE",
"76 91 OFFCURVE",
"88 169 CURVE SMOOTH",
"91 189 LINE",
"36 189 LINE",
"33 169 LINE SMOOTH",
"16 58 OFFCURVE",
"78 -16 OFFCURVE",
"182 -16 CURVE SMOOTH"
);
}
);
width = 467;
}
);
note = three;
unicode = 0033;
},
{
glyphname = four;
lastChange = "2018-05-02 18:11:20 +0000";
layers = (
{
layerId = "60B18B06-8123-4D0C-85E3-2DE7B5C03586";
paths = (
{
closed = 1;
nodes = (
"359 0 LINE",
"377 128 LINE",
"434 128 LINE",
"453 263 LINE",
"396 263 LINE",
"464 750 LINE",
"346 750 LINE",
"10 244 LINE",
"-6 128 LINE",
"242 128 LINE",
"224 0 LINE"
);
},
{
closed = 1;
nodes = (
"291 481 LINE",
"261 263 LINE",
"93 263 LINE",
"119 208 LINE"
);
}
);
width = 483;
},
{
hints = (
{
horizontal = 1;
origin = "{0, 10}";
target = up;
type = BottomGhost;
},
{
horizontal = 1;
origin = "{0, 8}";
target = "{0, 7}";
},
{
horizontal = 1;
origin = "{0, 6}";
target = down;
type = TopGhost;
}
);
layerId = "DDDB0B36-051A-43AE-9F30-611505482296";
paths = (
{
closed = 1;
nodes = (
"336 0 LINE",
"360 175 LINE",
"434 175 LINE",
"442 229 LINE",
"368 229 LINE",
"440 750 LINE",
"380 750 LINE",
"22 229 LINE",
"14 175 LINE",
"305 175 LINE",
"281 0 LINE"
);
},
{
closed = 1;
nodes = (
"373 661 LINE",
"313 229 LINE",
"54 229 LINE",
"63 207 LINE"
);
}
);
width = 476;
}
);
note = four;
unicode = 0034;
},
{
glyphname = five;
lastChange = "2018-05-02 18:11:20 +0000";
layers = (
{
layerId = "60B18B06-8123-4D0C-85E3-2DE7B5C03586";
paths = (
{
closed = 1;
nodes = (
"320 -16 OFFCURVE",
"402 58 OFFCURVE",
"418 169 CURVE SMOOTH",
"438 309 LINE SMOOTH",
"454 420 OFFCURVE",
"391 494 OFFCURVE",
"288 494 CURVE SMOOTH",
"246 494 OFFCURVE",
"217 478 OFFCURVE",
"197 453 CURVE",
"218 418 LINE",
"254 676 LINE",
"184 615 LINE",
"450 615 LINE",
"469 750 LINE",
"129 750 LINE",
"67 302 LINE",
"204 302 LINE",
"204 309 LINE SMOOTH",
"204 339 OFFCURVE",
"228 359 OFFCURVE",
"260 359 CURVE SMOOTH",
"291 359 OFFCURVE",
"307 339 OFFCURVE",
"303 309 CURVE SMOOTH",
"283 169 LINE SMOOTH",
"279 139 OFFCURVE",
"257 119 OFFCURVE",
"226 119 CURVE SMOOTH",
"192 119 OFFCURVE",
"179 141 OFFCURVE",
"183 169 CURVE SMOOTH",
"189 209 LINE",
"54 209 LINE",
"48 169 LINE SMOOTH",
"31 58 OFFCURVE",
"95 -16 OFFCURVE",
"207 -16 CURVE SMOOTH"
);
}
);
width = 473;
},
{
hints = (
{
horizontal = 1;
origin = "{0, 37}";
target = "{0, 28}";
},
{
horizontal = 1;
origin = "{0, 21}";
target = "{0, 6}";
},
{
horizontal = 1;
origin = "{0, 15}";
target = "{0, 12}";
}
);
layerId = "DDDB0B36-051A-43AE-9F30-611505482296";
paths = (
{
closed = 1;
nodes = (
"320 -16 OFFCURVE",
"399 58 OFFCURVE",
"415 169 CURVE SMOOTH",
"436 318 LINE SMOOTH",
"452 429 OFFCURVE",
"392 503 OFFCURVE",
"287 503 CURVE SMOOTH",
"230 503 OFFCURVE",
"180 477 OFFCURVE",
"148 431 CURVE",
"155 420 LINE",
"197 720 LINE",
"169 695 LINE",
"489 695 LINE",
"496 750 LINE",
"146 750 LINE",
"84 307 LINE",
"139 307 LINE",
"141 319 LINE SMOOTH",
"154 397 OFFCURVE",
"205 448 OFFCURVE",
"273 448 CURVE SMOOTH",
"350 448 OFFCURVE",
"392 396 OFFCURVE",
"381 318 CURVE SMOOTH",
"360 169 LINE SMOOTH",
"349 91 OFFCURVE",
"293 39 OFFCURVE",
"222 39 CURVE SMOOTH",
"151 39 OFFCURVE",
"108 91 OFFCURVE",
"120 169 CURVE SMOOTH",
"123 189 LINE",
"68 189 LINE",
"65 169 LINE SMOOTH",
"48 58 OFFCURVE",
"109 -16 OFFCURVE",
"214 -16 CURVE SMOOTH"
);
}
);
width = 489;
},
{
associatedMasterId = "DDDB0B36-051A-43AE-9F30-611505482296";
layerId = "2F00CE1A-B26B-4236-88BB-68A23E01396B";
name = "Apr 26 18, 16:09";
paths = (
{
closed = 1;
nodes = (
"361 -12 OFFCURVE",
"431 62 OFFCURVE",
"431 173 CURVE SMOOTH",
"431 225 LINE SMOOTH",
"431 336 OFFCURVE",
"361 410 OFFCURVE",
"256 410 CURVE SMOOTH",
"256 410 LINE",
"250 355 LINE",
"328 355 OFFCURVE",
"376 303 OFFCURVE",
"376 225 CURVE SMOOTH",
"376 173 LINE SMOOTH",
"376 95 OFFCURVE",
"328 43 OFFCURVE",
"256 43 CURVE SMOOTH",
"184 43 OFFCURVE",
"136 95 OFFCURVE",
"136 173 CURVE SMOOTH",
"136 193 LINE",
"81 193 LINE",
"81 173 LINE SMOOTH",
"81 62 OFFCURVE",
"151 -12 OFFCURVE",
"256 -12 CURVE SMOOTH"
);
},
{
closed = 1;
nodes = (
"256 410 LINE",
"161 410 OFFCURVE",
"103 337 OFFCURVE",
"103 226 CURVE SMOOTH",
"103 214 LINE",
"139 214 LINE",
"139 226 LINE SMOOTH",
"139 304 OFFCURVE",
"181 355 OFFCURVE",
"250 355 CURVE"
);
}
);
width = 600;
}
);
note = five;
unicode = 0035;
},
{
glyphname = six;
lastChange = "2018-05-02 18:11:20 +0000";
layers = (
{
layerId = "60B18B06-8123-4D0C-85E3-2DE7B5C03586";
paths = (
{
closed = 1;
nodes = (
"316 -16 OFFCURVE",
"398 58 OFFCURVE",
"414 169 CURVE SMOOTH",
"434 309 LINE SMOOTH",
"450 420 OFFCURVE",
"387 494 OFFCURVE",
"284 494 CURVE SMOOTH",
"242 494 OFFCURVE",
"213 478 OFFCURVE",
"193 453 CURVE",
"214 418 LINE",
"237 581 LINE SMOOTH",
"241 611 OFFCURVE",
"263 631 OFFCURVE",
"294 631 CURVE SMOOTH",
"323 631 OFFCURVE",
"342 613 OFFCURVE",
"337 581 CURVE SMOOTH",
"331 541 LINE",
"466 541 LINE",
"472 581 LINE SMOOTH",
"489 692 OFFCURVE",
"424 766 OFFCURVE",
"312 766 CURVE SMOOTH",
"200 766 OFFCURVE",
"118 692 OFFCURVE",
"102 581 CURVE SMOOTH",
"44 169 LINE SMOOTH",
"28 58 OFFCURVE",
"91 -16 OFFCURVE",
"203 -16 CURVE SMOOTH"
);
},
{
closed = 1;
nodes = (
"190 119 OFFCURVE",
"175 139 OFFCURVE",
"179 169 CURVE SMOOTH",
"199 309 LINE SMOOTH",
"203 339 OFFCURVE",
"225 359 OFFCURVE",
"256 359 CURVE SMOOTH",
"287 359 OFFCURVE",
"303 339 OFFCURVE",
"299 309 CURVE SMOOTH",
"279 169 LINE SMOOTH",
"275 139 OFFCURVE",
"253 119 OFFCURVE",
"222 119 CURVE SMOOTH"
);
}
);
width = 479;
},
{
hints = (
{
horizontal = 1;
origin = "{0, 30}";
target = "{1, 13}";
},
{
horizontal = 1;
origin = "{1, 6}";
target = "{0, 6}";
},
{
horizontal = 1;
origin = "{0, 23}";
target = "{0, 14}";
}
);
layerId = "DDDB0B36-051A-43AE-9F30-611505482296";
paths = (
{
closed = 1;
nodes = (
"319 -16 OFFCURVE",
"398 58 OFFCURVE",
"414 169 CURVE SMOOTH",
"435 318 LINE SMOOTH",
"451 429 OFFCURVE",
"390 503 OFFCURVE",
"286 503 CURVE SMOOTH",
"229 503 OFFCURVE",
"179 477 OFFCURVE",
"147 431 CURVE",
"154 420 LINE",
"177 581 LINE SMOOTH",
"188 659 OFFCURVE",
"244 711 OFFCURVE",
"315 711 CURVE SMOOTH",
"386 711 OFFCURVE",
"429 659 OFFCURVE",
"417 581 CURVE SMOOTH",
"414 561 LINE",
"469 561 LINE",
"472 581 LINE SMOOTH",
"489 692 OFFCURVE",
"426 766 OFFCURVE",
"322 766 CURVE SMOOTH",
"218 766 OFFCURVE",
"138 692 OFFCURVE",
"122 581 CURVE SMOOTH",
"64 169 LINE SMOOTH",
"48 58 OFFCURVE",
"109 -16 OFFCURVE",
"213 -16 CURVE SMOOTH"
);
},
{
closed = 1;
nodes = (
"148 39 OFFCURVE",
"108 91 OFFCURVE",
"119 169 CURVE SMOOTH",
"140 319 LINE SMOOTH",
"151 397 OFFCURVE",
"203 448 OFFCURVE",
"272 448 CURVE SMOOTH",
"349 448 OFFCURVE",
"391 396 OFFCURVE",
"380 318 CURVE SMOOTH",
"359 169 LINE SMOOTH",
"348 91 OFFCURVE",
"292 39 OFFCURVE",
"221 39 CURVE SMOOTH"
);
}
);
width = 497;
}
);
note = six;
unicode = 0036;
},
{
glyphname = seven;
lastChange = "2018-05-02 18:11:20 +0000";
layers = (
{
layerId = "60B18B06-8123-4D0C-85E3-2DE7B5C03586";
paths = (
{
closed = 1;
nodes = (
"156 0 LINE",
"425 624 LINE",
"443 750 LINE",
"78 750 LINE",
"59 615 LINE",
"352 615 LINE",
"317 673 LINE",
"16 0 LINE"
);
}
);
width = 393;
},
{
hints = (
{
horizontal = 1;
origin = "{0, 7}";
target = up;
type = BottomGhost;
},
{
horizontal = 1;
origin = "{0, 3}";
target = "{0, 4}";
}
);
layerId = "DDDB0B36-051A-43AE-9F30-611505482296";
paths = (
{
closed = 1;
nodes = (
"130 0 LINE",
"420 704 LINE",
"427 750 LINE",
"87 750 LINE",
"79 695 LINE",
"382 695 LINE",
"368 719 LINE",
"70 0 LINE"
);
}
);
width = 389;
}
);
note = seven;
unicode = 0037;
},
{
glyphname = eight;
lastChange = "2018-05-02 18:11:20 +0000";
layers = (
{
layerId = "60B18B06-8123-4D0C-85E3-2DE7B5C03586";
paths = (
{
closed = 1;
nodes = (
"312 -16 OFFCURVE",
"394 58 OFFCURVE",
"410 169 CURVE SMOOTH",
"424 266 LINE SMOOTH",
"433 328 OFFCURVE",
"416 378 OFFCURVE",
"383 411 CURVE",
"375 358 LINE",
"418 389 OFFCURVE",
"447 440 OFFCURVE",
"456 501 CURVE SMOOTH",
"467 581 LINE SMOOTH",
"482 692 OFFCURVE",
"421 766 OFFCURVE",
"308 766 CURVE SMOOTH",
"196 766 OFFCURVE",
"113 692 OFFCURVE",
"98 581 CURVE SMOOTH",
"87 501 LINE SMOOTH",
"79 442 OFFCURVE",
"92 391 OFFCURVE",
"127 358 CURVE",
"135 411 LINE",
"93 379 OFFCURVE",
"63 328 OFFCURVE",
"54 266 CURVE SMOOTH",
"40 169 LINE SMOOTH",
"24 58 OFFCURVE",
"87 -16 OFFCURVE",
"199 -16 CURVE SMOOTH"
);
},
{
closed = 1;
nodes = (
"186 119 OFFCURVE",
"171 139 OFFCURVE",
"175 169 CURVE SMOOTH",
"189 266 LINE SMOOTH",
"193 296 OFFCURVE",
"215 316 OFFCURVE",
"246 316 CURVE SMOOTH",
"277 316 OFFCURVE",
"293 296 OFFCURVE",
"289 266 CURVE SMOOTH",
"275 169 LINE SMOOTH",
"271 139 OFFCURVE",
"249 119 OFFCURVE",
"218 119 CURVE SMOOTH"
);
},
{
closed = 1;
nodes = (
"235 451 OFFCURVE",
"216 469 OFFCURVE",
"221 501 CURVE SMOOTH",
"233 581 LINE SMOOTH",
"238 614 OFFCURVE",
"261 631 OFFCURVE",
"290 631 CURVE SMOOTH",
"319 631 OFFCURVE",
"338 613 OFFCURVE",
"333 581 CURVE SMOOTH",
"321 501 LINE SMOOTH",
"316 468 OFFCURVE",
"293 451 OFFCURVE",
"264 451 CURVE SMOOTH"
);
}
);
width = 480;
},
{
hints = (
{
horizontal = 1;
origin = "{0, 29}";
target = "{1, 13}";
},
{
horizontal = 1;
origin = "{1, 6}";
target = "{2, 13}";
},
{
horizontal = 1;
origin = "{0, 14}";
target = "{2, 6}";
}
);
layerId = "DDDB0B36-051A-43AE-9F30-611505482296";
paths = (
{
closed = 1;
nodes = (
"311 -16 OFFCURVE",
"390 58 OFFCURVE",
"406 169 CURVE SMOOTH",
"414 225 LINE SMOOTH",
"425 302 OFFCURVE",
"399 361 OFFCURVE",
"348 391 CURVE",
"345 375 LINE",
"406 404 OFFCURVE",
"446 464 OFFCURVE",
"458 540 CURVE SMOOTH",
"464 581 LINE SMOOTH",
"480 692 OFFCURVE",
"419 766 OFFCURVE",
"314 766 CURVE SMOOTH",
"209 766 OFFCURVE",
"130 692 OFFCURVE",
"114 581 CURVE SMOOTH",
"108 540 LINE SMOOTH",
"97 462 OFFCURVE",
"122 404 OFFCURVE",
"175 375 CURVE",
"176 391 LINE",
"116 361 OFFCURVE",
"76 302 OFFCURVE",
"64 225 CURVE SMOOTH",
"56 169 LINE SMOOTH",
"40 58 OFFCURVE",
"101 -16 OFFCURVE",
"205 -16 CURVE SMOOTH"
);
},
{
closed = 1;
nodes = (
"141 39 OFFCURVE",
"100 91 OFFCURVE",
"111 169 CURVE SMOOTH",
"119 225 LINE SMOOTH",
"130 303 OFFCURVE",
"186 355 OFFCURVE",
"257 355 CURVE SMOOTH",
"329 355 OFFCURVE",
"370 303 OFFCURVE",
"359 225 CURVE SMOOTH",
"351 169 LINE SMOOTH",
"340 91 OFFCURVE",
"284 39 OFFCURVE",
"213 39 CURVE SMOOTH"
);
},
{
closed = 1;
nodes = (
"193 410 OFFCURVE",
"152 462 OFFCURVE",
"163 540 CURVE SMOOTH",
"169 581 LINE SMOOTH",
"180 659 OFFCURVE",
"235 711 OFFCURVE",
"307 711 CURVE SMOOTH",
"379 711 OFFCURVE",
"420 659 OFFCURVE",
"409 581 CURVE SMOOTH",
"403 540 LINE SMOOTH",
"392 462 OFFCURVE",
"336 410 OFFCURVE",
"265 410 CURVE SMOOTH"
);
}
);
width = 490;
}
);
note = eight;
unicode = 0038;
},
{
glyphname = nine;
lastChange = "2018-05-02 18:11:20 +0000";
layers = (
{
layerId = "60B18B06-8123-4D0C-85E3-2DE7B5C03586";
paths = (
{
closed = 1;
nodes = (
"308 -16 OFFCURVE",
"390 58 OFFCURVE",
"406 169 CURVE SMOOTH",
"464 581 LINE SMOOTH",
"480 692 OFFCURVE",
"416 766 OFFCURVE",
"304 766 CURVE SMOOTH",
"192 766 OFFCURVE",
"110 692 OFFCURVE",
"94 581 CURVE SMOOTH",
"74 441 LINE SMOOTH",
"58 330 OFFCURVE",
"121 256 OFFCURVE",
"223 256 CURVE SMOOTH",
"263 256 OFFCURVE",
"293 270 OFFCURVE",
"315 297 CURVE",
"294 332 LINE",
"271 169 LINE SMOOTH",
"267 139 OFFCURVE",
"245 119 OFFCURVE",
"214 119 CURVE SMOOTH",
"180 119 OFFCURVE",
"167 141 OFFCURVE",
"171 169 CURVE SMOOTH",
"177 209 LINE",
"42 209 LINE",
"36 169 LINE SMOOTH",
"19 58 OFFCURVE",
"83 -16 OFFCURVE",
"195 -16 CURVE SMOOTH"
);
},
{
closed = 1;
nodes = (
"220 391 OFFCURVE",
"205 411 OFFCURVE",
"209 441 CURVE SMOOTH",
"229 581 LINE SMOOTH",
"233 611 OFFCURVE",
"255 631 OFFCURVE",
"286 631 CURVE SMOOTH",
"318 631 OFFCURVE",
"333 611 OFFCURVE",
"329 581 CURVE SMOOTH",
"309 441 LINE SMOOTH",
"305 411 OFFCURVE",
"283 391 OFFCURVE",
"252 391 CURVE SMOOTH"
);
}
);
width = 480;
},
{
hints = (
{
horizontal = 1;
origin = "{0, 30}";
target = "{0, 21}";
},
{
horizontal = 1;
origin = "{0, 13}";
target = "{1, 13}";
},
{
horizontal = 1;
origin = "{0, 6}";
target = "{1, 6}";
}
);
layerId = "DDDB0B36-051A-43AE-9F30-611505482296";
paths = (
{
closed = 1;
nodes = (
"309 -16 OFFCURVE",
"389 58 OFFCURVE",
"405 169 CURVE SMOOTH",
"463 581 LINE SMOOTH",
"479 692 OFFCURVE",
"417 766 OFFCURVE",
"313 766 CURVE SMOOTH",
"209 766 OFFCURVE",
"129 692 OFFCURVE",
"113 581 CURVE SMOOTH",
"92 432 LINE SMOOTH",
"76 321 OFFCURVE",
"137 247 OFFCURVE",
"241 247 CURVE SMOOTH",
"300 247 OFFCURVE",
"349 275 OFFCURVE",
"380 319 CURVE",
"373 330 LINE",
"350 169 LINE SMOOTH",
"339 91 OFFCURVE",
"284 39 OFFCURVE",
"212 39 CURVE SMOOTH",
"141 39 OFFCURVE",
"98 91 OFFCURVE",
"110 169 CURVE SMOOTH",
"113 189 LINE",
"58 189 LINE",
"55 169 LINE SMOOTH",
"38 58 OFFCURVE",
"100 -16 OFFCURVE",
"204 -16 CURVE SMOOTH"
);
},
{
closed = 1;
nodes = (
"177 302 OFFCURVE",
"136 354 OFFCURVE",
"147 432 CURVE SMOOTH",
"168 581 LINE SMOOTH",
"179 659 OFFCURVE",
"234 711 OFFCURVE",
"306 711 CURVE SMOOTH",
"377 711 OFFCURVE",
"419 659 OFFCURVE",
"408 581 CURVE SMOOTH",
"387 431 LINE SMOOTH",
"376 353 OFFCURVE",
"323 302 OFFCURVE",
"255 302 CURVE SMOOTH"
);
}
);
width = 497;
}
);
note = nine;
unicode = 0039;
},
{
color = 9;
glyphname = zero.tf;
lastChange = "2018-05-02 18:11:20 +0000";
layers = (
{
layerId = "60B18B06-8123-4D0C-85E3-2DE7B5C03586";
paths = (
{
closed = 1;
nodes = (
"310 -16 OFFCURVE",
"391 58 OFFCURVE",
"407 169 CURVE SMOOTH",
"465 581 LINE SMOOTH",
"481 692 OFFCURVE",
"418 766 OFFCURVE",
"308 766 CURVE SMOOTH",
"198 766 OFFCURVE",
"116 692 OFFCURVE",
"100 581 CURVE SMOOTH",
"42 169 LINE SMOOTH",
"26 58 OFFCURVE",
"89 -16 OFFCURVE",
"199 -16 CURVE SMOOTH"
);
},
{
closed = 1;
nodes = (
"187 119 OFFCURVE",
"172 139 OFFCURVE",
"176 169 CURVE SMOOTH",
"234 581 LINE SMOOTH",
"238 611 OFFCURVE",
"259 631 OFFCURVE",
"290 631 CURVE SMOOTH",
"319 631 OFFCURVE",
"335 611 OFFCURVE",
"331 581 CURVE SMOOTH",
"273 169 LINE SMOOTH",
"269 139 OFFCURVE",
"247 119 OFFCURVE",
"218 119 CURVE SMOOTH"
);
},
{
closed = 1;
nodes = (
"112 119 LINE",
"187 119 LINE",
"396 631 LINE",
"321 631 LINE"
);
}
);
width = 480;
},
{
hints = (
{
horizontal = 1;
origin = "{0, 13}";
target = "{2, 0}";
},
{
horizontal = 1;
origin = "{0, 6}";
target = "{1, 6}";
}
);
layerId = "DDDB0B36-051A-43AE-9F30-611505482296";
paths = (
{
closed = 1;
nodes = (
"301 -16 OFFCURVE",
"380 58 OFFCURVE",
"396 169 CURVE SMOOTH",
"454 581 LINE SMOOTH",
"470 692 OFFCURVE",
"409 766 OFFCURVE",
"309 766 CURVE SMOOTH",
"208 766 OFFCURVE",
"130 692 OFFCURVE",
"114 581 CURVE SMOOTH",
"56 169 LINE SMOOTH",
"40 58 OFFCURVE",
"99 -16 OFFCURVE",
"200 -16 CURVE SMOOTH"
);
},
{
closed = 1;
nodes = (
"139 39 OFFCURVE",
"100 91 OFFCURVE",
"111 169 CURVE SMOOTH",
"169 581 LINE SMOOTH",
"180 659 OFFCURVE",
"233 711 OFFCURVE",
"302 711 CURVE SMOOTH",
"369 711 OFFCURVE",
"410 659 OFFCURVE",
"399 581 CURVE SMOOTH",
"341 169 LINE SMOOTH",
"330 91 OFFCURVE",
"275 39 OFFCURVE",
"208 39 CURVE SMOOTH"
);
},
{
closed = 1;
nodes = (
"100 39 LINE",
"139 39 LINE",
"410 711 LINE",
"371 711 LINE"
);
}
);
width = 480;
}
);
note = zero;
},
{
color = 9;
glyphname = one.tf;
lastChange = "2018-05-02 18:11:20 +0000";
layers = (
{
layerId = "60B18B06-8123-4D0C-85E3-2DE7B5C03586";
paths = (
{
closed = 1;
nodes = (
"415 0 LINE",
"434 135 LINE",
"288 135 LINE",
"374 750 LINE",
"239 750 LINE",
"237 739 LINE SMOOTH",
"229 693 OFFCURVE",
"190 664 OFFCURVE",
"129 664 CURVE SMOOTH",
"96 664 LINE",
"77 529 LINE",
"208 529 LINE",
"153 135 LINE",
"6 135 LINE",
"-13 0 LINE"
);
}
);
width = 480;
},
{
hints = (
{
horizontal = 1;
origin = "{0, 14}";
target = "{0, 13}";
},
{
horizontal = 1;
origin = "{0, 10}";
target = "{0, 9}";
}
);
layerId = "DDDB0B36-051A-43AE-9F30-611505482296";
paths = (
{
closed = 1;
nodes = (
"399 0 LINE",
"407 55 LINE",
"237 55 LINE",
"334 750 LINE",
"279 750 LINE",
"277 739 LINE SMOOTH",
"269 693 OFFCURVE",
"231 664 OFFCURVE",
"170 664 CURVE SMOOTH",
"157 664 LINE",
"149 609 LINE",
"259 609 LINE",
"182 55 LINE",
"12 55 LINE",
"4 0 LINE"
);
}
);
width = 480;
}
);
note = one;
},
{
color = 9;
glyphname = two.tf;
lastChange = "2018-05-02 18:11:20 +0000";
layers = (
{
layerId = "60B18B06-8123-4D0C-85E3-2DE7B5C03586";
paths = (
{
closed = 1;
nodes = (
"393 0 LINE",
"412 135 LINE",
"107 135 LINE",
"159 74 LINE",
"170 150 LINE SMOOTH",
"190 288 OFFCURVE",
"434 295 OFFCURVE",
"460 481 CURVE SMOOTH",
"474 581 LINE SMOOTH",
"490 696 OFFCURVE",
"419 766 OFFCURVE",
"307 766 CURVE SMOOTH",
"191 766 OFFCURVE",
"101 692 OFFCURVE",
"87 581 CURVE SMOOTH",
"82 541 LINE",
"217 541 LINE",
"222 581 LINE SMOOTH",
"226 611 OFFCURVE",
"253 631 OFFCURVE",
"288 631 CURVE SMOOTH",
"323 631 OFFCURVE",
"343 611 OFFCURVE",
"339 581 CURVE SMOOTH",
"325 481 LINE SMOOTH",
"309 365 OFFCURVE",
"56 365 OFFCURVE",
"23 125 CURVE SMOOTH",
"6 0 LINE"
);
}
);
width = 481;
},
{
associatedMasterId = "60B18B06-8123-4D0C-85E3-2DE7B5C03586";
layerId = "F92B29A1-039B-46AC-99A0-1FE44ADB51CB";
name = "Apr 25 18, 17:35";
paths = (
{
closed = 1;
nodes = (
"150 582 LINE SMOOTH",
"150 621 OFFCURVE",
"186 655 OFFCURVE",
"226 655 CURVE SMOOTH",
"265 655 OFFCURVE",
"301 623 OFFCURVE",
"302 582 CURVE SMOOTH",
"304 500 LINE SMOOTH",
"309 322 OFFCURVE",
"41 294 OFFCURVE",
"41 71 CURVE SMOOTH",
"41 0 LINE",
"414 0 LINE",
"414 95 LINE",
"142 95 LINE",
"142 284 OFFCURVE",
"399 275 OFFCURVE",
"399 503 CURVE",
"398 582 LINE SMOOTH",
"397 672 OFFCURVE",
"320 750 OFFCURVE",
"226 750 CURVE SMOOTH",
"134 750 OFFCURVE",
"54 676 OFFCURVE",
"54 582 CURVE SMOOTH",
"54 520 LINE",
"150 520 LINE"
);
}
);
width = 456;
},
{
hints = (
{
horizontal = 1;
origin = "{0, 28}";
target = "{0, 2}";
},
{
horizontal = 1;
origin = "{0, 11}";
target = "{0, 20}";
}
);
layerId = "DDDB0B36-051A-43AE-9F30-611505482296";
paths = (
{
closed = 1;
nodes = (
"383 0 LINE",
"391 55 LINE",
"59 55 LINE",
"80 30 LINE",
"85 62 LINE SMOOTH",
"111 227 OFFCURVE",
"433 349 OFFCURVE",
"456 522 CURVE SMOOTH",
"464 581 LINE SMOOTH",
"479 691 OFFCURVE",
"417 766 OFFCURVE",
"308 766 CURVE SMOOTH",
"199 766 OFFCURVE",
"117 692 OFFCURVE",
"100 581 CURVE SMOOTH",
"97 561 LINE",
"152 561 LINE",
"155 581 LINE SMOOTH",
"167 659 OFFCURVE",
"225 711 OFFCURVE",
"300 711 CURVE SMOOTH",
"375 711 OFFCURVE",
"420 659 OFFCURVE",
"409 581 CURVE SMOOTH",
"401 522 LINE SMOOTH",
"379 361 OFFCURVE",
"56 261 OFFCURVE",
"25 42 CURVE SMOOTH",
"19 0 LINE"
);
}
);
width = 481;
}
);
note = two;
},
{
color = 9;
glyphname = three.tf;
lastChange = "2018-05-02 18:11:20 +0000";
layers = (
{
layerId = "60B18B06-8123-4D0C-85E3-2DE7B5C03586";
paths = (
{
closed = 1;
nodes = (
"305 -16 OFFCURVE",
"389 61 OFFCURVE",
"404 169 CURVE SMOOTH",
"418 269 LINE SMOOTH",
"427 331 OFFCURVE",
"408 381 OFFCURVE",
"372 414 CURVE",
"365 361 LINE",
"410 392 OFFCURVE",
"442 442 OFFCURVE",
"451 504 CURVE SMOOTH",
"462 581 LINE SMOOTH",
"478 692 OFFCURVE",
"411 766 OFFCURVE",
"295 766 CURVE SMOOTH",
"178 766 OFFCURVE",
"95 692 OFFCURVE",
"78 581 CURVE SMOOTH",
"72 541 LINE",
"207 541 LINE",
"213 581 LINE SMOOTH",
"217 609 OFFCURVE",
"239 631 OFFCURVE",
"277 631 CURVE SMOOTH",
"311 631 OFFCURVE",
"331 611 OFFCURVE",
"327 581 CURVE SMOOTH",
"316 504 LINE SMOOTH",
"312 474 OFFCURVE",
"286 454 OFFCURVE",
"252 454 CURVE SMOOTH",
"172 454 LINE",
"153 319 LINE",
"233 319 LINE SMOOTH",
"268 319 OFFCURVE",
"287 299 OFFCURVE",
"283 269 CURVE SMOOTH",
"269 169 LINE SMOOTH",
"265 139 OFFCURVE",
"239 119 OFFCURVE",
"205 119 CURVE SMOOTH",
"166 119 OFFCURVE",
"151 142 OFFCURVE",
"155 169 CURVE SMOOTH",
"161 209 LINE",
"26 209 LINE",
"20 169 LINE SMOOTH",
"3 58 OFFCURVE",
"70 -16 OFFCURVE",
"186 -16 CURVE SMOOTH"
);
}
);
width = 480;
},
{
hints = (
{
horizontal = 1;
origin = "{0, 49}";
target = "{0, 40}";
},
{
horizontal = 1;
origin = "{0, 32}";
target = "{0, 31}";
},
{
horizontal = 1;
origin = "{0, 14}";
target = "{0, 23}";
}
);
layerId = "DDDB0B36-051A-43AE-9F30-611505482296";
paths = (
{
closed = 1;
nodes = (
"295 -16 OFFCURVE",
"376 58 OFFCURVE",
"392 169 CURVE SMOOTH",
"400 225 LINE SMOOTH",
"411 301 OFFCURVE",
"386 362 OFFCURVE",
"333 391 CURVE",
"329 375 LINE",
"392 404 OFFCURVE",
"432 465 OFFCURVE",
"444 540 CURVE SMOOTH",
"450 581 LINE SMOOTH",
"466 692 OFFCURVE",
"404 766 OFFCURVE",
"298 766 CURVE SMOOTH",
"193 766 OFFCURVE",
"112 692 OFFCURVE",
"95 581 CURVE SMOOTH",
"92 561 LINE",
"147 561 LINE",
"150 581 LINE SMOOTH",
"162 659 OFFCURVE",
"218 711 OFFCURVE",
"291 711 CURVE SMOOTH",
"364 711 OFFCURVE",
"406 659 OFFCURVE",
"395 581 CURVE SMOOTH",
"389 540 LINE SMOOTH",
"378 462 OFFCURVE",
"321 410 OFFCURVE",
"249 410 CURVE SMOOTH",
"196 410 LINE",
"188 355 LINE",
"241 355 LINE SMOOTH",
"314 355 OFFCURVE",
"356 303 OFFCURVE",
"345 225 CURVE SMOOTH",
"337 169 LINE SMOOTH",
"326 91 OFFCURVE",
"269 39 OFFCURVE",
"197 39 CURVE SMOOTH",
"125 39 OFFCURVE",
"80 91 OFFCURVE",
"92 169 CURVE SMOOTH",
"95 189 LINE",
"40 189 LINE",
"37 169 LINE SMOOTH",
"20 58 OFFCURVE",
"84 -16 OFFCURVE",
"189 -16 CURVE SMOOTH"
);
}
);
width = 480;
}
);
note = three;
},
{
color = 9;
glyphname = four.tf;
lastChange = "2018-05-02 18:11:20 +0000";
layers = (
{
layerId = "60B18B06-8123-4D0C-85E3-2DE7B5C03586";
paths = (
{
closed = 1;
nodes = (
"358 0 LINE",
"376 128 LINE",
"433 128 LINE",
"452 263 LINE",
"395 263 LINE",
"463 750 LINE",
"345 750 LINE",
"10 244 LINE",
"-6 128 LINE",
"241 128 LINE",
"223 0 LINE"
);
},
{
closed = 1;
nodes = (
"290 481 LINE",
"260 263 LINE",
"93 263 LINE",
"119 208 LINE"
);
}
);
width = 481;
},
{
hints = (
{
horizontal = 1;
origin = "{0, 10}";
target = up;
type = BottomGhost;
},
{
horizontal = 1;
origin = "{0, 8}";
target = "{0, 7}";
},
{
horizontal = 1;
origin = "{0, 6}";
target = down;
type = TopGhost;
}
);
layerId = "DDDB0B36-051A-43AE-9F30-611505482296";
paths = (
{
closed = 1;
nodes = (
"340 0 LINE",
"364 175 LINE",
"438 175 LINE",
"446 229 LINE",
"372 229 LINE",
"444 750 LINE",
"383 750 LINE",
"24 229 LINE",
"16 175 LINE",
"309 175 LINE",
"285 0 LINE"
);
},
{
closed = 1;
nodes = (
"377 661 LINE",
"317 229 LINE",
"56 229 LINE",
"65 207 LINE"
);
}
);
width = 481;
}
);
note = four;
},
{
color = 9;
glyphname = five.tf;
lastChange = "2018-05-02 18:11:20 +0000";
layers = (
{
layerId = "60B18B06-8123-4D0C-85E3-2DE7B5C03586";
paths = (
{
closed = 1;
nodes = (
"325 -16 OFFCURVE",
"409 58 OFFCURVE",
"425 169 CURVE SMOOTH",
"445 309 LINE SMOOTH",
"461 420 OFFCURVE",
"396 494 OFFCURVE",
"292 494 CURVE SMOOTH",
"250 494 OFFCURVE",
"219 478 OFFCURVE",
"199 453 CURVE",
"220 418 LINE",
"256 676 LINE",
"186 615 LINE",
"457 615 LINE",
"476 750 LINE",
"131 750 LINE",
"69 302 LINE",
"206 302 LINE",
"206 309 LINE SMOOTH",
"206 339 OFFCURVE",
"231 359 OFFCURVE",
"264 359 CURVE SMOOTH",
"296 359 OFFCURVE",
"314 339 OFFCURVE",
"310 309 CURVE SMOOTH",
"290 169 LINE SMOOTH",
"286 139 OFFCURVE",
"262 119 OFFCURVE",
"230 119 CURVE SMOOTH",
"195 119 OFFCURVE",
"181 141 OFFCURVE",
"185 169 CURVE SMOOTH",
"191 209 LINE",
"56 209 LINE",
"50 169 LINE SMOOTH",
"33 58 OFFCURVE",
"97 -16 OFFCURVE",
"211 -16 CURVE SMOOTH"
);
}
);
width = 481;
},
{
hints = (
{
horizontal = 1;
origin = "{0, 37}";
target = "{0, 28}";
},
{
horizontal = 1;
origin = "{0, 21}";
target = "{0, 6}";
},
{
horizontal = 1;
origin = "{0, 15}";
target = "{0, 12}";
}
);
layerId = "DDDB0B36-051A-43AE-9F30-611505482296";
paths = (
{
closed = 1;
nodes = (
"313 -16 OFFCURVE",
"392 58 OFFCURVE",
"408 169 CURVE SMOOTH",
"429 318 LINE SMOOTH",
"445 429 OFFCURVE",
"385 503 OFFCURVE",
"282 503 CURVE SMOOTH",
"226 503 OFFCURVE",
"177 477 OFFCURVE",
"145 431 CURVE",
"152 420 LINE",
"194 720 LINE",
"166 695 LINE",
"482 695 LINE",
"489 750 LINE",
"143 750 LINE",
"81 307 LINE",
"136 307 LINE",
"138 319 LINE SMOOTH",
"151 397 OFFCURVE",
"202 448 OFFCURVE",
"268 448 CURVE SMOOTH",
"344 448 OFFCURVE",
"385 396 OFFCURVE",
"374 318 CURVE SMOOTH",
"353 169 LINE SMOOTH",
"342 91 OFFCURVE",
"287 39 OFFCURVE",
"217 39 CURVE SMOOTH",
"148 39 OFFCURVE",
"105 91 OFFCURVE",
"117 169 CURVE SMOOTH",
"120 189 LINE",
"65 189 LINE",
"62 169 LINE SMOOTH",
"45 58 OFFCURVE",
"107 -16 OFFCURVE",
"209 -16 CURVE SMOOTH"
);
}
);
width = 480;
},
{
associatedMasterId = "DDDB0B36-051A-43AE-9F30-611505482296";
layerId = "2F00CE1A-B26B-4236-88BB-68A23E01396B";
name = "Apr 26 18, 16:09";
paths = (
{
closed = 1;
nodes = (
"361 -12 OFFCURVE",
"431 62 OFFCURVE",
"431 173 CURVE SMOOTH",
"431 225 LINE SMOOTH",
"431 336 OFFCURVE",
"361 410 OFFCURVE",
"256 410 CURVE SMOOTH",
"256 410 LINE",
"250 355 LINE",
"328 355 OFFCURVE",
"376 303 OFFCURVE",
"376 225 CURVE SMOOTH",
"376 173 LINE SMOOTH",
"376 95 OFFCURVE",
"328 43 OFFCURVE",
"256 43 CURVE SMOOTH",
"184 43 OFFCURVE",
"136 95 OFFCURVE",
"136 173 CURVE SMOOTH",
"136 193 LINE",
"81 193 LINE",
"81 173 LINE SMOOTH",
"81 62 OFFCURVE",
"151 -12 OFFCURVE",
"256 -12 CURVE SMOOTH"
);
},
{
closed = 1;
nodes = (
"256 410 LINE",
"161 410 OFFCURVE",
"103 337 OFFCURVE",
"103 226 CURVE SMOOTH",
"103 214 LINE",
"139 214 LINE",
"139 226 LINE SMOOTH",
"139 304 OFFCURVE",
"181 355 OFFCURVE",
"250 355 CURVE"
);
}
);
width = 600;
}
);
note = five;
},
{
color = 9;
glyphname = six.tf;
lastChange = "2018-05-02 18:11:20 +0000";
layers = (
{
layerId = "60B18B06-8123-4D0C-85E3-2DE7B5C03586";
paths = (
{
closed = 1;
nodes = (
"316 -16 OFFCURVE",
"399 58 OFFCURVE",
"415 169 CURVE SMOOTH",
"435 309 LINE SMOOTH",
"451 420 OFFCURVE",
"387 494 OFFCURVE",
"284 494 CURVE SMOOTH",
"249 494 OFFCURVE",
"216 482 OFFCURVE",
"193 453 CURVE",
"214 418 LINE",
"237 581 LINE SMOOTH",
"241 611 OFFCURVE",
"264 631 OFFCURVE",
"294 631 CURVE SMOOTH",
"322 631 OFFCURVE",
"343 614 OFFCURVE",
"338 581 CURVE SMOOTH",
"332 541 LINE",
"467 541 LINE",
"473 581 LINE SMOOTH",
"490 692 OFFCURVE",
"424 766 OFFCURVE",
"312 766 CURVE SMOOTH",
"201 766 OFFCURVE",
"118 692 OFFCURVE",
"102 581 CURVE SMOOTH",
"44 169 LINE SMOOTH",
"28 58 OFFCURVE",
"91 -16 OFFCURVE",
"203 -16 CURVE SMOOTH"
);
},
{
closed = 1;
nodes = (
"191 119 OFFCURVE",
"175 139 OFFCURVE",
"179 169 CURVE SMOOTH",
"199 309 LINE SMOOTH",
"203 339 OFFCURVE",
"226 359 OFFCURVE",
"256 359 CURVE SMOOTH",
"287 359 OFFCURVE",
"304 339 OFFCURVE",
"300 309 CURVE SMOOTH",
"280 169 LINE SMOOTH",
"276 139 OFFCURVE",
"253 119 OFFCURVE",
"222 119 CURVE SMOOTH"
);
}
);
width = 480;
},
{
hints = (
{
horizontal = 1;
origin = "{0, 30}";
target = "{1, 13}";
},
{
horizontal = 1;
origin = "{1, 6}";
target = "{0, 6}";
},
{
horizontal = 1;
origin = "{0, 23}";
target = "{0, 14}";
}
);
layerId = "DDDB0B36-051A-43AE-9F30-611505482296";
paths = (
{
closed = 1;
nodes = (
"307 -16 OFFCURVE",
"386 58 OFFCURVE",
"402 169 CURVE SMOOTH",
"423 318 LINE SMOOTH",
"439 429 OFFCURVE",
"379 503 OFFCURVE",
"278 503 CURVE SMOOTH",
"222 503 OFFCURVE",
"173 477 OFFCURVE",
"142 431 CURVE",
"149 420 LINE",
"172 581 LINE SMOOTH",
"183 659 OFFCURVE",
"237 711 OFFCURVE",
"307 711 CURVE SMOOTH",
"375 711 OFFCURVE",
"417 659 OFFCURVE",
"405 581 CURVE SMOOTH",
"402 561 LINE",
"457 561 LINE",
"460 581 LINE SMOOTH",
"477 692 OFFCURVE",
"415 766 OFFCURVE",
"314 766 CURVE SMOOTH",
"212 766 OFFCURVE",
"133 692 OFFCURVE",
"117 581 CURVE SMOOTH",
"59 169 LINE SMOOTH",
"43 58 OFFCURVE",
"103 -16 OFFCURVE",
"205 -16 CURVE SMOOTH"
);
},
{
closed = 1;
nodes = (
"142 39 OFFCURVE",
"103 91 OFFCURVE",
"114 169 CURVE SMOOTH",
"135 319 LINE SMOOTH",
"146 397 OFFCURVE",
"197 448 OFFCURVE",
"264 448 CURVE SMOOTH",
"338 448 OFFCURVE",
"379 396 OFFCURVE",
"368 318 CURVE SMOOTH",
"347 169 LINE SMOOTH",
"336 91 OFFCURVE",
"281 39 OFFCURVE",
"213 39 CURVE SMOOTH"
);
}
);
width = 480;
}
);
note = six;
},
{
color = 9;
glyphname = seven.tf;
lastChange = "2018-05-02 18:11:20 +0000";
layers = (
{
layerId = "60B18B06-8123-4D0C-85E3-2DE7B5C03586";
paths = (
{
closed = 1;
nodes = (
"192 0 LINE",
"493 624 LINE",
"511 750 LINE",
"94 750 LINE",
"75 615 LINE",
"418 615 LINE",
"385 672 LINE",
"51 0 LINE"
);
}
);
width = 480;
},
{
hints = (
{
horizontal = 1;
origin = "{0, 7}";
target = up;
type = BottomGhost;
},
{
horizontal = 1;
origin = "{0, 3}";
target = "{0, 4}";
}
);
layerId = "DDDB0B36-051A-43AE-9F30-611505482296";
paths = (
{
closed = 1;
nodes = (
"171 0 LINE",
"484 704 LINE",
"491 750 LINE",
"114 750 LINE",
"106 695 LINE",
"444 695 LINE",
"429 719 LINE",
"111 0 LINE"
);
}
);
width = 481;
}
);
note = seven;
},
{
color = 9;
glyphname = eight.tf;
lastChange = "2018-05-02 18:11:20 +0000";
layers = (
{
layerId = "60B18B06-8123-4D0C-85E3-2DE7B5C03586";
paths = (
{
closed = 1;
nodes = (
"312 -16 OFFCURVE",
"394 58 OFFCURVE",
"410 169 CURVE SMOOTH",
"424 266 LINE SMOOTH",
"433 328 OFFCURVE",
"416 378 OFFCURVE",
"383 411 CURVE",
"375 358 LINE",
"418 389 OFFCURVE",
"447 440 OFFCURVE",
"456 501 CURVE SMOOTH",
"467 581 LINE SMOOTH",
"482 692 OFFCURVE",
"421 766 OFFCURVE",
"308 766 CURVE SMOOTH",
"196 766 OFFCURVE",
"113 692 OFFCURVE",
"98 581 CURVE SMOOTH",
"87 501 LINE SMOOTH",
"79 442 OFFCURVE",
"92 391 OFFCURVE",
"127 358 CURVE",
"135 411 LINE",
"93 379 OFFCURVE",
"63 328 OFFCURVE",
"54 266 CURVE SMOOTH",
"40 169 LINE SMOOTH",
"24 58 OFFCURVE",
"87 -16 OFFCURVE",
"199 -16 CURVE SMOOTH"
);
},
{
closed = 1;
nodes = (
"186 119 OFFCURVE",
"171 139 OFFCURVE",
"175 169 CURVE SMOOTH",
"189 266 LINE SMOOTH",
"193 296 OFFCURVE",
"215 316 OFFCURVE",
"246 316 CURVE SMOOTH",
"277 316 OFFCURVE",
"293 296 OFFCURVE",
"289 266 CURVE SMOOTH",
"275 169 LINE SMOOTH",
"271 139 OFFCURVE",
"249 119 OFFCURVE",
"218 119 CURVE SMOOTH"
);
},
{
closed = 1;
nodes = (
"235 451 OFFCURVE",
"216 469 OFFCURVE",
"221 501 CURVE SMOOTH",
"233 581 LINE SMOOTH",
"238 614 OFFCURVE",
"261 631 OFFCURVE",
"290 631 CURVE SMOOTH",
"319 631 OFFCURVE",
"338 613 OFFCURVE",
"333 581 CURVE SMOOTH",
"321 501 LINE SMOOTH",
"316 468 OFFCURVE",
"293 451 OFFCURVE",
"264 451 CURVE SMOOTH"
);
}
);
width = 480;
},
{
hints = (
{
horizontal = 1;
origin = "{0, 29}";
target = "{1, 13}";
},
{
horizontal = 1;
origin = "{1, 6}";
target = "{2, 13}";
},
{
horizontal = 1;
origin = "{0, 14}";
target = "{2, 6}";
}
);
layerId = "DDDB0B36-051A-43AE-9F30-611505482296";
paths = (
{
closed = 1;
nodes = (
"303 -16 OFFCURVE",
"383 58 OFFCURVE",
"399 169 CURVE SMOOTH",
"407 225 LINE SMOOTH",
"418 300 OFFCURVE",
"394 360 OFFCURVE",
"342 391 CURVE",
"339 375 LINE",
"396 402 OFFCURVE",
"439 460 OFFCURVE",
"451 540 CURVE SMOOTH",
"457 581 LINE SMOOTH",
"473 692 OFFCURVE",
"412 766 OFFCURVE",
"309 766 CURVE SMOOTH",
"207 766 OFFCURVE",
"127 692 OFFCURVE",
"111 581 CURVE SMOOTH",
"105 540 LINE SMOOTH",
"93 459 OFFCURVE",
"122 402 OFFCURVE",
"171 375 CURVE",
"172 391 LINE",
"113 361 OFFCURVE",
"73 303 OFFCURVE",
"61 225 CURVE SMOOTH",
"53 169 LINE SMOOTH",
"37 58 OFFCURVE",
"98 -16 OFFCURVE",
"200 -16 CURVE SMOOTH"
);
},
{
closed = 1;
nodes = (
"138 39 OFFCURVE",
"97 91 OFFCURVE",
"108 169 CURVE SMOOTH",
"116 225 LINE SMOOTH",
"127 303 OFFCURVE",
"183 355 OFFCURVE",
"252 355 CURVE SMOOTH",
"322 355 OFFCURVE",
"363 303 OFFCURVE",
"352 225 CURVE SMOOTH",
"344 169 LINE SMOOTH",
"333 91 OFFCURVE",
"277 39 OFFCURVE",
"208 39 CURVE SMOOTH"
);
},
{
closed = 1;
nodes = (
"190 410 OFFCURVE",
"149 462 OFFCURVE",
"160 540 CURVE SMOOTH",
"166 581 LINE SMOOTH",
"177 659 OFFCURVE",
"233 711 OFFCURVE",
"302 711 CURVE SMOOTH",
"372 711 OFFCURVE",
"413 659 OFFCURVE",
"402 581 CURVE SMOOTH",
"396 540 LINE SMOOTH",
"385 462 OFFCURVE",
"329 410 OFFCURVE",
"260 410 CURVE SMOOTH"
);
}
);
width = 480;
}
);
note = eight;
},
{
color = 9;
glyphname = nine.tf;
lastChange = "2018-05-02 18:11:20 +0000";
layers = (
{
layerId = "60B18B06-8123-4D0C-85E3-2DE7B5C03586";
paths = (
{
closed = 1;
nodes = (
"308 -16 OFFCURVE",
"390 58 OFFCURVE",
"406 169 CURVE SMOOTH",
"464 581 LINE SMOOTH",
"480 692 OFFCURVE",
"416 766 OFFCURVE",
"304 766 CURVE SMOOTH",
"192 766 OFFCURVE",
"110 692 OFFCURVE",
"94 581 CURVE SMOOTH",
"74 441 LINE SMOOTH",
"58 330 OFFCURVE",
"121 256 OFFCURVE",
"223 256 CURVE SMOOTH",
"263 256 OFFCURVE",
"293 270 OFFCURVE",
"315 297 CURVE",
"294 332 LINE",
"271 169 LINE SMOOTH",
"267 139 OFFCURVE",
"245 119 OFFCURVE",
"214 119 CURVE SMOOTH",
"180 119 OFFCURVE",
"167 141 OFFCURVE",
"171 169 CURVE SMOOTH",
"177 209 LINE",
"42 209 LINE",
"36 169 LINE SMOOTH",
"19 58 OFFCURVE",
"83 -16 OFFCURVE",
"195 -16 CURVE SMOOTH"
);
},
{
closed = 1;
nodes = (
"220 391 OFFCURVE",
"205 411 OFFCURVE",
"209 441 CURVE SMOOTH",
"229 581 LINE SMOOTH",
"233 611 OFFCURVE",
"255 631 OFFCURVE",
"286 631 CURVE SMOOTH",
"318 631 OFFCURVE",
"333 611 OFFCURVE",
"329 581 CURVE SMOOTH",
"309 441 LINE SMOOTH",
"305 411 OFFCURVE",
"283 391 OFFCURVE",
"252 391 CURVE SMOOTH"
);
}
);
width = 480;
},
{
hints = (
{
horizontal = 1;
origin = "{0, 30}";
target = "{0, 21}";
},
{
horizontal = 1;
origin = "{0, 13}";
target = "{1, 13}";
},
{
horizontal = 1;
origin = "{0, 6}";
target = "{1, 6}";
}
);
layerId = "DDDB0B36-051A-43AE-9F30-611505482296";
paths = (
{
closed = 1;
nodes = (
"298 -16 OFFCURVE",
"377 58 OFFCURVE",
"393 169 CURVE SMOOTH",
"451 581 LINE SMOOTH",
"467 692 OFFCURVE",
"406 766 OFFCURVE",
"305 766 CURVE SMOOTH",
"203 766 OFFCURVE",
"124 692 OFFCURVE",
"108 581 CURVE SMOOTH",
"87 432 LINE SMOOTH",
"71 321 OFFCURVE",
"131 247 OFFCURVE",
"232 247 CURVE SMOOTH",
"289 247 OFFCURVE",
"338 275 OFFCURVE",
"368 319 CURVE",
"361 330 LINE",
"338 169 LINE SMOOTH",
"327 91 OFFCURVE",
"272 39 OFFCURVE",
"204 39 CURVE SMOOTH",
"134 39 OFFCURVE",
"93 91 OFFCURVE",
"105 169 CURVE SMOOTH",
"108 189 LINE",
"53 189 LINE",
"50 169 LINE SMOOTH",
"33 58 OFFCURVE",
"94 -16 OFFCURVE",
"196 -16 CURVE SMOOTH"
);
},
{
closed = 1;
nodes = (
"171 302 OFFCURVE",
"131 354 OFFCURVE",
"142 432 CURVE SMOOTH",
"163 581 LINE SMOOTH",
"174 659 OFFCURVE",
"228 711 OFFCURVE",
"298 711 CURVE SMOOTH",
"366 711 OFFCURVE",
"407 659 OFFCURVE",
"396 581 CURVE SMOOTH",
"375 431 LINE SMOOTH",
"364 353 OFFCURVE",
"312 302 OFFCURVE",
"246 302 CURVE SMOOTH"
);
}
);
width = 480;
}
);
note = nine;
},
{
glyphname = twoinferior;
lastChange = "2018-05-03 06:43:05 +0000";
layers = (
{
components = (
{
name = two.dnom;
transform = "{1, 0, 0, 1, -4, -30}";
}
);
layerId = "60B18B06-8123-4D0C-85E3-2DE7B5C03586";
width = 302;
},
{
associatedMasterId = "60B18B06-8123-4D0C-85E3-2DE7B5C03586";
layerId = "F92B29A1-039B-46AC-99A0-1FE44ADB51CB";
name = "Apr 25 18, 17:35";
paths = (
{
closed = 1;
nodes = (
"150 582 LINE SMOOTH",
"150 621 OFFCURVE",
"186 655 OFFCURVE",
"226 655 CURVE SMOOTH",
"265 655 OFFCURVE",
"301 623 OFFCURVE",
"302 582 CURVE SMOOTH",
"304 500 LINE SMOOTH",
"309 322 OFFCURVE",
"41 294 OFFCURVE",
"41 71 CURVE SMOOTH",
"41 0 LINE",
"414 0 LINE",
"414 95 LINE",
"142 95 LINE",
"142 284 OFFCURVE",
"399 275 OFFCURVE",
"399 503 CURVE",
"398 582 LINE SMOOTH",
"397 672 OFFCURVE",
"320 750 OFFCURVE",
"226 750 CURVE SMOOTH",
"134 750 OFFCURVE",
"54 676 OFFCURVE",
"54 582 CURVE SMOOTH",
"54 520 LINE",
"150 520 LINE"
);
}
);
width = 456;
},
{
components = (
{
name = two.dnom;
transform = "{1, 0, 0, 1, -4, -30}";
}
);
layerId = "DDDB0B36-051A-43AE-9F30-611505482296";
width = 272;
}
);
note = two;
unicode = 2082;
},
{
glyphname = fiveinferior;
lastChange = "2018-05-03 06:43:05 +0000";
layers = (
{
components = (
{
name = five.dnom;
transform = "{1, 0, 0, 1, -4, -30}";
}
);
layerId = "60B18B06-8123-4D0C-85E3-2DE7B5C03586";
width = 316;
},
{
components = (
{
name = five.dnom;
transform = "{1, 0, 0, 1, -4, -30}";
}
);
layerId = "DDDB0B36-051A-43AE-9F30-611505482296";
width = 305;
},
{
associatedMasterId = "DDDB0B36-051A-43AE-9F30-611505482296";
layerId = "2F00CE1A-B26B-4236-88BB-68A23E01396B";
name = "Apr 26 18, 16:09";
paths = (
{
closed = 1;
nodes = (
"361 -12 OFFCURVE",
"431 62 OFFCURVE",
"431 173 CURVE SMOOTH",
"431 225 LINE SMOOTH",
"431 336 OFFCURVE",
"361 410 OFFCURVE",
"256 410 CURVE SMOOTH",
"256 410 LINE",
"250 355 LINE",
"328 355 OFFCURVE",
"376 303 OFFCURVE",
"376 225 CURVE SMOOTH",
"376 173 LINE SMOOTH",
"376 95 OFFCURVE",
"328 43 OFFCURVE",
"256 43 CURVE SMOOTH",
"184 43 OFFCURVE",
"136 95 OFFCURVE",
"136 173 CURVE SMOOTH",
"136 193 LINE",
"81 193 LINE",
"81 173 LINE SMOOTH",
"81 62 OFFCURVE",
"151 -12 OFFCURVE",
"256 -12 CURVE SMOOTH"
);
},
{
closed = 1;
nodes = (
"256 410 LINE",
"161 410 OFFCURVE",
"103 337 OFFCURVE",
"103 226 CURVE SMOOTH",
"103 214 LINE",
"139 214 LINE",
"139 226 LINE SMOOTH",
"139 304 OFFCURVE",
"181 355 OFFCURVE",
"250 355 CURVE"
);
}
);
width = 600;
}
);
note = five;
unicode = 2085;
},
{
glyphname = zero.dnom;
lastChange = "2018-05-02 18:11:20 +0000";
layers = (
{
layerId = "60B18B06-8123-4D0C-85E3-2DE7B5C03586";
paths = (
{
closed = 1;
nodes = (
"190 -10 OFFCURVE",
"241 35 OFFCURVE",
"250 101 CURVE SMOOTH",
"285 349 LINE SMOOTH",
"294 415 OFFCURVE",
"256 460 OFFCURVE",
"189 460 CURVE SMOOTH",
"121 460 OFFCURVE",
"71 415 OFFCURVE",
"62 349 CURVE SMOOTH",
"27 101 LINE SMOOTH",
"18 35 OFFCURVE",
"56 -10 OFFCURVE",
"123 -10 CURVE SMOOTH"
);
},
{
closed = 1;
nodes = (
"119 75 OFFCURVE",
"110 86 OFFCURVE",
"112 101 CURVE SMOOTH",
"147 349 LINE SMOOTH",
"149 364 OFFCURVE",
"161 375 OFFCURVE",
"177 375 CURVE SMOOTH",
"193 375 OFFCURVE",
"202 364 OFFCURVE",
"200 349 CURVE SMOOTH",
"165 101 LINE SMOOTH",
"163 86 OFFCURVE",
"151 75 OFFCURVE",
"135 75 CURVE SMOOTH"
);
},
{
closed = 1;
nodes = (
"71 75 LINE",
"117 75 LINE",
"241 375 LINE",
"194 375 LINE"
);
}
);
width = 326;
},
{
hints = (
{
horizontal = 1;
origin = "{0, 13}";
target = "{2, 0}";
},
{
horizontal = 1;
origin = "{1, 6}";
target = "{0, 6}";
}
);
layerId = "DDDB0B36-051A-43AE-9F30-611505482296";
paths = (
{
closed = 1;
nodes = (
"181 -10 OFFCURVE",
"231 35 OFFCURVE",
"240 101 CURVE SMOOTH",
"275 349 LINE SMOOTH",
"284 415 OFFCURVE",
"247 460 OFFCURVE",
"184 460 CURVE SMOOTH",
"121 460 OFFCURVE",
"71 415 OFFCURVE",
"62 349 CURVE SMOOTH",
"27 101 LINE SMOOTH",
"18 35 OFFCURVE",
"55 -10 OFFCURVE",
"118 -10 CURVE SMOOTH"
);
},
{
closed = 1;
nodes = (
"90 35 OFFCURVE",
"66 60 OFFCURVE",
"72 101 CURVE SMOOTH",
"107 349 LINE SMOOTH",
"113 391 OFFCURVE",
"144 415 OFFCURVE",
"178 415 CURVE SMOOTH",
"216 415 OFFCURVE",
"235 386 OFFCURVE",
"230 349 CURVE SMOOTH",
"195 101 LINE SMOOTH",
"189 60 OFFCURVE",
"159 35 OFFCURVE",
"125 35 CURVE SMOOTH"
);
},
{
closed = 1;
nodes = (
"54 35 LINE",
"87 35 LINE",
"249 415 LINE",
"215 415 LINE"
);
}
);
width = 315;
}
);
note = zero;
},
{
glyphname = one.dnom;
lastChange = "2018-05-02 18:11:20 +0000";
layers = (
{
layerId = "60B18B06-8123-4D0C-85E3-2DE7B5C03586";
paths = (
{
closed = 1;
nodes = (
"129 0 LINE",
"192 450 LINE",
"105 450 LINE",
"105 443 LINE SMOOTH",
"105 415 OFFCURVE",
"80 398 OFFCURVE",
"50 398 CURVE SMOOTH",
"29 398 LINE",
"17 313 LINE",
"88 313 LINE",
"44 0 LINE"
);
}
);
width = 228;
},
{
hints = (
{
horizontal = 1;
origin = "{0, 10}";
target = up;
type = BottomGhost;
},
{
horizontal = 1;
origin = "{0, 8}";
target = "{0, 7}";
}
);
layerId = "DDDB0B36-051A-43AE-9F30-611505482296";
paths = (
{
closed = 1;
nodes = (
"81 0 LINE",
"144 450 LINE",
"99 450 LINE",
"98 443 LINE SMOOTH",
"94 415 OFFCURVE",
"72 398 OFFCURVE",
"41 398 CURVE SMOOTH",
"30 398 LINE",
"24 353 LINE",
"85 353 LINE",
"36 0 LINE"
);
}
);
width = 179;
}
);
note = one;
},
{
glyphname = two.dnom;
lastChange = "2018-05-02 18:11:20 +0000";
layers = (
{
layerId = "60B18B06-8123-4D0C-85E3-2DE7B5C03586";
paths = (
{
closed = 1;
nodes = (
"222 0 LINE",
"234 85 LINE",
"101 85 LINE",
"102 94 LINE SMOOTH",
"111 176 OFFCURVE",
"246 174 OFFCURVE",
"262 287 CURVE SMOOTH",
"271 349 LINE SMOOTH",
"281 415 OFFCURVE",
"241 460 OFFCURVE",
"174 460 CURVE SMOOTH",
"106 460 OFFCURVE",
"58 413 OFFCURVE",
"48 349 CURVE SMOOTH",
"44 324 LINE",
"129 324 LINE",
"133 349 LINE SMOOTH",
"135 364 OFFCURVE",
"148 375 OFFCURVE",
"162 375 CURVE SMOOTH",
"179 375 OFFCURVE",
"188 364 OFFCURVE",
"186 349 CURVE SMOOTH",
"177 287 LINE SMOOTH",
"167 219 OFFCURVE",
"30 224 OFFCURVE",
"10 79 CURVE SMOOTH",
"-1 0 LINE"
);
}
);
width = 302;
},
{
associatedMasterId = "60B18B06-8123-4D0C-85E3-2DE7B5C03586";
layerId = "F92B29A1-039B-46AC-99A0-1FE44ADB51CB";
name = "Apr 25 18, 17:35";
paths = (
{
closed = 1;
nodes = (
"150 582 LINE SMOOTH",
"150 621 OFFCURVE",
"186 655 OFFCURVE",
"226 655 CURVE SMOOTH",
"265 655 OFFCURVE",
"301 623 OFFCURVE",
"302 582 CURVE SMOOTH",
"304 500 LINE SMOOTH",
"309 322 OFFCURVE",
"41 294 OFFCURVE",
"41 71 CURVE SMOOTH",
"41 0 LINE",
"414 0 LINE",
"414 95 LINE",
"142 95 LINE",
"142 284 OFFCURVE",
"399 275 OFFCURVE",
"399 503 CURVE",
"398 582 LINE SMOOTH",
"397 672 OFFCURVE",
"320 750 OFFCURVE",
"226 750 CURVE SMOOTH",
"134 750 OFFCURVE",
"54 676 OFFCURVE",
"54 582 CURVE SMOOTH",
"54 520 LINE",
"150 520 LINE"
);
}
);
width = 456;
},
{
hints = (
{
horizontal = 1;
origin = "{0, 27}";
target = "{0, 2}";
},
{
horizontal = 1;
origin = "{0, 19}";
target = "{0, 10}";
}
);
layerId = "DDDB0B36-051A-43AE-9F30-611505482296";
paths = (
{
closed = 1;
nodes = (
"203 0 LINE",
"209 45 LINE",
"43 45 LINE",
"44 50 LINE SMOOTH",
"63 144 OFFCURVE",
"231 201 OFFCURVE",
"246 307 CURVE SMOOTH",
"252 349 LINE SMOOTH",
"261 415 OFFCURVE",
"224 460 OFFCURVE",
"160 460 CURVE SMOOTH",
"98 460 OFFCURVE",
"48 415 OFFCURVE",
"39 349 CURVE SMOOTH",
"37 334 LINE",
"82 334 LINE",
"84 349 LINE SMOOTH",
"89 388 OFFCURVE",
"119 415 OFFCURVE",
"154 415 CURVE SMOOTH",
"190 415 OFFCURVE",
"213 388 OFFCURVE",
"207 349 CURVE SMOOTH",
"201 307 LINE SMOOTH",
"188 217 OFFCURVE",
"13 172 OFFCURVE",
"-5 38 CURVE SMOOTH",
"-10 0 LINE"
);
}
);
width = 272;
}
);
note = two;
},
{
glyphname = three.dnom;
lastChange = "2018-05-02 18:11:20 +0000";
layers = (
{
layerId = "60B18B06-8123-4D0C-85E3-2DE7B5C03586";
paths = (
{
closed = 1;
nodes = (
"170 -10 OFFCURVE",
"222 35 OFFCURVE",
"231 101 CURVE SMOOTH",
"240 164 LINE SMOOTH",
"244 190 OFFCURVE",
"239 214 OFFCURVE",
"229 232 CURVE",
"245 250 OFFCURVE",
"254 272 OFFCURVE",
"259 301 CURVE SMOOTH",
"266 349 LINE SMOOTH",
"276 415 OFFCURVE",
"236 460 OFFCURVE",
"170 460 CURVE SMOOTH",
"101 460 OFFCURVE",
"53 413 OFFCURVE",
"43 349 CURVE SMOOTH",
"39 324 LINE",
"124 324 LINE",
"128 349 LINE SMOOTH",
"130 364 OFFCURVE",
"142 375 OFFCURVE",
"158 375 CURVE SMOOTH",
"174 375 OFFCURVE",
"183 364 OFFCURVE",
"181 349 CURVE SMOOTH",
"174 301 LINE SMOOTH",
"172 285 OFFCURVE",
"159 275 OFFCURVE",
"144 275 CURVE SMOOTH",
"95 275 LINE",
"83 190 LINE",
"132 190 LINE SMOOTH",
"148 190 OFFCURVE",
"157 179 OFFCURVE",
"155 164 CURVE SMOOTH",
"146 101 LINE SMOOTH",
"144 86 OFFCURVE",
"132 75 OFFCURVE",
"116 75 CURVE SMOOTH",
"100 75 OFFCURVE",
"91 86 OFFCURVE",
"93 101 CURVE SMOOTH",
"96 126 LINE",
"11 126 LINE",
"8 101 LINE SMOOTH",
"0 35 OFFCURVE",
"37 -10 OFFCURVE",
"104 -10 CURVE SMOOTH"
);
}
);
width = 305;
},
{
hints = (
{
horizontal = 1;
origin = "{0, 48}";
target = "{0, 39}";
},
{
horizontal = 1;
origin = "{0, 31}";
target = "{0, 30}";
},
{
horizontal = 1;
origin = "{0, 22}";
target = "{0, 13}";
}
);
layerId = "DDDB0B36-051A-43AE-9F30-611505482296";
paths = (
{
closed = 1;
nodes = (
"158 -10 OFFCURVE",
"207 35 OFFCURVE",
"217 101 CURVE SMOOTH",
"223 142 LINE SMOOTH",
"229 184 OFFCURVE",
"215 212 OFFCURVE",
"195 230 CURVE",
"224 249 OFFCURVE",
"242 282 OFFCURVE",
"247 319 CURVE SMOOTH",
"251 349 LINE SMOOTH",
"260 415 OFFCURVE",
"224 460 OFFCURVE",
"161 460 CURVE SMOOTH",
"97 460 OFFCURVE",
"48 415 OFFCURVE",
"39 349 CURVE SMOOTH",
"37 334 LINE",
"82 334 LINE",
"84 349 LINE SMOOTH",
"89 388 OFFCURVE",
"119 415 OFFCURVE",
"155 415 CURVE SMOOTH",
"191 415 OFFCURVE",
"212 388 OFFCURVE",
"207 349 CURVE SMOOTH",
"203 319 LINE SMOOTH",
"198 279 OFFCURVE",
"167 253 OFFCURVE",
"132 253 CURVE SMOOTH",
"96 253 LINE",
"90 208 LINE",
"126 208 LINE SMOOTH",
"161 208 OFFCURVE",
"184 181 OFFCURVE",
"178 142 CURVE SMOOTH",
"172 101 LINE SMOOTH",
"166 62 OFFCURVE",
"138 35 OFFCURVE",
"102 35 CURVE SMOOTH",
"65 35 OFFCURVE",
"44 62 OFFCURVE",
"49 101 CURVE SMOOTH",
"51 116 LINE",
"6 116 LINE",
"4 101 LINE SMOOTH",
"-5 35 OFFCURVE",
"32 -10 OFFCURVE",
"95 -10 CURVE SMOOTH"
);
}
);
width = 288;
}
);
note = three;
},
{
glyphname = four.dnom;
lastChange = "2018-05-02 18:11:20 +0000";
layers = (
{
layerId = "60B18B06-8123-4D0C-85E3-2DE7B5C03586";
paths = (
{
closed = 1;
nodes = (
"207 0 LINE",
"217 74 LINE",
"250 74 LINE",
"262 160 LINE",
"229 160 LINE",
"270 450 LINE",
"196 450 LINE",
"-5 147 LINE",
"-15 74 LINE",
"132 74 LINE",
"122 0 LINE"
);
},
{
closed = 1;
nodes = (
"161 280 LINE",
"144 160 LINE",
"86 160 LINE"
);
}
);
width = 313;
},
{
hints = (
{
horizontal = 1;
origin = "{0, 10}";
target = "{1, 2}";
},
{
horizontal = 1;
origin = "{1, 2}";
target = "{0, 8}";
}
);
layerId = "DDDB0B36-051A-43AE-9F30-611505482296";
paths = (
{
closed = 1;
nodes = (
"182 0 LINE",
"196 98 LINE",
"238 98 LINE",
"244 143 LINE",
"202 143 LINE",
"245 450 LINE",
"200 450 LINE",
"-11 140 LINE",
"-17 98 LINE",
"151 98 LINE",
"137 0 LINE"
);
},
{
closed = 1;
nodes = (
"189 370 LINE",
"157 143 LINE",
"36 143 LINE"
);
}
);
width = 287;
}
);
note = four;
},
{
glyphname = five.dnom;
lastChange = "2018-05-02 18:11:20 +0000";
layers = (
{
layerId = "60B18B06-8123-4D0C-85E3-2DE7B5C03586";
paths = (
{
closed = 1;
nodes = (
"191 -10 OFFCURVE",
"243 35 OFFCURVE",
"252 101 CURVE SMOOTH",
"264 185 LINE SMOOTH",
"273 251 OFFCURVE",
"236 296 OFFCURVE",
"174 296 CURVE SMOOTH",
"164 296 OFFCURVE",
"150 294 OFFCURVE",
"140 289 CURVE",
"151 365 LINE",
"270 365 LINE",
"282 450 LINE",
"78 450 LINE",
"40 181 LINE",
"126 181 LINE",
"126 185 LINE SMOOTH",
"126 200 OFFCURVE",
"139 211 OFFCURVE",
"156 211 CURVE SMOOTH",
"173 211 OFFCURVE",
"181 200 OFFCURVE",
"179 185 CURVE SMOOTH",
"167 101 LINE SMOOTH",
"165 86 OFFCURVE",
"153 75 OFFCURVE",
"137 75 CURVE SMOOTH",
"121 75 OFFCURVE",
"112 86 OFFCURVE",
"114 101 CURVE SMOOTH",
"117 126 LINE",
"32 126 LINE",
"29 101 LINE SMOOTH",
"21 35 OFFCURVE",
"58 -10 OFFCURVE",
"125 -10 CURVE SMOOTH"
);
}
);
width = 316;
},
{
hints = (
{
horizontal = 1;
origin = "{0, 35}";
target = "{0, 26}";
},
{
horizontal = 1;
origin = "{0, 19}";
target = "{0, 6}";
},
{
horizontal = 1;
origin = "{0, 10}";
target = "{0, 13}";
}
);
layerId = "DDDB0B36-051A-43AE-9F30-611505482296";
paths = (
{
closed = 1;
nodes = (
"183 -10 OFFCURVE",
"233 35 OFFCURVE",
"242 101 CURVE SMOOTH",
"254 189 LINE SMOOTH",
"263 256 OFFCURVE",
"227 300 OFFCURVE",
"165 300 CURVE SMOOTH",
"139 300 OFFCURVE",
"116 291 OFFCURVE",
"98 272 CURVE",
"117 405 LINE",
"281 405 LINE",
"287 450 LINE",
"78 450 LINE",
"40 183 LINE",
"85 183 LINE",
"86 190 LINE SMOOTH",
"92 229 OFFCURVE",
"118 255 OFFCURVE",
"155 255 CURVE SMOOTH",
"192 255 OFFCURVE",
"215 230 OFFCURVE",
"209 189 CURVE SMOOTH",
"197 101 LINE SMOOTH",
"192 62 OFFCURVE",
"162 35 OFFCURVE",
"127 35 CURVE SMOOTH",
"90 35 OFFCURVE",
"69 62 OFFCURVE",
"74 101 CURVE SMOOTH",
"76 116 LINE",
"31 116 LINE",
"29 101 LINE SMOOTH",
"20 35 OFFCURVE",
"57 -10 OFFCURVE",
"120 -10 CURVE SMOOTH"
);
}
);
width = 305;
},
{
associatedMasterId = "DDDB0B36-051A-43AE-9F30-611505482296";
layerId = "2F00CE1A-B26B-4236-88BB-68A23E01396B";
name = "Apr 26 18, 16:09";
paths = (
{
closed = 1;
nodes = (
"361 -12 OFFCURVE",
"431 62 OFFCURVE",
"431 173 CURVE SMOOTH",
"431 225 LINE SMOOTH",
"431 336 OFFCURVE",
"361 410 OFFCURVE",
"256 410 CURVE SMOOTH",
"256 410 LINE",
"250 355 LINE",
"328 355 OFFCURVE",
"376 303 OFFCURVE",
"376 225 CURVE SMOOTH",
"376 173 LINE SMOOTH",
"376 95 OFFCURVE",
"328 43 OFFCURVE",
"256 43 CURVE SMOOTH",
"184 43 OFFCURVE",
"136 95 OFFCURVE",
"136 173 CURVE SMOOTH",
"136 193 LINE",
"81 193 LINE",
"81 173 LINE SMOOTH",
"81 62 OFFCURVE",
"151 -12 OFFCURVE",
"256 -12 CURVE SMOOTH"
);
},
{
closed = 1;
nodes = (
"256 410 LINE",
"161 410 OFFCURVE",
"103 337 OFFCURVE",
"103 226 CURVE SMOOTH",
"103 214 LINE",
"139 214 LINE",
"139 226 LINE SMOOTH",
"139 304 OFFCURVE",
"181 355 OFFCURVE",
"250 355 CURVE"
);
}
);
width = 600;
}
);
note = five;
},
{
glyphname = six.dnom;
lastChange = "2018-05-02 18:11:20 +0000";
layers = (
{
layerId = "60B18B06-8123-4D0C-85E3-2DE7B5C03586";
paths = (
{
closed = 1;
nodes = (
"189 -10 OFFCURVE",
"241 35 OFFCURVE",
"250 101 CURVE SMOOTH",
"262 185 LINE SMOOTH",
"271 251 OFFCURVE",
"234 296 OFFCURVE",
"172 296 CURVE SMOOTH",
"162 296 OFFCURVE",
"148 294 OFFCURVE",
"138 289 CURVE",
"147 349 LINE SMOOTH",
"149 364 OFFCURVE",
"161 375 OFFCURVE",
"177 375 CURVE SMOOTH",
"193 375 OFFCURVE",
"202 364 OFFCURVE",
"200 349 CURVE SMOOTH",
"196 324 LINE",
"281 324 LINE",
"285 349 LINE SMOOTH",
"295 412 OFFCURVE",
"259 460 OFFCURVE",
"189 460 CURVE SMOOTH",
"121 460 OFFCURVE",
"71 415 OFFCURVE",
"62 349 CURVE SMOOTH",
"27 101 LINE SMOOTH",
"18 35 OFFCURVE",
"56 -10 OFFCURVE",
"123 -10 CURVE SMOOTH"
);
},
{
closed = 1;
nodes = (
"119 75 OFFCURVE",
"110 86 OFFCURVE",
"112 101 CURVE SMOOTH",
"124 185 LINE SMOOTH",
"126 200 OFFCURVE",
"137 211 OFFCURVE",
"154 211 CURVE SMOOTH",
"171 211 OFFCURVE",
"179 200 OFFCURVE",
"177 185 CURVE SMOOTH",
"165 101 LINE SMOOTH",
"163 86 OFFCURVE",
"151 75 OFFCURVE",
"135 75 CURVE SMOOTH"
);
}
);
width = 321;
},
{
hints = (
{
horizontal = 1;
origin = "{0, 29}";
target = "{1, 13}";
},
{
horizontal = 1;
origin = "{1, 6}";
target = "{0, 6}";
},
{
horizontal = 1;
origin = "{0, 13}";
target = "{0, 22}";
}
);
layerId = "DDDB0B36-051A-43AE-9F30-611505482296";
paths = (
{
closed = 1;
nodes = (
"181 -10 OFFCURVE",
"231 35 OFFCURVE",
"240 101 CURVE SMOOTH",
"252 189 LINE SMOOTH",
"261 256 OFFCURVE",
"225 300 OFFCURVE",
"163 300 CURVE SMOOTH",
"137 300 OFFCURVE",
"114 291 OFFCURVE",
"96 272 CURVE",
"107 349 LINE SMOOTH",
"113 388 OFFCURVE",
"141 415 OFFCURVE",
"178 415 CURVE SMOOTH",
"214 415 OFFCURVE",
"235 388 OFFCURVE",
"230 349 CURVE SMOOTH",
"228 334 LINE",
"273 334 LINE",
"275 349 LINE SMOOTH",
"284 415 OFFCURVE",
"246 460 OFFCURVE",
"184 460 CURVE SMOOTH",
"121 460 OFFCURVE",
"71 415 OFFCURVE",
"62 349 CURVE SMOOTH",
"27 101 LINE SMOOTH",
"18 35 OFFCURVE",
"55 -10 OFFCURVE",
"118 -10 CURVE SMOOTH"
);
},
{
closed = 1;
nodes = (
"88 35 OFFCURVE",
"67 62 OFFCURVE",
"72 101 CURVE SMOOTH",
"84 190 LINE SMOOTH",
"89 229 OFFCURVE",
"117 255 OFFCURVE",
"153 255 CURVE SMOOTH",
"190 255 OFFCURVE",
"213 230 OFFCURVE",
"207 189 CURVE SMOOTH",
"195 101 LINE SMOOTH",
"190 62 OFFCURVE",
"160 35 OFFCURVE",
"125 35 CURVE SMOOTH"
);
}
);
width = 309;
}
);
note = six;
},
{
glyphname = seven.dnom;
lastChange = "2018-05-02 18:11:20 +0000";
layers = (
{
layerId = "60B18B06-8123-4D0C-85E3-2DE7B5C03586";
paths = (
{
closed = 1;
nodes = (
"87 0 LINE",
"247 370 LINE",
"258 450 LINE",
"38 450 LINE",
"26 365 LINE",
"163 365 LINE",
"-1 0 LINE"
);
}
);
width = 252;
},
{
hints = (
{
horizontal = 1;
origin = "{0, 6}";
target = up;
type = BottomGhost;
},
{
horizontal = 1;
origin = "{0, 4}";
target = "{0, 3}";
}
);
layerId = "DDDB0B36-051A-43AE-9F30-611505482296";
paths = (
{
closed = 1;
nodes = (
"55 0 LINE",
"226 410 LINE",
"232 450 LINE",
"24 450 LINE",
"18 405 LINE",
"178 405 LINE",
"7 0 LINE"
);
}
);
width = 219;
}
);
note = seven;
},
{
glyphname = eight.dnom;
lastChange = "2018-05-02 18:11:20 +0000";
layers = (
{
layerId = "60B18B06-8123-4D0C-85E3-2DE7B5C03586";
paths = (
{
closed = 1;
nodes = (
"188 -10 OFFCURVE",
"238 35 OFFCURVE",
"248 101 CURVE SMOOTH",
"257 162 LINE SMOOTH",
"261 188 OFFCURVE",
"256 212 OFFCURVE",
"246 230 CURVE",
"262 249 OFFCURVE",
"272 273 OFFCURVE",
"276 299 CURVE SMOOTH",
"283 349 LINE SMOOTH",
"292 415 OFFCURVE",
"254 460 OFFCURVE",
"187 460 CURVE SMOOTH",
"120 460 OFFCURVE",
"69 415 OFFCURVE",
"60 349 CURVE SMOOTH",
"53 299 LINE SMOOTH",
"49 272 OFFCURVE",
"53 248 OFFCURVE",
"63 230 CURVE",
"47 211 OFFCURVE",
"38 188 OFFCURVE",
"34 162 CURVE SMOOTH",
"25 101 LINE SMOOTH",
"15 35 OFFCURVE",
"54 -10 OFFCURVE",
"121 -10 CURVE SMOOTH"
);
},
{
closed = 1;
nodes = (
"117 75 OFFCURVE",
"108 86 OFFCURVE",
"110 101 CURVE SMOOTH",
"119 162 LINE SMOOTH",
"121 177 OFFCURVE",
"133 188 OFFCURVE",
"149 188 CURVE SMOOTH",
"165 188 OFFCURVE",
"174 177 OFFCURVE",
"172 162 CURVE SMOOTH",
"163 101 LINE SMOOTH",
"161 86 OFFCURVE",
"149 75 OFFCURVE",
"133 75 CURVE SMOOTH"
);
},
{
closed = 1;
nodes = (
"144 273 OFFCURVE",
"136 283 OFFCURVE",
"138 299 CURVE SMOOTH",
"145 349 LINE SMOOTH",
"147 364 OFFCURVE",
"159 375 OFFCURVE",
"175 375 CURVE SMOOTH",
"191 375 OFFCURVE",
"200 364 OFFCURVE",
"198 349 CURVE SMOOTH",
"191 299 LINE SMOOTH",
"189 283 OFFCURVE",
"176 273 OFFCURVE",
"161 273 CURVE SMOOTH"
);
}
);
width = 322;
},
{
hints = (
{
horizontal = 1;
origin = "{0, 27}";
target = "{1, 13}";
},
{
horizontal = 1;
origin = "{1, 6}";
target = "{2, 13}";
},
{
horizontal = 1;
origin = "{2, 6}";
target = "{0, 13}";
}
);
layerId = "DDDB0B36-051A-43AE-9F30-611505482296";
paths = (
{
closed = 1;
nodes = (
"178 -10 OFFCURVE",
"227 35 OFFCURVE",
"237 101 CURVE SMOOTH",
"243 141 LINE SMOOTH",
"249 182 OFFCURVE",
"236 211 OFFCURVE",
"215 230 CURVE",
"244 249 OFFCURVE",
"261 282 OFFCURVE",
"267 318 CURVE SMOOTH",
"272 349 LINE SMOOTH",
"283 418 OFFCURVE",
"241 460 OFFCURVE",
"181 460 CURVE SMOOTH",
"115 460 OFFCURVE",
"69 412 OFFCURVE",
"59 349 CURVE SMOOTH",
"54 318 LINE SMOOTH",
"48 279 OFFCURVE",
"59 249 OFFCURVE",
"82 230 CURVE",
"55 212 OFFCURVE",
"36 180 OFFCURVE",
"30 141 CURVE SMOOTH",
"24 101 LINE SMOOTH",
"14 35 OFFCURVE",
"52 -10 OFFCURVE",
"115 -10 CURVE SMOOTH"
);
},
{
closed = 1;
nodes = (
"86 35 OFFCURVE",
"63 62 OFFCURVE",
"69 101 CURVE SMOOTH",
"75 141 LINE SMOOTH",
"81 181 OFFCURVE",
"109 207 OFFCURVE",
"146 207 CURVE SMOOTH",
"181 207 OFFCURVE",
"204 181 OFFCURVE",
"198 141 CURVE SMOOTH",
"192 101 LINE SMOOTH",
"186 62 OFFCURVE",
"158 35 OFFCURVE",
"122 35 CURVE SMOOTH"
);
},
{
closed = 1;
nodes = (
"114 252 OFFCURVE",
"93 279 OFFCURVE",
"99 318 CURVE SMOOTH",
"104 349 LINE SMOOTH",
"110 388 OFFCURVE",
"139 415 OFFCURVE",
"175 415 CURVE SMOOTH",
"211 415 OFFCURVE",
"233 388 OFFCURVE",
"227 349 CURVE SMOOTH",
"222 318 LINE SMOOTH",
"216 279 OFFCURVE",
"188 252 OFFCURVE",
"152 252 CURVE SMOOTH"
);
}
);
width = 308;
}
);
note = eight;
},
{
glyphname = nine.dnom;
lastChange = "2018-05-02 18:11:20 +0000";
layers = (
{
layerId = "60B18B06-8123-4D0C-85E3-2DE7B5C03586";
paths = (
{
closed = 1;
nodes = (
"185 -10 OFFCURVE",
"236 35 OFFCURVE",
"245 101 CURVE SMOOTH",
"280 349 LINE SMOOTH",
"289 415 OFFCURVE",
"251 460 OFFCURVE",
"184 460 CURVE SMOOTH",
"117 460 OFFCURVE",
"66 415 OFFCURVE",
"57 349 CURVE SMOOTH",
"45 265 LINE SMOOTH",
"36 199 OFFCURVE",
"72 154 OFFCURVE",
"134 154 CURVE SMOOTH",
"144 154 OFFCURVE",
"159 156 OFFCURVE",
"168 161 CURVE",
"160 101 LINE SMOOTH",
"158 86 OFFCURVE",
"146 75 OFFCURVE",
"130 75 CURVE SMOOTH",
"114 75 OFFCURVE",
"105 86 OFFCURVE",
"107 101 CURVE SMOOTH",
"110 126 LINE",
"25 126 LINE",
"22 101 LINE SMOOTH",
"14 35 OFFCURVE",
"51 -10 OFFCURVE",
"118 -10 CURVE SMOOTH"
);
},
{
closed = 1;
nodes = (
"136 239 OFFCURVE",
"128 250 OFFCURVE",
"130 265 CURVE SMOOTH",
"142 349 LINE SMOOTH",
"144 364 OFFCURVE",
"155 375 OFFCURVE",
"172 375 CURVE SMOOTH",
"188 375 OFFCURVE",
"197 364 OFFCURVE",
"195 349 CURVE SMOOTH",
"183 265 LINE SMOOTH",
"181 250 OFFCURVE",
"170 239 OFFCURVE",
"152 239 CURVE SMOOTH"
);
}
);
width = 321;
},
{
hints = (
{
horizontal = 1;
origin = "{0, 29}";
target = "{0, 20}";
},
{
horizontal = 1;
origin = "{0, 13}";
target = "{1, 13}";
},
{
horizontal = 1;
origin = "{1, 6}";
target = "{0, 6}";
}
);
layerId = "DDDB0B36-051A-43AE-9F30-611505482296";
paths = (
{
closed = 1;
nodes = (
"176 -10 OFFCURVE",
"226 35 OFFCURVE",
"235 101 CURVE SMOOTH",
"270 349 LINE SMOOTH",
"279 415 OFFCURVE",
"242 460 OFFCURVE",
"179 460 CURVE SMOOTH",
"115 460 OFFCURVE",
"67 415 OFFCURVE",
"57 349 CURVE SMOOTH",
"44 261 LINE SMOOTH",
"34 194 OFFCURVE",
"73 150 OFFCURVE",
"134 150 CURVE SMOOTH",
"159 150 OFFCURVE",
"183 159 OFFCURVE",
"201 178 CURVE",
"190 101 LINE SMOOTH",
"184 62 OFFCURVE",
"156 35 OFFCURVE",
"120 35 CURVE SMOOTH",
"83 35 OFFCURVE",
"62 62 OFFCURVE",
"67 101 CURVE SMOOTH",
"69 116 LINE",
"24 116 LINE",
"22 101 LINE SMOOTH",
"13 35 OFFCURVE",
"50 -10 OFFCURVE",
"113 -10 CURVE SMOOTH"
);
},
{
closed = 1;
nodes = (
"106 195 OFFCURVE",
"83 221 OFFCURVE",
"89 261 CURVE SMOOTH",
"102 349 LINE SMOOTH",
"108 388 OFFCURVE",
"136 415 OFFCURVE",
"173 415 CURVE SMOOTH",
"209 415 OFFCURVE",
"231 388 OFFCURVE",
"225 349 CURVE SMOOTH",
"212 260 LINE SMOOTH",
"206 221 OFFCURVE",
"180 195 OFFCURVE",
"144 195 CURVE SMOOTH"
);
}
);
width = 310;
}
);
note = nine;
},
{
glyphname = zero.numr;
lastChange = "2018-05-02 18:11:20 +0000";
layers = (
{
layerId = "60B18B06-8123-4D0C-85E3-2DE7B5C03586";
paths = (
{
closed = 1;
nodes = (
"232 290 OFFCURVE",
"283 335 OFFCURVE",
"292 401 CURVE SMOOTH",
"327 649 LINE SMOOTH",
"336 715 OFFCURVE",
"298 760 OFFCURVE",
"231 760 CURVE SMOOTH",
"164 760 OFFCURVE",
"113 715 OFFCURVE",
"104 649 CURVE SMOOTH",
"69 401 LINE SMOOTH",
"60 335 OFFCURVE",
"98 290 OFFCURVE",
"165 290 CURVE SMOOTH"
);
},
{
closed = 1;
nodes = (
"161 375 OFFCURVE",
"152 386 OFFCURVE",
"154 401 CURVE SMOOTH",
"189 649 LINE SMOOTH",
"191 664 OFFCURVE",
"203 675 OFFCURVE",
"219 675 CURVE SMOOTH",
"235 675 OFFCURVE",
"244 664 OFFCURVE",
"242 649 CURVE SMOOTH",
"207 401 LINE SMOOTH",
"205 386 OFFCURVE",
"193 375 OFFCURVE",
"177 375 CURVE SMOOTH"
);
},
{
closed = 1;
nodes = (
"113 375 LINE",
"159 375 LINE",
"283 675 LINE",
"236 675 LINE"
);
}
);
width = 325;
},
{
hints = (
{
horizontal = 1;
origin = "{0, 13}";
target = "{2, 0}";
},
{
horizontal = 1;
origin = "{0, 6}";
target = "{1, 6}";
}
);
layerId = "DDDB0B36-051A-43AE-9F30-611505482296";
paths = (
{
closed = 1;
nodes = (
"223 290 OFFCURVE",
"273 335 OFFCURVE",
"282 401 CURVE SMOOTH",
"317 649 LINE SMOOTH",
"326 715 OFFCURVE",
"289 760 OFFCURVE",
"226 760 CURVE SMOOTH",
"163 760 OFFCURVE",
"113 715 OFFCURVE",
"104 649 CURVE SMOOTH",
"69 401 LINE SMOOTH",
"60 335 OFFCURVE",
"97 290 OFFCURVE",
"160 290 CURVE SMOOTH"
);
},
{
closed = 1;
nodes = (
"132 335 OFFCURVE",
"108 360 OFFCURVE",
"114 401 CURVE SMOOTH",
"149 649 LINE SMOOTH",
"155 691 OFFCURVE",
"186 715 OFFCURVE",
"220 715 CURVE SMOOTH",
"258 715 OFFCURVE",
"277 686 OFFCURVE",
"272 649 CURVE SMOOTH",
"237 401 LINE SMOOTH",
"231 360 OFFCURVE",
"201 335 OFFCURVE",
"167 335 CURVE SMOOTH"
);
},
{
closed = 1;
nodes = (
"96 335 LINE",
"129 335 LINE",
"291 715 LINE",
"257 715 LINE"
);
}
);
width = 315;
}
);
note = zero;
},
{
glyphname = one.numr;
lastChange = "2018-05-02 18:11:20 +0000";
layers = (
{
layerId = "60B18B06-8123-4D0C-85E3-2DE7B5C03586";
paths = (
{
closed = 1;
nodes = (
"172 300 LINE",
"235 750 LINE",
"148 750 LINE",
"148 743 LINE SMOOTH",
"148 715 OFFCURVE",
"123 698 OFFCURVE",
"93 698 CURVE SMOOTH",
"72 698 LINE",
"60 613 LINE",
"131 613 LINE",
"87 300 LINE"
);
}
);
width = 228;
},
{
hints = (
{
horizontal = 1;
origin = "{0, 2}";
target = "{0, 8}";
},
{
horizontal = 1;
origin = "{0, 8}";
target = "{0, 7}";
}
);
layerId = "DDDB0B36-051A-43AE-9F30-611505482296";
paths = (
{
closed = 1;
nodes = (
"123 300 LINE",
"188 760 LINE",
"143 760 LINE",
"142 753 LINE SMOOTH",
"138 725 OFFCURVE",
"116 708 OFFCURVE",
"85 708 CURVE SMOOTH",
"74 708 LINE",
"68 663 LINE",
"129 663 LINE",
"78 300 LINE"
);
}
);
width = 179;
}
);
note = one;
},
{
glyphname = two.numr;
lastChange = "2018-05-02 18:11:20 +0000";
layers = (
{
layerId = "60B18B06-8123-4D0C-85E3-2DE7B5C03586";
paths = (
{
closed = 1;
nodes = (
"264 300 LINE",
"276 385 LINE",
"143 385 LINE",
"144 394 LINE SMOOTH",
"153 476 OFFCURVE",
"288 474 OFFCURVE",
"304 587 CURVE SMOOTH",
"313 649 LINE SMOOTH",
"323 715 OFFCURVE",
"283 760 OFFCURVE",
"216 760 CURVE SMOOTH",
"148 760 OFFCURVE",
"100 713 OFFCURVE",
"90 649 CURVE SMOOTH",
"86 624 LINE",
"171 624 LINE",
"175 649 LINE SMOOTH",
"177 664 OFFCURVE",
"190 675 OFFCURVE",
"204 675 CURVE SMOOTH",
"221 675 OFFCURVE",
"230 664 OFFCURVE",
"228 649 CURVE SMOOTH",
"219 587 LINE SMOOTH",
"209 519 OFFCURVE",
"72 524 OFFCURVE",
"52 379 CURVE SMOOTH",
"41 300 LINE"
);
}
);
width = 302;
},
{
associatedMasterId = "60B18B06-8123-4D0C-85E3-2DE7B5C03586";
layerId = "F92B29A1-039B-46AC-99A0-1FE44ADB51CB";
name = "Apr 25 18, 17:35";
paths = (
{
closed = 1;
nodes = (
"150 582 LINE SMOOTH",
"150 621 OFFCURVE",
"186 655 OFFCURVE",
"226 655 CURVE SMOOTH",
"265 655 OFFCURVE",
"301 623 OFFCURVE",
"302 582 CURVE SMOOTH",
"304 500 LINE SMOOTH",
"309 322 OFFCURVE",
"41 294 OFFCURVE",
"41 71 CURVE SMOOTH",
"41 0 LINE",
"414 0 LINE",
"414 95 LINE",
"142 95 LINE",
"142 284 OFFCURVE",
"399 275 OFFCURVE",
"399 503 CURVE",
"398 582 LINE SMOOTH",
"397 672 OFFCURVE",
"320 750 OFFCURVE",
"226 750 CURVE SMOOTH",
"134 750 OFFCURVE",
"54 676 OFFCURVE",
"54 582 CURVE SMOOTH",
"54 520 LINE",
"150 520 LINE"
);
}
);
width = 456;
},
{
hints = (
{
horizontal = 1;
origin = "{0, 27}";
target = "{0, 2}";
},
{
horizontal = 1;
origin = "{0, 10}";
target = "{0, 19}";
}
);
layerId = "DDDB0B36-051A-43AE-9F30-611505482296";
paths = (
{
closed = 1;
nodes = (
"246 300 LINE",
"252 345 LINE",
"86 345 LINE",
"87 350 LINE SMOOTH",
"106 444 OFFCURVE",
"274 501 OFFCURVE",
"289 607 CURVE SMOOTH",
"295 649 LINE SMOOTH",
"304 715 OFFCURVE",
"267 760 OFFCURVE",
"203 760 CURVE SMOOTH",
"141 760 OFFCURVE",
"91 715 OFFCURVE",
"82 649 CURVE SMOOTH",
"80 634 LINE",
"125 634 LINE",
"127 649 LINE SMOOTH",
"132 688 OFFCURVE",
"162 715 OFFCURVE",
"197 715 CURVE SMOOTH",
"233 715 OFFCURVE",
"256 688 OFFCURVE",
"250 649 CURVE SMOOTH",
"244 607 LINE SMOOTH",
"231 517 OFFCURVE",
"56 472 OFFCURVE",
"38 338 CURVE SMOOTH",
"33 300 LINE"
);
}
);
width = 273;
}
);
note = two;
},
{
glyphname = three.numr;
lastChange = "2018-05-02 18:11:20 +0000";
layers = (
{
layerId = "60B18B06-8123-4D0C-85E3-2DE7B5C03586";
paths = (
{
closed = 1;
nodes = (
"212 290 OFFCURVE",
"264 335 OFFCURVE",
"273 401 CURVE SMOOTH",
"282 464 LINE SMOOTH",
"286 490 OFFCURVE",
"281 514 OFFCURVE",
"271 532 CURVE",
"287 550 OFFCURVE",
"296 572 OFFCURVE",
"301 601 CURVE SMOOTH",
"308 649 LINE SMOOTH",
"318 715 OFFCURVE",
"278 760 OFFCURVE",
"212 760 CURVE SMOOTH",
"145 760 OFFCURVE",
"96 716 OFFCURVE",
"85 649 CURVE SMOOTH",
"81 624 LINE",
"166 624 LINE",
"170 649 LINE SMOOTH",
"172 664 OFFCURVE",
"184 675 OFFCURVE",
"200 675 CURVE SMOOTH",
"217 675 OFFCURVE",
"225 664 OFFCURVE",
"223 649 CURVE SMOOTH",
"216 601 LINE SMOOTH",
"214 585 OFFCURVE",
"201 575 OFFCURVE",
"186 575 CURVE SMOOTH",
"137 575 LINE",
"125 490 LINE",
"174 490 LINE SMOOTH",
"190 490 OFFCURVE",
"199 479 OFFCURVE",
"197 464 CURVE SMOOTH",
"188 401 LINE SMOOTH",
"186 386 OFFCURVE",
"174 375 OFFCURVE",
"158 375 CURVE SMOOTH",
"142 375 OFFCURVE",
"133 386 OFFCURVE",
"135 401 CURVE SMOOTH",
"138 426 LINE",
"53 426 LINE",
"50 401 LINE SMOOTH",
"42 335 OFFCURVE",
"79 290 OFFCURVE",
"146 290 CURVE SMOOTH"
);
}
);
width = 304;
},
{
hints = (
{
horizontal = 1;
origin = "{0, 48}";
target = "{0, 39}";
},
{
horizontal = 1;
origin = "{0, 31}";
target = "{0, 30}";
},
{
horizontal = 1;
origin = "{0, 13}";
target = "{0, 22}";
}
);
layerId = "DDDB0B36-051A-43AE-9F30-611505482296";
paths = (
{
closed = 1;
nodes = (
"201 290 OFFCURVE",
"250 335 OFFCURVE",
"260 401 CURVE SMOOTH",
"266 442 LINE SMOOTH",
"272 484 OFFCURVE",
"258 512 OFFCURVE",
"238 530 CURVE",
"267 549 OFFCURVE",
"285 582 OFFCURVE",
"290 619 CURVE SMOOTH",
"294 649 LINE SMOOTH",
"303 715 OFFCURVE",
"267 760 OFFCURVE",
"204 760 CURVE SMOOTH",
"140 760 OFFCURVE",
"91 715 OFFCURVE",
"82 649 CURVE SMOOTH",
"80 634 LINE",
"125 634 LINE",
"127 649 LINE SMOOTH",
"132 688 OFFCURVE",
"162 715 OFFCURVE",
"198 715 CURVE SMOOTH",
"235 715 OFFCURVE",
"255 688 OFFCURVE",
"250 649 CURVE SMOOTH",
"246 619 LINE SMOOTH",
"241 579 OFFCURVE",
"210 553 OFFCURVE",
"175 553 CURVE SMOOTH",
"139 553 LINE",
"133 508 LINE",
"169 508 LINE SMOOTH",
"204 508 OFFCURVE",
"227 481 OFFCURVE",
"221 442 CURVE SMOOTH",
"215 401 LINE SMOOTH",
"209 362 OFFCURVE",
"181 335 OFFCURVE",
"145 335 CURVE SMOOTH",
"108 335 OFFCURVE",
"87 362 OFFCURVE",
"92 401 CURVE SMOOTH",
"94 416 LINE",
"49 416 LINE",
"47 401 LINE SMOOTH",
"38 335 OFFCURVE",
"74 290 OFFCURVE",
"138 290 CURVE SMOOTH"
);
}
);
width = 289;
}
);
note = three;
},
{
glyphname = four.numr;
lastChange = "2018-05-02 18:11:20 +0000";
layers = (
{
layerId = "60B18B06-8123-4D0C-85E3-2DE7B5C03586";
paths = (
{
closed = 1;
nodes = (
"249 300 LINE",
"259 374 LINE",
"292 374 LINE",
"304 460 LINE",
"271 460 LINE",
"312 750 LINE",
"238 750 LINE",
"37 447 LINE",
"27 374 LINE",
"174 374 LINE",
"164 300 LINE"
);
},
{
closed = 1;
nodes = (
"203 580 LINE",
"186 460 LINE",
"128 460 LINE"
);
}
);
width = 313;
},
{
hints = (
{
horizontal = 1;
origin = "{0, 8}";
target = "{1, 2}";
},
{
horizontal = 1;
origin = "{0, 6}";
target = down;
type = TopGhost;
}
);
layerId = "DDDB0B36-051A-43AE-9F30-611505482296";
paths = (
{
closed = 1;
nodes = (
"224 300 LINE",
"238 398 LINE",
"280 398 LINE",
"286 443 LINE",
"244 443 LINE",
"287 750 LINE",
"242 750 LINE",
"31 440 LINE",
"25 398 LINE",
"193 398 LINE",
"179 300 LINE"
);
},
{
closed = 1;
nodes = (
"231 670 LINE",
"199 443 LINE",
"78 443 LINE"
);
}
);
width = 287;
}
);
note = four;
},
